/* XPM */
static char *_638187083[] = {
/* columns rows colors chars-per-pixel */
"64 64 8 1 ",
"  c #040404",
". c gray2",
"X c #0B0B0B",
"o c #0C0C0C",
"O c #111111",
"+ c gray8",
"@ c #181818",
"# c #1D1D1D",
/* pixels */
"++++o+++++++@@++++o++++@++@+++++O@@@@+@@++@@+O@+@+@++++OO+O+++++",
"++@+o+++@@++@+@@@+O+++@+@@+@+++++@+@+@@+@++@@o+++@@+++++++o@++++",
"XXoX.XXoXXXXXXXXX.XXooXXXXXXXX.XXXXXXoXXoXoooXXooOoooXooooXooooo",
"oOOoOOO+OOOoO+++@++++@++OO+O++++++OOO+oO+++++++++++o++@+++++OO++",
"++@++@++@++o@+#@@@@@@@@@+O@+@+@@@@@+++O@@+@@@#@@@@@o+@@@@@+@@@@+",
"@++++@+@@@+o++@@@@@@@@@@+O@@+@@@@#@+++O++@+@@@@@@@+o+@@@@@@@+@@+",
"++@+@+++@@+O@+@#@#@@@@@@++++@@@@@@@@+@O+@+@@@@@@@+@O@@@@@@@@+@@+",
"@@+@@@@@@@+O+@@@@@@@@@+@+++@@@@@@@@@@+O+++@@@@@@@@+o+@@@@@@++@++",
".XXXXXooXoooooooooXXXoooooooXXoXXoooooooooooXXXXooooXXXoXXXXXXX.",
"++O@o+@@@@@@@@@#@#O+@@+@@@@@@@@++@#@@@@@@@@++OOO+++++++++Oo+OO+O",
"+++@o@@@@@#@@@#@@@O@@@@@@++@@+@++@@@#@@@@@@@+O+O+@+O++++++o+++++",
"@++@o@@#@@#@##@@@@O++@@@@@@+@@+O+@#@@@@@@#@@+O@O++++@+++++o@+@++",
"+@++o@@@@@@@@@@@@@O+@@@@@@@@@@@O+@+@@@@@@@@@+O+++++++++@+Oo+++++",
"+OOOoOOOOOOOOOOOOOoOoOOOOOOoOOOooOOOOOoOOOOOooooooXooooooXXoXXXX",
"ooOOOOO+O++oO++++++++++++o+++++@++++++o+++OO++++++@o++++++@+++O+",
"@@+@@+@@@++O@@@@@@@@@@@@+O@@@@@@@@#@@@O+@@@@@+@@@+#O+@@@@@+@@@++",
"@@@@@@+@@+@O+@@@@@@@@@@@+O@#@@@@@@@@@@O+@@@@@@@@@+@O+@@@+@+@++++",
"+@+++@@@@++O+@@@@@@@+@+@+O@@@#@@@@##@@o@@@@@#@@@@@@O++@@@@@+@@++",
"++++@+@+@++o++@+@+@@@++@+O@+@@@@@@+@@@O+@@+@@+@@@+@oO+++OOO+++++",
"X.X....X..XX.XXXXX.XXXXX.XXXXX.XXoXXXXooXXX.XXXoooXOoooXooXXoooo",
"OO+Oo+++@+@+@+++++O@@@@+@@+@@++O+++@++++O++@OO@@++@@++@+++O@@@@@",
"+O++oO+O+++++++++@o@@+@@@@@@++@O+@++@+@++@+@O++@@++@+@@++OO+@++@",
"++OOoO+O++@+++++@+O@@++@+@@@++@O+@@@@+@+@+@@O++@@+@@++++++o@+@@@",
"++++OO+++++++@@+++O@@@@@@@@@@@@O@+@@@+++@@+@O+@@@@@+@@@+++O@@@+@",
"oooOooOOOOOoOooooooOoOOoOoOOOoOoooooOOOoOoOooooOoooooooooXXoXXXX",
"ooooooOoOooXOOOOOOOO+OOOoO++++OOO+++OOo+++O++++O+OOO++++OOO+OOOO",
"O++O+++++++O++@@+@+@@@@+++@@+@@+@+@@@@+@@@@@@@@@@++O@++++++++++O",
"O++O+++++++O@+++@@@@@@+@++@@@@@@@@@++++@@@@#@@@@@@+O@+@+++@++@++",
"O+++O++++++O++@@@+@@+@@@O+@@+@@@@@@+@++@@@@@@@@@@@+O@+++++@@@+++",
"++O++++O+++O++++@+@+@@@+O+@++@++++@+++O@+++++@+@@++o++++++OOO+OO",
"X.X.XX.XXX.XXX.XXX.XXXXoooXXoooXooXoooXXoXXoooooXXooooooooXooooo",
"OOOOoO+++++@++@@O@O+@@+@@@@@@@@O@@@@@+@@@@+@@++++@@@+@+@+@+++@@+",
"++++O+++@+@@+@+@+@O@@@@@@@@@@@+O@+@@@@@@@@+@+++@@@@+@+@@++O++@+@",
"++++OO+O+@+@@+@++@O@@@@@@#@@@@@O@+@+@@@@@++@++++@@@@++++++O++@++",
"++++o++++@++@++++@O@@@@@@@@@@@@O@@@@@@#@@@@++@+@@@+@@@@@++o@++@+",
"OOOOOooOOOOOOOOOOOOOOO+OOOOOOOOoOOOOOoOOOoOoOoOoOoooooooOooooXoo",
"OoOoOOOOOOOoOOO+O++++@++OO++@+@@@+@@@+O@@@@@@@@++@@O++@+@+@++@++",
"O++++@+@++@O@+@@@@@@+@+@+@@+@@+@@@@@@++@@#@@@@@@@@+O@+@@@+@@++++",
"+++@++@@+++o@@@@@@+@@@+@+@@@@@+@@#@@@++@+@@#@@@@@@@o+++++@@+@+++",
"+@+@@+++@++O+@@@@+@@@@+@+@@+@@@#@@@@@+O@+#@@@@@@++@O@@@@+@+@+@@+",
"++++@+@++@@OO++@+@+++++@O+@@++++++@@++OO++++O++++O+oOO+OOOOOoOoO",
".XXXX.XXooXoooooooXooOoooooOoOooOOOOOOOOOOOOXOOOOOOOOOO+OOoOOOOO",
"++++o++@+@@@@@@@@+O@@@@@@@+@++@O@@@#@###@@@@O+@@@@@@+@@@++O@+++@",
"+@@+O++++@++++@+++O+@@@+@@@@@@@O@@@@@#@@##@@O@@@@@#@@@@@@@O+++@+",
"+@++o++++@@@++@+++O+@@@@@@@@@+@O@@@@#@@#@@@@O+@@#@@@@@@@@+O+@@+@",
"++@+O++@+++@+@@+@++@@@@@@+@@@@@+@@@#@##@@@@@O@@@@@@@@@@@@@O++@@+",
"oOOOooooOooOOoOoooXoOOOoOOoOOoooOoOoOOooooXoXXXXoooooXoooXXXXXX.",
"OOOOOO++O++o++@+@@@@@@@@O+@+@@@@@@@@++O@@@+@+@+++@+O@++@@+@@+@@+",
"O+++@+@@@@+O@@@#@@#@@#@@++@@@@@@@@@#@@++@@+@@@@@@++O@+@@@+@@+@@+",
"++@+++++@+@o@@@+@@@@@#@#++@+@@@@@@@@#+O@@@@@@@++@@+O@+@@+@@++@@+",
"+@++@+++@@+O@@@@#@@@@@##++@@#@@@#@#@@@+@@@@@@@@+@@++@+@+@+@@@@++",
"+++++++++++O+@+@@@@@@@@+O+++++@+@++@++O+++++O+++OOOOOOO+OOOOOOoO",
"X.X.XXoooooOooOoOooOo+oOOOOOoOOoOO++O++O++++oOO++OO+OOOOOOoOO+O+",
"++O+oO@+@+@@@@@@@++@@@@@@+@@@@@O@######@#@@#O@@@@##@@@@@@@O@@@@@",
"++O+o@@@@+@@@@#+@@+@@@@@@@@@+@@O#@#@##@#####O@###@##@@#+@#O@@@@#",
"O+++o+@+@@+@+@@@@+O@@##@@@@@@@@O@###@#######+@#@###@@@@#@@O@@@@@",
"++++o+@@@@@@@@@@@@+@@#@@@@@@@@@O#@##@#####@#@##@#@#@@@#@#@O@@+@@",
"oOooooooooooooOOoooooooOoooooooooOOoooooOoooooooXoXoXXXXXXXoXX.X",
"OOOOOOO++++o++O+++++++++O+@+@@+@@+@@++O+@@++@+@++++O++@@++@+@+++",
"O+O+++++++@o+@@++@@+@++@O+@@+@@@+@@+@++@@@@+@+@@@+@O++@@+@+@++++",
"+OO+O+++O++o+@@++@+@@+++O@@@+@@@@+@+@++@@@+@@+@@+@@O@+@@@@+++@++",
"+OO++O++O++o+@@+@@+@@+@+O+@+@@@++@@+@+O@@@@@++++++OO+++++++O+++O",
"OOOOOOOO+OOoOOO+OOO+++++OO++OO+++O+OOOoOOOOOOOOOooOooOoOOoXXoXoX",
".X.X..XXXXooXXXoXXXooooooXooXXX.XXooooXo.XXXXX.XXXXXXXX.XX.XXXXX"
};
