/* XPM */
static char *collect1638187961[] = {
/* columns rows colors chars-per-pixel */
"84 84 138 2 ",
"   c None",
".  c #010100",
"X  c #080601",
"o  c #0B0902",
"O  c #171204",
"+  c #1A1504",
"@  c #201B07",
"#  c #2C250B",
"$  c #322A0A",
"%  c #302912",
"&  c #3A3113",
"*  c #403817",
"=  c #443C1A",
"-  c #4C421F",
";  c #5B4E19",
":  c #584E25",
">  c #5E5531",
",  c #625524",
"<  c #685B2B",
"1  c #77672E",
"2  c #766732",
"3  c #706A3E",
"4  c #796C3B",
"5  c #7E703A",
"6  c #817031",
"7  c #89783B",
"8  c #8B7C44",
"9  c #9A863E",
"0  c #938246",
"q  c #988743",
"w  c #91865B",
"e  c #A79656",
"r  c #AA9751",
"t  c #AE9C52",
"y  c #A0925D",
"u  c #A5985C",
"i  c #B8A455",
"p  c #B3A158",
"a  c #BCA75B",
"s  c #A49A63",
"d  c #AB9C64",
"f  c #A59A6B",
"g  c #B19E60",
"h  c #AFA16C",
"j  c #B3A162",
"k  c #BDA969",
"l  c #BAAC74",
"z  c #BCAD78",
"x  c #C3AC5D",
"c  c #C6B160",
"v  c #D1B969",
"b  c #C0AE73",
"n  c #C5B57A",
"m  c #CCBA7B",
"M  c #D0BC7E",
"N  c #DCC36E",
"B  c #D9C370",
"V  c #DCC878",
"C  c #E1C975",
"Z  c #E5CD7B",
"A  c #EAD27E",
"S  c #AAA389",
"D  c #B2AB8E",
"F  c #AEAB9F",
"G  c #B4AC91",
"H  c #B7B196",
"J  c #BCB491",
"K  c #BFB99C",
"L  c #BCB7A5",
"P  c #CFBD81",
"I  c #CABF95",
"U  c #C3BB9D",
"Y  c #C4BEA0",
"T  c #C2BDAA",
"R  c #D4C383",
"E  c #D9C784",
"W  c #D7C885",
"Q  c #DBC885",
"!  c #D2C68F",
"~  c #D8C68D",
"^  c #D9C98A",
"/  c #D5CC90",
"(  c #DCCB93",
")  c #DFD39A",
"_  c #E6CF85",
"`  c #ECD685",
"'  c #EFD986",
"]  c #EED78C",
"[  c #EBD88F",
"{  c #F0D784",
"}  c #F2D986",
"|  c #F3DB8B",
" . c #EFDB91",
".. c #E1D39C",
"X. c #F3DD91",
"o. c #F8E08F",
"O. c #F5E195",
"+. c #FCE495",
"@. c #F7E19A",
"#. c #CDC3A4",
"$. c #CEC6AE",
"%. c #D1C6A6",
"&. c #D0C7AC",
"*. c #D1C9A8",
"=. c #C9C5BB",
"-. c #DFD8B6",
";. c #E0D3A1",
":. c #E5DAA4",
">. c #EFE0AC",
",. c #FDE7A2",
"<. c #F1E1AE",
"1. c #FDEAAD",
"2. c #E9E0B3",
"3. c #ECE3BC",
"4. c #F3E4B4",
"5. c #FBEAB5",
"6. c #F5E7BA",
"7. c #F6EBBD",
"8. c #F8E9BB",
"9. c #EFE6C4",
"0. c #F2E7C2",
"q. c #F5E9C4",
"w. c #F9ECC5",
"e. c #F3EBC9",
"r. c #FEF1C6",
"t. c #FFF2CC",
"y. c #F4EEDB",
"u. c #FFF4D4",
"i. c #FFF6DC",
"p. c #E8E6E1",
"a. c #EDEAE4",
"s. c #FFF7E1",
"d. c #FFF8E3",
"f. c #F6F4ED",
"g. c #F8F4EA",
"h. c #FFFAEC",
"j. c #FEFBF3",
"k. c #FFFEFC",
/* pixels */
"                                                                                                                                                                        ",
"                                                                                                                                                                        ",
"                                                                                                                                                                        ",
"                                                                                                                                                                        ",
"                                                                                                                                                                        ",
"                                                                                                                                                                        ",
"                                                                                                                                                                        ",
"                                                                                                                                                                        ",
"                                                                                                                                                                        ",
"                                                                                                                                                                        ",
"                                                                                                                                                                        ",
"                                                                                                                                                                        ",
"                                                                                                                                                                        ",
"                                                                                                                                                                        ",
"                                                                                                                                                                        ",
"                                                                                                                                                                        ",
"                                                                                                                                                                        ",
"                                                                                                                                                                        ",
"                                                                                                                                                                        ",
"                                                                                                                                                                        ",
"                                                                                                                                                                        ",
"                                                                                                                                                                        ",
"                                                                                                                                                                        ",
"                                                                                                                                                                        ",
"                                                                                                                                                                        ",
"                                                                                                                                                                        ",
"                                                                                                                                                                        ",
"                                                                                                                                                                        ",
"                                                                                                                                                                        ",
"                                                                                                                                                                        ",
"                                                                                                                                                                        ",
"                                                                              L T $.&.T $.%.U #.#.U %.#.U %.#.U #.U G                                                   ",
"                                                                            =.p.f.g.y.g.i.q.q.w.q.w.w.q.w.w.q.w.q.q.3.%.                                                ",
"                                                                          F a.k.k.k.d.h.i.u.t.t.t.t.t.t.t.t.t.t.t.t.t.0.D                                               ",
"                                                                          L a.k.k.k.d.u.t.t.t.t.t.t.t.t.r.t.t.t.t.t.t.w.%.                                              ",
"                                                                          T y.j.k.h.u.t.t.t.t.t.t.r.t.t.t.t.t.t.r.t.t.q.#.                                              ",
"                                                                          H e.i.i.u.u.t.t.t.t.t.t.t.t.t.t.t.t.u.t.t.t.w.U                                               ",
"                                                                          K 9.t.t.i.d.d.i.u.t.t.t.t.t.t.i.i.d.i.u.u.t.w.%.                                              ",
"                                                                          Y q.u.i.d.d.i.d.d.i.t.r.t.u.i.d.i.d.s.d.i.u.0.#.                                              ",
"                                                                          H e.i.i.u.t.t.t.i.i.u.t.t.u.i.u.u.t.t.u.i.u.q.!                                               ",
"                                                                          U 9.u.u.q.4.<.7.r.u.u.t.u.u.t.r.6.<.8.r.u.t.1.^                                               ",
"                                                                          Y e.t.>.P j d z :.w.t.t.t.t.6.( k g l ( 1.1.@.R                                               ",
"                                                                          H q.6.n 4 = % : u ;.r.t.t.w.~ 0 ; & - 8 V O.+.m                                               ",
"                                                                          K 3.) 8 + . . o , z 7.t.r.>.y & . . X & t ` O.E                                               ",
"                                                                          Y 6.! > o . . . & d 2.t.w...8 + . . . + 0 A X.R                                               ",
"                                                                          G 3./ 3 X . . . - l 4.r.r...8 # . . . $ q ` +.m                                               ",
"                                                                          S -.:.f = O X # 5 ^ 5.5.1.O.p , + X O , x | | m                                               ",
"                                                                            Y 2.( e 2 1 9 v @.,.| Z ' Z i 6 < 7 x A ] E                                                 ",
"                                                                              J ) _ C N Z X.+.| a q B o.} C B C { _ P                                                   ",
"                                                                                R +.+.+.+.+.+.| c t C +.+.+.+.+.+.Q                                                     ",
"                                                                                n O.+.+.| X.+.+.` ` | +.X.X.+.+.+.W                                                     ",
"                                                                                z [ +.Q n E [  .m b W X.R m m X.| n                                                     ",
"                                                                                  m R l   f ^ W w   z R h   f W _                                                       ",
"                                                                                                                                                                        ",
"                                                                                                                                                                        ",
"                                                                                                                                                                        ",
"                                                                                                                                                                        ",
"                                                                                                                                                                        ",
"                                                                                                                                                                        ",
"                                                                                                                                                                        ",
"                                                                                                                                                                        ",
"                                                                                                                                                                        ",
"                                                                                                                                                                        ",
"                                                                                                                                                                        ",
"                                                                                                                                                                        ",
"                                                                                                                                                                        ",
"                                                                                                                                                                        ",
"                                                                                                                                                                        ",
"                                                                                                                                                                        ",
"                                                                                                                                                                        ",
"                                                                                                                                                                        ",
"                                                                                                                                                                        ",
"                                                                                                                                                                        ",
"                                                                                                                                                                        ",
"                                                                                                                                                                        ",
"                                                                                                                                                                        ",
"                                                                                                                                                                        ",
"                                                                                                                                                                        ",
"                                                                                                                                                                        ",
"                                                                                                                                                                        ",
"                                                                                                                                                                        ",
"                                                                                                                                                                        ",
"                                                                                                                                                                        ",
"                                                                                                                                                                        "
};
