/* XPM */
static char *Crate1638187018[] = {
/* columns rows colors chars-per-pixel */
"64 64 42 1 ",
"  c #030100",
". c #0E0503",
"X c #130704",
"o c #150804",
"O c #1B0C06",
"+ c #1D0F09",
"@ c #1F100A",
"# c #26130C",
"$ c #2A150E",
"% c #32190F",
"& c #2F1910",
"* c #341B12",
"= c #3B1F15",
"- c #3D2016",
"; c #3F2118",
": c #442316",
"> c #422319",
", c #49271B",
"< c #4D291E",
"1 c #522C1F",
"2 c #552E21",
"3 c #582F22",
"4 c #573023",
"5 c #5A3123",
"6 c #633525",
"7 c #673825",
"8 c #693927",
"9 c #643728",
"0 c #673928",
"q c #6C3B29",
"w c #733E2C",
"e c #76402C",
"r c #7A432E",
"t c #7E4630",
"y c #80462F",
"u c #814731",
"i c #844931",
"p c #8D4D35",
"a c #904F37",
"s c #915037",
"d c #945239",
"f c #9A573E",
/* pixels */
">>>>:::>>>:,>>>>>>>>>>>>>>>>>>>>>>>>>>>>>>>>>>>>>>>>:::>>>>>>>>>",
">>,2334344513344434533333435333533333553333333333333613333511<>>",
">,2esffffffffffffffffffffffffffffffffffffffffffffffffffffffaw1,>",
">1r1esdddddddddddadadddddddddadadddddadddddadddddadfdaddddaw1r1>",
">1dr1rppar:8paappappapppappppppppaapapapappppappapap8,yapaw1rp1:",
":4fdr1epa1 %iaappapapppppappppppppppappppppapppppaai$ 1ppr1rar<:",
">3fdpr1epw:6ppppppappapppppppppppaaapaapaapaappppppp6:rar1rppr1>",
">2fdppr1eppyppppippippppppppppppipippipppipippppppipippw1rpppw1>",
":3fdiwir1eyererrrrwrrrwtwrwtwrrwrrrrwtwwtwtwwwtwrrrrrye1rpwipr1:",
":1fs,o3pr,11111111222121222222221111224222222422<11111<rp1X1pe1:",
":3fd,o3py1riyyypaw>$$$$$$$$$$$$$$$$$$$&&$$$$$>wiyiiiir1ds1X1ir1>",
":3fdiwiir1ippwppffw<<1111;2941441211><94<12<,wfdapeiay1fdpwypr1>",
":4fdapppr1ip5o1ppdfw<4554,5w55553555<2w5544<wfdapwO=py1fappapr1:",
">4fdppppr1ip1X:ppadfw2444,5w55555555<2w5452wfdppp8X%pi1fdappir1>",
":1fdppppr1ypiwyappadfw<44,5w55554555<1w55<wffpppppwray1ddappir1>",
",1fdppppr1ippppappaaffw<4,5w55555555,2w4<wfdpaapppppay1fdaaapr1>",
">2fdaappr1yippppspsppdfe<,4q55555555<171efdpappppppptr2fsppppr1:",
">3fdppppr1qryppspppppsdfe<5w55555554<11wfdaappappppyr71fdppspr<:",
">4fdpppir3>8ryppppppsppffe1855555555,,wfdppppppappyr8:5fdspppr1>",
">1fdppppr3#-qrypspspppppdfe155555454,effppappapppyr7-#5fdppppr<>",
":3fdppppr5-+-0rtppsppspppdfe<4555542efdpaapppppprr8=+-5fdppppr<>",
":1fsppppr52;+-0trpppppspapffe14454<wfdpppppappptr8-+>15fdppppe1>",
":4fdppppr534;+=0ryppppppappdfe<42<wfdspapappppur8=+>435fdapdpr1>",
",1fdpppir4244;+=qyyppspppppddfe<<wffsppppppaptr8=#:4435fdpppir1>",
">3fdapppr32342*@-7rtpppppppppdfqwffppppppppptr8=@<55525ddppapr<>",
">1fdppppr33542,>#=8rtppppdppppdpffapppappppur8=+-q05526fdapppr1>",
":3fdppppr53544<9,+-8ttppsppspppfdpppapppppur0=+*,q95526fdapspr1>",
",1fdpppir53542<07;+-qrtpppppppfdaappppapptr8=+>1<q05545ddppppr1>",
">1fdpappr53551<975;@-8rypppppfdsppppppppur0=@;42<q94536fdppair<>",
":3fdpppir53551<0054;+-qrrppdfdspapppappyr8=+;442<q05535fdapppr1>",
">1fdppapr55551<00554;@-0yipffspppppdppyr8=+>4444<q94515fdpppir1>",
">4fdapppr52554<004554;+=qpfdpppppapppur8=+;45442<q04615fdpaapr<:",
">3fappaiw44552<0055536::wfdappppppapyriw>-155542<q94546fdppppr1>",
">3fdppppu44552<0055431<wfdapaapppspyriafw<455542<q95545fdppapr1>",
">3fdpapit34452<9055531wffaapppppppyyipadfr<45552<q95445fdpppir<>",
">2fdppppt54542<005331wfdaappapappyripapadfw145522q94545fdpappr1>",
">2fdppait33552<9055<wffppppaapppyrpppppapdfe1441<095535fdaappr1>",
">3fdapppw55532<905<wfdpppapppppuripppapppadfw1412095535fdppppr1>",
",1fdapppt33552<99<wffpappppppputpyppppppppadfw<1,095555fdppair<>",
":1fdpppit35532,62wffpppppppaptt08yyppappappadfr:<q95525fdppapr1>",
">3fdapapr53451,1wfdaaappppaptt0==8ryppppapappffe<004545fdpappr1:",
">2fdppppr53552,wfdappppapaptt9=++=8ytpppppapppdfw264545ddppppr1:",
">1fdpppir5354<wffapppapapptt9=+==+=8rtppapppspsdfw13546fdppppr1>",
">3fdppppr5311effappappppptt0=+=23>+=0rtpppapppppdfe1445ddapppw1>",
":3fdppppy511wfdappppapaptt0-+;5553>+=0ttppappappadfw125fdpppir1:",
":1fsppppy11wfdappapapppyt9=@;555553>+=0trpppppppppdfw<5fdpappr1>",
">3fdpppir1wffapppappaayw9=+,44555554=+=0rrppppaapaadfw1fdapppr1>",
":3fdppppr1pdapppppapayrq;+>q55554555,=+=8yypappppppadi1fdppppr<:",
">1fdpppir1iappppsppptr9-O$5e55555554<<<@-0rrppppaapppy2fdpsppr1:",
">4fdppppr1ipe1epppptrq-O-;5e55555555<2q,@-qtrppppy17pi2fdppppe<:",
":3fdppppr1ip: :ipptrq-+-1,5e55455555<2w5;+-7trppa8 #ii1fdpsppr1:",
",1fdpppir1ipw*7pstr6-+-44,5e55555554,2w54;@-7trpar:1pi3fdppppr1:",
">1fdw5epr1ipsppptte-+-554,5e55555555<2q644;+-errpppapi1fdr5rir<>",
">4fd: 1py1ryyiiyre-#-2451,5q44444444<204442=$>7ryyyiyr1da< :pr1>",
":2fd6%8pe,22331355555555555959595955656656565544115311<ra7$7ir1>",
">4fdippr1rdfffffffffffffffffffffffffffffffffffffffffffr1rppppr1>",
">1fdppe1rpippsssaasassddssssaaaaddaasaaasssssssspddppipr1wpppr1:",
">3fspr1rp7O<ppppappappppapppspppaappaapppppppapspppp:+qpr1eppr1:",
">4dse1rpp6 -ppppppaapppppppspppppapppppapapppspppppp*.5par1rpi1>",
">1pe1rpppiqyppspappsppspsppppspppppappppppppppppppppyqppppr1ep1>",
">1e1rpippipipipiipiiiipippiiipipippipiippipppipipipipiiiippr1e1:",
">,1rprrrrrrrerrrrrrrrrrrerrrterrretetrterrerrrrrrrrrrrttrrrpr1,:",
">>,1111111111111414141111111411411211111111111111<111<1111<11,:>",
">>>>>>>>;;>;>>>:;;;>;;,;;,;;>;;;>;>>;>>;>>;>>;>>>>>>>>>>>>>>>>:>"
};
