/* XPM */
static char *exit_win1638254361[] = {
/* columns rows colors chars-per-pixel */
"63 64 163 2 ",
"   c None",
".  c black",
"X  c #010101",
"o  c #020202",
"O  c gray1",
"+  c #040404",
"@  c gray2",
"#  c #060606",
"$  c #070707",
"%  c gray3",
"&  c #090909",
"*  c gray4",
"=  c #0B0B0B",
"-  c #0C0C0C",
";  c gray5",
":  c #0E0E0E",
">  c gray6",
",  c #101010",
"<  c #111111",
"1  c gray7",
"2  c #131313",
"3  c gray8",
"4  c #151515",
"5  c #161616",
"6  c gray9",
"7  c #181818",
"8  c #191919",
"9  c gray10",
"0  c #1B1B1B",
"q  c gray11",
"w  c #1D1D1D",
"e  c #1E1E1E",
"r  c gray12",
"t  c #202020",
"y  c gray13",
"u  c #232323",
"i  c gray14",
"p  c #252525",
"a  c gray15",
"s  c #272727",
"d  c #282828",
"f  c gray16",
"g  c #2A2A2A",
"h  c gray17",
"j  c #2C2C2C",
"k  c #2D2D2D",
"l  c gray18",
"z  c #2F2F2F",
"x  c gray19",
"c  c #313131",
"v  c #323232",
"b  c #343434",
"n  c gray21",
"m  c #373737",
"M  c gray22",
"N  c #393939",
"B  c #3C3C3C",
"V  c gray24",
"C  c #3E3E3E",
"Z  c #3F3F3F",
"A  c gray25",
"S  c #414141",
"D  c gray26",
"F  c #444444",
"G  c gray27",
"H  c gray28",
"J  c #484848",
"K  c #494949",
"L  c gray29",
"P  c #4B4B4B",
"I  c #4C4C4C",
"U  c gray30",
"Y  c #4E4E4E",
"T  c gray31",
"R  c #505050",
"E  c #515151",
"W  c gray32",
"Q  c #535353",
"!  c gray33",
"~  c #555555",
"^  c #565656",
"/  c gray34",
"(  c #585858",
")  c gray35",
"_  c #5B5B5B",
"`  c gray36",
"'  c #5D5D5D",
"]  c gray37",
"[  c #5F5F5F",
"{  c #606060",
"}  c gray38",
"|  c #626262",
" . c gray39",
".. c #646464",
"X. c #656565",
"o. c gray40",
"O. c #676767",
"+. c #686868",
"@. c DimGray",
"#. c #6A6A6A",
"$. c gray42",
"%. c #6C6C6C",
"&. c #6D6D6D",
"*. c gray43",
"=. c #6F6F6F",
"-. c gray44",
";. c #717171",
":. c #727272",
">. c gray45",
",. c #747474",
"<. c gray46",
"1. c #767676",
"2. c #777777",
"3. c gray47",
"4. c #797979",
"5. c gray48",
"6. c #7B7B7B",
"7. c #7C7C7C",
"8. c gray49",
"9. c #7E7E7E",
"0. c gray50",
"q. c #808080",
"w. c #818181",
"e. c gray51",
"r. c #838383",
"t. c #848484",
"y. c gray52",
"u. c #868686",
"i. c gray53",
"p. c #888888",
"a. c #898989",
"s. c gray54",
"d. c #8B8B8B",
"f. c gray55",
"g. c #8D8D8D",
"h. c #8E8E8E",
"j. c gray56",
"k. c #909090",
"l. c gray57",
"z. c #929292",
"x. c #939393",
"c. c gray58",
"v. c #959595",
"b. c gray59",
"n. c #979797",
"m. c #989898",
"M. c gray60",
"N. c #9A9A9A",
"B. c #9B9B9B",
"V. c gray61",
"C. c #9D9D9D",
"Z. c gray62",
"A. c #9F9F9F",
"S. c #A0A0A0",
"D. c gray63",
"F. c #A2A2A2",
"G. c gray64",
"H. c #A4A4A4",
"J. c #A5A5A5",
"K. c #A7A7A7",
"L. c gray66",
"P. c #A9A9A9",
"I. c #AAAAAA",
/* pixels */
"                                              K.K.K.P.P.P.K.Z.z.7.%.@.X.X.                                                    ",
"                                        P.P.K.G.G.Z.G.Z.Z.Z.Z.Z.B.B.z.5.@.X.| | X.                                            ",
"                                    K.G.G.Z.Z.B.B.B.b.B.B.b.B.Z.G.G.Z.B.z.7.%.| X.| |                                         ",
"                                K.G.G.Z.B.b.b.B.b.b.B.b.b.B.b.B.b.B.Z.G.G.Z.f.2.X.X.X.X.|                                     ",
"                              G.G.B.b.B.B.b.b.B.b.| n 3 & q N | z.B.b.B.B.Z.G.b.7.X.X.X.X.X.                                  ",
"                            G.Z.B.B.B.b.b.b.B.] < . . . . . . . < ! b.B.b.B.B.Z.B.e.@.X.X.@.X.                                ",
"                          G.%.| B.b.b.B.b.f.j . . . . . . . . . . . i p.b.b.b.b.Z.X.( @.X.X.X.X.                              ",
"                        G.z.. . q B.b.B.p.< . . . . . . . . . . . . . ; i.b.b.z.i . . %.@.| X.X.X.                            ",
"                      G.B.S . . . B B.b.9 . . . . . . . . . . . . . . . 3 b.b.U . . . x 2.| X.X.X.|                           ",
"                    Z.B.S . . . . . X.e.. . . . . . . . . . . . . . . . . :.@.. . . . . n :.X.X.X.X.X.                        ",
"                    B.b.. . . . . . 3 N . . . . . . . . . . . . . . . . . x q . . . . . . i.@.X.X.@.X.X.                      ",
"                  Z.b.b.B . . . . . h j . . . . . . . . . . . . . . . . . h j . . . . . j f.2.X.X.X.X.X.                      ",
"                Z.b.z.z.f.9 + . . . q j . & . . . . . . . . . . . . . ; . u u . . . . 3 i.b.i.X.X.X.@.X.]                     ",
"                B.b.z.z.z.z.i.i.e.X.] 9 . 9 + . . . . . . . . . . . + 3 . ; ! | 7.i.e.z.z.b.p.%.X.X.X.X.X.                    ",
"                b.z.z.z.z.z.z.z.z.z.z.& . q + . . . . . . . . . . . . u . . z.z.z.z.f.f.f.z.p.5.@.X.@.X.X.                    ",
"              Z.b.f.z.f.z.f.z.f.z.f.z.u ; ; . . . . . . . . . . . . . ; < q f.f.f.f.f.z.f.z.z.e.@.X.X.X.X.X.                  ",
"              b.z.z.f.f.z.f.z.f.z.f.f.E < + S ] 2.] ; . . . & ! 2.| K . & U f.f.z.f.f.f.f.z.f.i.@.X.X.X.X.X.                  ",
"              b.f.z.f.z.f.z.f.z.z.f.z.:.. x f.z.f.f.e.< . & 5.f.f.f.f.N . X.f.f.f.f.f.f.f.f.f.i.%.X.X.@.@.X.                  ",
"              z.z.f.f.z.f.f.z.f.f.f.f.f.< K f.f.f.f.p.u . ; f.f.f.f.f.E < p.f.f.p.f.p.f.f.f.f.p.:.X.X.X.X.X.                  ",
"              f.f.f.f.f.f.f.f.f.f.f.f.E + ! f.f.f.f.%.. . . ] f.f.f.f.] . K f.f.f.f.f.f.f.p.p.e.:.@.X.X.X.X.                  ",
"              z.f.z.f.f.f.f.f.f.f.f.f.U . i f.p.i.E . j 7.N . U i.f.p.j . S p.p.p.f.p.f.p.f.f.i.:.X.X.@.X.X.X.                ",
"              e.e.i.p.p.f.f.f.p.f.f.%.| & . q h ; . + p.e.p.< . + h u . + ( %.p.p.p.p.p.p.p.p.i.:.@.X.X.X.X.X.                ",
"              :.%.2.7.e.p.! F S h < . 3 E + . . . . n p.K p.F . . . . . U q . < h S F U p.p.p.e.%.X.X.X.@.@.X.                ",
"              i.e.i.i.e.E . . . . . . . < E B B < . q 7.j 7.h . ; B B U 3 . . . . . . . F i.p.e.:.X.X.@.X.X.X.                ",
"              Z.b.z.f.i.F . . . . . . . h e.p.p.F . . & . & . . N p.i.i.j . . . . . . . N i.p.e.%.X.X.X.| ] ]                 ",
"              b.p.p.p.p.e.i . . . . + | i.i.p.i.( & ; . . . & & U p.i.i.7.( & . . . . i 5.i.p.7.:.X.| ] ! E                   ",
"              p.i.i.i.i.i.5.. . . . %.p.i.i.i.i.e.n . q 9 q . h 7.i.i.e.7.5.%.. . . . %.i.e.i.e.%.X.] ! E !                   ",
"              i.i.i.i.i.i.i.9 + & ( i.i.i.i.e.i.i.5.u 9 i 9 u 2.i.i.e.i.i.e.i.] & + 9 7.e.i.i.7.:.X.| | | |                   ",
"              i.i.i.i.i.e.i.i.i.i.i.i.e.i.e.i.e.e.e.i.e.i.e.e.i.e.i.e.i.e.i.e.e.e.e.e.e.e.i.i.7.%.X.X.| X.|                   ",
"              e.e.i.e.e.i.e.e.i.i.e.i.e.e.i.e.e.i.e.e.e.e.e.e.e.e.e.e.e.e.e.e.e.e.e.e.e.e.e.e.7.:.X.| ] ! (                   ",
"              i.e.e.e.i.e.e.e.7.5.e.e.e.e.e.e.e.e.e.e.e.e.e.e.e.e.e.e.e.e.7.e.e.e.e.e.e.e.7.e.7.%.X.| | ]                     ",
"              e.i.e.e.e.e.e.e.:.%.7.i.e.e.e.e.e.7.e.e.e.e.e.e.e.e.e.7.e.e.e.e.7.e.e.7.e.e.e.e.7.:.X.X.X.X.                    ",
"              e.e.i.e.e.e.e.e.2.:.5.e.e.e.e.e.e.e.e.e.e.e.e.7.e.e.e.e.e.7.e.7.e.e.7.7.e.7.e.e.5.%.X.X.@.X.X.                  ",
"              e.e.e.e.e.e.e.e.7.7.e.e.e.e.e.7.e.7.e.7.e.7.7.e.e.7.7.e.7.7.e.7.7.e.7.e.7.7.7.7.5.%.X.X.X.X.X.                  ",
"              e.e.7.e.7.7.e.e.e.e.e.e.e.7.e.e.7.e.7.7.7.e.7.e.7.e.7.7.7.7.7.7.e.7.7.7.7.7.7.7.5.%.@.X.@.@.X.                  ",
"              e.@.! E %.e.X.! E E ( 7.7.:.E ( 7.7.( E E 5.7.7.7.:.E E E E 7.! E | E X.! E E 5.5.%.X.X.X.X.X.X.                ",
"              7.%.; x h E %.; x h E 7.7.X.; K 7.7.E 9 N i %.7.7.7.; x x N 7.E ; E x ] E q N i @.%.X.X.X.X.X.X.                ",
"              7.%.; U | q %.; K B 7.7.%.i 9 ; E 7.E ; @.E S 7.5.5.; S N 7.5.U 9 i n @.U ; @.E B %.X.@.X.@.X.X.                ",
"              7.%.; E @.; i ; q S 5.7.@.; N ; i 5.E ; @.U N 5.5.K ; 9 9 2.5.U N ; 9 @.U ; @.U n %.X.X.X.X.X.X.                ",
"              5.%.; U E x | ; U ] ] 5.] 9 i 9 N 5.U & @.n U 5.5.:.; S %.U 5.U S K ; X.U ; X.N K %.X.@.X.X.X.X.                ",
"              2.E & h h %.( ; i 9 9 @.9 9 %.j ; U S ; x N 5.5.2.@.; i i 9 K j 9 | ; X.S ; j N 2.@.@.X.@.X.X.X.                ",
"              2.:.@.%.7.5.5.@.X.@.X.5.X.@.5.:.@.%.@.X.%.5.2.5.2.2.X.X.X.| 2.@.X.2.X.2.%.X.@.5.:.%.X.X.X.@.X.X.                ",
"              e.p.i.5.2.5.2.2.5.5.2.2.5.2.5.5.2.2.2.2.2.2.2.2.2.2.2.2.2.:.2.2.2.2.2.2.2.2.2.2.2.@.X.X.X.X.X.X.                ",
"              p.i.5.5.2.2.2.2.2.2.2.2.2.2.:.:.2.2.2.2.2.2.2.2.:.2.2.:.2.2.2.:.:.:.2.:.2.2.:.2.:.@.@.@.X.X.X.X.                ",
"              7.2.2.2.2.:.2.2.2.2.:.2.2.:.:.2.:.:.2.:.:.2.2.:.2.:.2.2.:.2.:.:.2.:.2.:.:.2.:.:.:.@.X.X.X.X.X.X.                ",
"              2.2.2.2.:.2.2.2.2.2.2.2.2.2.2.2.2.2.2.2.2.:.:.2.2.:.2.:.2.:.2.2.:.2.:.2.2.:.2.2.:.@.@.X.@.X.X.X.                ",
"              2.2.:.:.2.:.2.:.:.:.:.2.:.2.:.:.:.:.:.:.2.:.:.2.:.:.2.:.:.:.:.:.:.:.:.:.:.:.:.:.:.X.X.X.X.X.X.X.                ",
"              %.:.:.:.:.:.%.:.:.:.:.:.%.:.:.:.%.:.:.%.:.%.:.%.:.:.%.:.%.%.:.%.:.%.%.:.%.%.:.:.@.X.| | X.X.X.X.                ",
"              5.7.7.7.7.7.7.7.7.5.7.7.7.7.7.5.7.7.7.7.7.5.7.7.7.7.7.7.5.7.7.7.7.7.7.7.5.7.7.7.5.2.2.:.:.@.X.X.                ",
"  Z.G.Z.Z.Z.B.B.b.B.B.b.b.b.b.B.b.b.b.b.b.B.b.b.b.b.b.b.b.b.b.b.b.b.b.b.b.b.b.b.b.b.b.b.b.b.b.b.b.z.b.z.5.X.| X.X.X.X.X.      ",
"  z.z.f.z.z.b.z.z.z.z.z.z.z.z.z.z.z.z.z.z.z.z.z.z.z.z.z.z.z.z.z.z.z.z.z.z.z.z.z.z.z.z.z.z.z.z.z.z.z.z.z.5.| X.X.X.X.X.X.X.X.  ",
"  i.e.i.i.e.e.e.i.e.e.e.e.i.e.e.i.e.e.i.e.i.e.e.e.e.e.i.e.e.i.e.e.i.e.e.i.e.e.e.e.i.e.e.i.e.e.e.e.i.e.e.2.X.X.X.X.@.X.@.@.X.X.",
"e.7.e.7.e.7.5.:.:.5.e.7.7.e.7.e.e.7.e.7.7.e.e.7.7.e.7.e.7.e.7.e.7.e.7.e.e.7.e.e.7.e.7.e.e.7.e.e.7.e.e.7.:.X.X.X.X.X.X.X.X.@.X.",
"e.7.7.e.e.5.:.X.X.:.5.e.e.7.e.7.e.7.7.e.e.e.7.e.7.e.e.7.7.e.e.7.e.7.7.e.7.e.7.e.e.7.7.e.7.e.e.7.e.7.e.7.:.X.X.@.@.X.@.X.X.X.X.",
"7.7.e.e.e.5.X.| | @.2.7.e.e.e.7.e.e.7.e.7.e.7.e.e.e.e.e.e.e.e.e.7.e.e.7.7.e.e.7.e.7.e.e.7.e.e.7.e.e.7.e.%.X.X.X.X.X.X.@.X.X.X.",
"e.e.e.7.e.2.@.| X.@.2.e.e.7.e.e.7.e.e.e.7.e.e.e.e.7.7.e.e.7.7.e.e.7.2.2.2.7.e.e.e.e.e.7.e.e.7.7.7.e.e.7.:.X.X.X.@.X.X.X.@.X.X.",
"e.7.7.e.e.7.:.@.@.2.7.e.e.e.7.e.7.e.e.e.7.e.e.7.7.e.e.7.e.7.7.e.e.5.@.X.@.2.e.e.7.e.e.e.e.7.5.5.7.e.e.e.:.X.X.X.X.X.X.@.X.@.X.",
"7.e.e.e.e.e.7.5.5.7.e.7.7.e.7.e.e.e.7.e.7.e.e.7.e.e.7.e.e.e.e.e.e.5.@.X.X.5.e.7.e.e.7.e.e.5.2.5.e.e.7.7.:.X.X.X.@.X.X.X.X.X.X.",
"e.7.e.7.7.e.e.e.e.e.e.e.e.7.e.e.e.7.e.7.e.e.e.e.e.7.7.e.7.e.e.7.e.7.2.%.:.5.e.e.e.7.e.7.e.7.7.7.7.e.7.e.:.X.X.@.X.@.X.@.X.X.X.",
"e.e.e.7.e.e.e.7.7.e.7.e.e.e.e.7.e.7.e.e.e.7.7.e.e.7.7.e.7.e.e.7.7.e.7.5.7.e.e.7.e.7.e.e.7.e.e.e.7.e.e.7.:.X.X.X.X.X.X.X.@.X.X.",
"7.e.e.7.7.e.e.e.e.e.e.7.7.7.e.e.e.7.e.e.e.7.7.e.e.e.7.e.7.e.e.e.7.e.e.e.e.e.7.e.e.7.e.e.e.7.7.e.e.e.e.7.:.X.X.X.X.X.X.X.X.@.X.",
"e.7.e.e.e.e.7.e.7.7.e.e.e.e.e.7.e.7.e.7.e.e.e.e.7.e.7.e.e.e.7.e.e.e.7.e.7.e.7.e.e.7.e.7.e.e.e.e.e.7.7.e.:.X.X.X.@.X.@.X.X.X.X.",
"e.e.7.e.e.7.7.e.e.e.e.7.7.7.7.e.7.e.7.7.7.7.7.7.7.7.e.7.7.7.e.7.7.7.7.7.7.7.e.7.7.e.7.7.7.7.7.7.e.7.7.7.:.X.X.X.X.X.X.@.X.X.X.",
"  7.e.7.e.7.e.7.e.7.7.5.5.2.5.5.5.5.5.5.5.5.5.5.5.5.5.5.2.5.5.5.5.5.5.5.5.5.5.5.5.5.5.5.5.5.2.5.5.5.5.5.%.X.X.X.X.X.X.X.X.X.  "
};
