/* XPM */
static char *TombStone1638187083[] = {
/* columns rows colors chars-per-pixel */
"63 64 81 1 ",
"  c None",
". c #555555",
"X c #565656",
"o c #585858",
"O c gray35",
"+ c #5A5A5A",
"@ c #5D5D5D",
"# c gray37",
"$ c #606060",
"% c gray38",
"& c #626262",
"* c gray39",
"= c #646464",
"- c #656565",
"; c gray40",
": c #676767",
"> c #686868",
", c DimGray",
"< c #6A6A6A",
"1 c gray42",
"2 c #6C6C6C",
"3 c #6D6D6D",
"4 c gray43",
"5 c #6F6F6F",
"6 c gray44",
"7 c #717171",
"8 c #727272",
"9 c gray45",
"0 c #747474",
"q c gray46",
"w c #767676",
"e c #777777",
"r c gray47",
"t c #797979",
"y c gray48",
"u c #7B7B7B",
"i c #7C7C7C",
"p c gray49",
"a c #7E7E7E",
"s c gray50",
"d c #808080",
"f c #818181",
"g c gray51",
"h c #838383",
"j c #848484",
"k c gray52",
"l c #868686",
"z c gray53",
"x c #888888",
"c c #898989",
"v c gray54",
"b c #8B8B8B",
"n c gray55",
"m c #8D8D8D",
"M c #8E8E8E",
"N c gray56",
"B c #909090",
"V c gray57",
"C c #929292",
"Z c #939393",
"A c gray58",
"S c #959595",
"D c gray59",
"F c #979797",
"G c #989898",
"H c gray60",
"J c #9A9A9A",
"K c #9B9B9B",
"L c gray61",
"P c #9D9D9D",
"I c gray62",
"U c #9F9F9F",
"Y c #A0A0A0",
"T c gray63",
"R c #A2A2A2",
"E c gray64",
"W c #A4A4A4",
"Q c #A5A5A5",
"! c gray65",
"~ c gray66",
"^ c #A9A9A9",
/* pixels */
"                       WWW^^WWEDjt91:                          ",
"                    ^WWEEEIEIIIGIGZje1::*                      ",
"                  WWEEIIGIGGGIIIIIIGZh9:::*                    ",
"                WEEIGGGGGGGGGGGGGGGIGDNt1::::                  ",
"               WEGGGGGGGGGGGGGGGGGGGGIGZs21::*                 ",
"              EIIGGIGGGGGGGGGGGGGDDDGGGGDh21:::                ",
"             EIGGGGGGGDDGGGDGGGDGGDDDDDGGDh2:::*               ",
"            EGGDDGDGGGDDGDDDGDDDDDZDDDDDDDDh2*:*:              ",
"           IGGDDDDDDDZDDZDZDZDZDDDZZZZZDZDDZt1:::*             ",
"          EGDDDDZDDDDDZZZDZDZDZZDZZZZZZZZZZZce1::::            ",
"          GDDZZDZDZZZZZZZZZZZZZZZZZZNZNZZNZDZh2::**:           ",
"         GGDZDZZZDZZZZZZZZZZZZZZNNNZZZZZZZZZDce1::::           ",
"        GDZZZZZZZZZZZNcZZZZNZZNZZNZNZNNZNZZNZNh1:*:::          ",
"        GDNZZZNZNZZZNjhjNZNZZNZNZNNNZNZNNNNZNNj9::*::          ",
"        DZNZZNZNZZZNct9scZNNNZNNNNNNNNNNNNNNNNct1:::*          ",
"       GZZZNNNZNNNNZcsehcNNNNNNNNNNNNNcNNNNcNNch1:*:::         ",
"       DZNNNNNNNNNNNNcjcNNNNNNNNNNcNNNcNcNNNcNNh1::::*         ",
"       ZNNNcNNNNcNNNNcNNcNNcNcNccNNNccNNNNccNNch2:::*:         ",
"       ZNNNNNNNNNNNNcNNccNcNNcNNNcNcNcNccNcNcNNh9:*:::         ",
"       NNNcNcNcNNcNcNNcNNcNNcNcNNcccNccccccNccch9:::::         ",
"       NNcNNcNNcNccNccNcNcNccNcNcNcccccNccNcNccj9::::*:        ",
"       hcjjcNccNccNcNcccccccccccccccccccccccccjj9:*::::        ",
"       9etsjjcccccNcccccccccccccccccccjcccjccjjh9:::::*        ",
"       hccjjjjccccccccccccjccccjjccjjcccjcjccjcs21::*:*        ",
"       DZNcjjcccccjcccjjccjccjcccccjjhhjjcjjcjjh21::*@@        ",
"       Zccccjcjccccccjccjccjcjjccjjjhthjcjjccjjs9:@++.         ",
"       cjcjccjccjcjcccjjjcjcjcjjjcjjhtsjjjjhjjjs2:@+..         ",
"       cccjjcjjjcjcjjcjjjjjjcjjjjjjjhhhjjjhhjjjs9:***@         ",
"       jjjjjjjjjjjjjjjhhjjhhhjhhjhhhhhhhhhhhhhht2:****         ",
"       jcjhhjjhhjjhhjjhhjjhhhhhhhhhhhhshhhhhhhhs21*@++         ",
"       jjjhhjhhsshhhjhhhhhshhhhhhhhshshshshhshht2:**@          ",
"       hjhhhjhseethhhhhhhhhshsshshshshssssssssss2::::          ",
"       hhhhhhhstesshhshshhshhshshsssssssssssssse2:::**         ",
"       hhsshsshsssshshshsssssssssssssssssstsssst21::::         ",
"       hssssshssssssssssssssstssssssststsssstste1:*::*         ",
"       ssssssssssssssstsststsssststststststtstse1::::::        ",
"       ssssssststssttstststststttsststststtsstte2:*::::        ",
"       ssttttsststtsssststttsttssttsttttttttttte2::::*:        ",
"       ttsststtttttstttsttttstttttttttttttttttte2:::::*        ",
"       sttstttssssttstttttstttttttttttttttttttee21:*:*:        ",
"       tetsstttttttttttttttttttttteeeeeeeeeteee91::*:*:        ",
"       tttsttttttttttttteeeeeteette99eeeeeeeeee91::::::        ",
"       jjhtetetetteteeeeeeeeeeeeeeeeeeeeeeeeeee91::::*:        ",
"       jhsteeeeeeeeee9eeee9eeeeee9ee9e9999e9e9991:*::::        ",
"       seeee9eee9eeeee9ee9eee99e9ee999999ee999991:::::*        ",
"       eeee9ee99ee99e9999e999e9999999999999999e21::**::        ",
"       ee99e9eee9eeee99e999e99e99e999999999999991::::::        ",
"       e9e999999999999999999999999999999992999921::**::        ",
"       hhssssssssssssssssssssssssssstssssssssssteee92::        ",
"  GIIGGDZZZZZZZZZZZZZZZZZZZZZZZZZZZZZZZZZZZZZZZZNZNNt::::::*   ",
" ZZZZNZNNNNZNZNNZNNNNZNNNZNNZNNNNNZNNNZNNNZNNNNNNNNct1*::::::* ",
" jjhjhhhhjjjhjjhjjjjjjjjjjjjjjjjjjjjjjjjhhjjjjjjjjhh9:::*:*::::",
"hshssst9etssssshsshssssshssshssshshssshsssshhssshsht9:*:*:*:::*",
"ssssht9119thhsssshssshshssshssshsssssssshsssssshhsss9::::::::*:",
"ssssse1::1esshshsssshssshshshshshsssssshshshhsssshst9:::::*:*:*",
"shshse2::1esssssshshssshsssssssssse9esssssssssshssss9::*:*:::::",
"ssssste229thshsssshshssshsssshshst212thsssssssttssss9::*::*:::*",
"sshshssttsshsshsshssssshssshssssht111tsshshssstessht2::::*:::*:",
"ssshsshshshssssssssshshsssssshsssse99shsssshsstsshss9:::::::*:*",
"shsshssssssshshsshshsssssssssshssstttssshsssshhsssss9:*::*:*:::",
"ssshhsssssssshsssshssssshshsssssshshhhssssssssssssss9::::*:*::*",
"ssssssshshsssshsshssshshsssshshssssssshshshshshhhsss9:*::::::*:",
"ssshhssshsssssssssssssssssssssssssssssssssssssssssst9:*::*::::*",
"sssssssssssttttetttttttttttttttttttttttetttttettttte2:::*:*:*: "
};
