/* XPM */
static char *gr_attack11638259380[] = {
/* columns rows colors chars-per-pixel */
"49 49 178 2 ",
"   c None",
".  c #020202",
"X  c #0B0202",
"o  c #0D0C0C",
"O  c #190D0D",
"+  c #160707",
"@  c #131313",
"#  c #1C1314",
"$  c #1C1B1B",
"%  c #260407",
"&  c #2A0407",
"*  c #2D0609",
"=  c #210D0E",
"-  c #33060A",
";  c #30150E",
":  c #251314",
">  c #2A1614",
",  c #281917",
"<  c #2F1718",
"1  c #241D1C",
"2  c #2B1C1D",
"3  c #3D1519",
"4  c #331D19",
"5  c #3A1A19",
"6  c #2E211F",
"7  c #34221F",
"8  c #3D211B",
"9  c #2A2521",
"0  c #3F2621",
"q  c #342F30",
"w  c #40090F",
"e  c #401211",
"r  c #441B1E",
"t  c #491E1F",
"y  c #481318",
"u  c #52171D",
"i  c #5B111A",
"p  c #58181F",
"a  c #65141E",
"s  c #68151F",
"d  c #44231E",
"f  c #4E1F20",
"g  c #571C27",
"h  c #5A1C27",
"j  c #5C1D28",
"k  c #6D1621",
"l  c #651C23",
"z  c #6B1B24",
"x  c #641C28",
"c  c #6B1D28",
"v  c #771C27",
"b  c #7A1A25",
"n  c #741D29",
"m  c #7C1D2A",
"M  c #711722",
"N  c #4C2922",
"B  c #4B2724",
"V  c #572B20",
"C  c #592F24",
"Z  c #5C232A",
"A  c #572826",
"S  c #5D3126",
"D  c #5D2B33",
"F  c #5D3036",
"G  c #612D27",
"H  c #6B242A",
"J  c #6D2C2C",
"K  c #662428",
"L  c #75242A",
"P  c #79232A",
"I  c #75292C",
"U  c #7D2B2C",
"Y  c #6C3227",
"T  c #65362A",
"R  c #6D322D",
"E  c #6E3A2D",
"W  c #75332E",
"Q  c #753D2E",
"!  c #783D2E",
"~  c #7A362F",
"^  c #6A2E35",
"/  c #612E35",
"(  c #663B34",
")  c #7C3D31",
"_  c #783B33",
"`  c #6C4138",
"'  c #7D4131",
"]  c #633D42",
"[  c #695544",
"{  c #765F62",
"}  c #6D6061",
"|  c #7C686B",
" . c #841E2A",
".. c #891E2B",
"X. c #801B27",
"o. c #83232B",
"O. c #89232C",
"+. c #872D2E",
"@. c #86332F",
"#. c #842E32",
"$. c #8A2D32",
"%. c #992A34",
"&. c #8B3232",
"*. c #853D32",
"=. c #893B33",
"-. c #8D3C3A",
";. c #96383A",
":. c #A22D37",
">. c #A5383D",
",. c #844134",
"<. c #8C463A",
"1. c #9C473C",
"2. c #A3403C",
"3. c #AD3C41",
"4. c #B23D43",
"5. c #8C5444",
"6. c #825446",
"7. c #90584D",
"8. c #9D5D4D",
"9. c #925C54",
"0. c #915F58",
"q. c #92555B",
"w. c #BE4C48",
"e. c #876F58",
"r. c #8B6C55",
"t. c #9F6853",
"y. c #A86756",
"u. c #AA765C",
"i. c #886C6B",
"p. c #936A65",
"a. c #976C6D",
"s. c #97706E",
"d. c #847476",
"f. c #857778",
"g. c #987171",
"h. c #B37962",
"j. c #CE464D",
"k. c #C5494A",
"l. c #DA4C53",
"z. c #E65057",
"x. c #A78669",
"c. c #B79676",
"v. c #A48E92",
"b. c #A8979D",
"n. c #A59A99",
"m. c #ABA9A9",
"M. c #A6A4A4",
"N. c #B0A4AC",
"B. c #B3A7A6",
"V. c #B1A5B1",
"C. c #B4B4B4",
"Z. c #B6B1BC",
"A. c #D5AB86",
"S. c #D2A180",
"D. c #D9B28C",
"F. c #E7B992",
"G. c #C1ACA9",
"H. c #EEC39A",
"J. c #BBB9C5",
"K. c #C7CFDD",
"L. c #C8CFDC",
"P. c #C9D1DE",
"I. c #D0D2DB",
"U. c #CDD4E1",
"Y. c #D0D6E2",
"T. c #D4DAE5",
"R. c #D8DDE7",
"E. c #DADFE8",
"W. c #DDE2EA",
"Q. c #E3E5EA",
"!. c #F1EDED",
"~. c #E9ECF1",
"^. c #E7EAF0",
"/. c #EFF1F5",
"(. c #F1F2F6",
"). c #F4F6F8",
"_. c #F7F8FA",
"`. c #FCFDFD",
/* pixels */
"                                                                                                  ",
"                                                                                                  ",
"                                                                                                  ",
"                                                                                                  ",
"                                                                      G.!.                        ",
"                                                                    9.G.!.`.                      ",
"                                                                    7.B.Q._.`.                    ",
"                                    g g h x c n  .........        5.a.B.I.~.`.`.                  ",
"                                g g h j x v  . .............      0.b.J.K.T.~.`.                  ",
"                              h h h c m m  .o... . . . . .....&.<.p.N.K.P.U.^.`.                  ",
"                            g g h c m  ... .b s k s s s s X...&.9.v.J.K.K.U.^.`.                  ",
"                          g g j c m .... .b i - & & & & w a o.=.a.V.K.K.K.U.W.).`.                ",
"                        g g g x m  .....b i * X . . . . + e Y <.g.J.K.K.K.P.U.^.`.                ",
"                        g g h c  .....b i * X . . . . . X ; Y *.a.Z.K.K.K.K.P.W._.                ",
"                      g g h x n  ...b i * X . + O = O o > V ! *.q.V.K.K.K.K.P.W._.`.              ",
"                      g g h n  ... .s - + . O g #.$.K > 8 ' 2.2.;.    K.K.K.P.R.(.`.              ",
"                    g g g g n  ... .a % . o , $.j.l.3.f B *.w.k.%.      P.L.K.U.W.).              ",
"                    g g g j n  ... .s % X o , &.l.z.3.G R <.k.j.:.        L.K.K.T.(.              ",
"                  j g g g j n  ... .s & o o : H 3.3.#.S ! ! ;.>.%.        P.K.K.T.(.              ",
"                  g g g g g c m .. .M y : @ @ < f f A T ! C d l  .        K.K.K.T.).`.            ",
"                h g g g g g x c  ...X.k 3 @ @ @ @ , S ' Q d 5 a m           K.K.T.~.`.`.          ",
"                g g g g g g g c m ....b r # @ @ # 4 T Q C 8 p v  .          P.K.U.W./.`.          ",
"                  g g g g g g j v m ..m l e # # 4 C Q Q d r z o.            K.K.K.U.~.`.          ",
"                    g g g g g h x n X...X.l g u V Q ,.W f g c                 P.K.U.^.`.          ",
"                        g g g g g x n  . .m v P o.*.=.L h g                     K.U.^.`.          ",
"                            g g g h x n  .m c I *.,.~ K h                       K.U.^.`.          ",
"                              g g h c n  .n c J ,.) R Z                         K.U.~.`.          ",
"                                h x m  ... .U _ ' R j                             U.~.`.          ",
"                                x n m .. .o.@.,.) J j g                           U.~.`.          ",
"                              g h x n  . .I ) ) W L c x                           T.~.`.          ",
"                            g g h j c n L W ' _ J m  .m  .                        Y.~.`.          ",
"                          h g j c c c c I *.' R K m  .....                        T.~.`.          ",
"                        g g j c X. .o.-.8.y.' S K m ......                          `.`.          ",
"                      j g j c m ....O.y.S.A.x.( L o.......                          `.`.          ",
"                      g g j n  .....$.h.F.H.c.` m ........                          `.`.          ",
"                    g g g x m ......&.h.F.H.c.` m ........                          `.`.          ",
"                  g g j c m  .....O.=.u.A.D.x.(  .........                                        ",
"                g g g x m  .......O.=.5.r.e.[ C m ...... .c                                       ",
"              g g g g c  .......O.&.,._ N 9 6 g P .... .n j                                       ",
"              g g g g c m ......+.=.,.T 9 1 r z  .....m x g                                       ",
"              g g g j x m  . .O.$.,.E B $ 2 h m m  .m n j g                                       ",
"                  g g j x x n #.*.,.T 2 $ 2 x n c x c x g h                                       ",
"                    g g j D ^ _ *.E N 1 $ 2 A ^ / F D g g g                                       ",
"                      g ] | d.i.6.E 9 $ $ q } d.f.d.{ F h                                         ",
"                          m.m.n.p.          M.m.m.m.                                              ",
"                          C.C.m.              C.C.                                                ",
"                                                                                                  ",
"                                                                                                  ",
"                                                                                                  "
};
