/* XPM */
static char *gr_attack101638259382[] = {
/* columns rows colors chars-per-pixel */
"50 62 163 2 ",
"   c None",
".  c #030202",
"X  c #0D0203",
"o  c #0B0B0B",
"O  c #120102",
"+  c #1B0204",
"@  c #140E0E",
"#  c #1C090B",
"$  c #131313",
"%  c #1C1414",
"&  c #1C1B1B",
"*  c #36060C",
"=  c #3A070D",
"-  c #2C0F10",
";  c #241415",
":  c #2B1617",
">  c #211B1B",
",  c #2B1B1C",
"<  c #351516",
"1  c #3F1013",
"2  c #321719",
"3  c #3C1618",
"4  c #341B1C",
"5  c #3C1A1C",
"6  c #3D1E21",
"7  c #2D2020",
"8  c #2F2E2E",
"9  c #393939",
"0  c #450A11",
"q  c #4C0C14",
"w  c #510E16",
"e  c #431B1E",
"r  c #4B191D",
"t  c #451419",
"y  c #50151A",
"u  c #5C181F",
"i  c #61121C",
"p  c #4A1C22",
"a  c #571C27",
"s  c #5A1C27",
"d  c #5C1D28",
"f  c #6B1620",
"g  c #641B23",
"h  c #6C1D25",
"j  c #631D28",
"k  c #6C1D28",
"l  c #741B25",
"z  c #7D1B27",
"x  c #741D29",
"c  c #7B1D29",
"v  c #5C222A",
"b  c #552528",
"n  c #493E3F",
"m  c #5E3239",
"M  c #64262E",
"N  c #6B2429",
"B  c #652A2B",
"V  c #6B2D2C",
"C  c #74222A",
"Z  c #772A2C",
"A  c #7B2B2E",
"S  c #7C242B",
"D  c #65302F",
"F  c #6B322D",
"G  c #73332E",
"H  c #79372F",
"J  c #75382F",
"K  c #6D2E36",
"L  c #722930",
"P  c #753A32",
"I  c #7C3D32",
"U  c #763633",
"Y  c #7C463C",
"T  c #7C4136",
"R  c #554F4F",
"E  c #68474C",
"W  c #6C4B4D",
"Q  c #735A5D",
"!  c #6A6868",
"~  c #7E6A6C",
"^  c #776365",
"/  c #7E7273",
"(  c #841E2A",
")  c #891E2B",
"_  c #8A222D",
"`  c #89292E",
"'  c #81282D",
"]  c #91232F",
"[  c #83312F",
"{  c #882F34",
"}  c #952A33",
"|  c #823E32",
" . c #8B3B33",
".. c #8C3135",
"X. c #973439",
"o. c #9B353A",
"O. c #A1383D",
"+. c #A8373D",
"@. c #834234",
"#. c #894736",
"$. c #8A4836",
"%. c #8B4B3B",
"&. c #AB3B40",
"*. c #B43740",
"=. c #B63B43",
"-. c #994D43",
";. c #8F594F",
":. c #995348",
">. c #905D55",
",. c #915F58",
"<. c #B84046",
"1. c #94635B",
"2. c #9E6152",
"3. c #9C705B",
"4. c #A96957",
"5. c #AD705C",
"6. c #B0745E",
"7. c #946966",
"8. c #9C7E7F",
"9. c #CC474D",
"0. c #D1484F",
"q. c #DC4C53",
"w. c #E14E55",
"e. c #E65057",
"r. c #AF8267",
"t. c #B78368",
"y. c #B88269",
"u. c #BC8F72",
"i. c #BD9173",
"p. c #9D7F81",
"a. c #9E9999",
"s. c #A28A8D",
"d. c #A19E9E",
"f. c #A9989E",
"g. c #A5A1A2",
"h. c #B1A1A5",
"j. c #B3ABB4",
"k. c #B6B2BC",
"l. c #DBAB87",
"z. c #D3A583",
"x. c #DFB08B",
"c. c #E9BD95",
"v. c #C2B1B1",
"b. c #EEC299",
"n. c #C2C6D3",
"m. c #C7CFDD",
"M. c #C8CFDD",
"N. c #C9D1DE",
"B. c #CDD4E0",
"V. c #D4DAE4",
"C. c #D8DEE7",
"Z. c #DADFE8",
"A. c #DDE2EA",
"S. c #E3E7EE",
"D. c #E6E9EF",
"F. c #E9E9EB",
"G. c #E7EAF0",
"H. c #EBEEF3",
"J. c #EEF0F4",
"K. c #F1F3F6",
"L. c #F6F7F9",
"P. c #F7F8FA",
"I. c #FBFCFC",
/* pixels */
"                                                                                                    ",
"                                                                                                    ",
"                                                                                                    ",
"                                                                                                    ",
"                                                                                                    ",
"                                                                                                    ",
"                                                                                                    ",
"                                                                                                    ",
"                                                                                                    ",
"                                                                                                    ",
"                                                                                                    ",
"                                                                                                    ",
"                                  a a s d j c ( ) ) )                                               ",
"                                s s s j x l ( ( ) ) ) )                                             ",
"                            a a d j k x ( ( ) ) ) ) ) ) )                                           ",
"                          a a d j c ( ( ( ( z z z ( z ( ) )                                         ",
"                        a a d j c ( ) ) z i w w w q w i ( )                                         ",
"                      a a d j c ( ) ) z i * O O O O + 0 i ) )                                       ",
"                      a a d x ( ) ) z i * X . . . . . + 0 i ( )                                     ",
"                    a a s j x ) ) z i * O . . . . . . . + q l (                                     ",
"                    a a d x ( ) ( i = O . @ < t 3 ; @ - 0 y l )                                     ",
"                  a a a d c ) ) z q O . o e ..&.o.s : Z +.+.} )                                     ",
"                  a a a j c ) ) z q X . $ b =.e.0.A t O.w.e.+.}                                     ",
"                a d a a j c ) ) z q X o $ r =.w.9.Z 3 +.q.e.+.]                                     ",
"                a a a a j c ) ) z w # @ $ 4 A o...u , N X.o.} _                         >.1.1.      ",
"              a a a a a d k ( ) ( i t % $ % : 2 : % $ : 4 r l (                       s.f.h.v.      ",
"              a d a a a d d x ( _ z u ; $ $ $ $ $ $ $ $ : y l (                   >.8.j.n.N.F.      ",
"              d a a a a a d x ( ) ( g < % $ $ $ $ $ $ % t l (             $.%.1.7.8.j.n.M.V.K.      ",
"              a s a a a a a j c ( ( z u < ; ; ; ; ; ; 2 s ( _     $.$.$.$.$.>.f.j.k.n.M.m.V.K.      ",
"                  s a s a a a j c ( _ z g u u u u u r r s S  .  $.$.$.$.$.    n.n.M.m.M.m.V.K.      ",
"                      a a a a d j x c ( z x z x c C N B V H #.#.$.$.$.        m.m.m.M.m.B.A.L.      ",
"                          a a a d k c c x j j N N N H T @.#.$.$.              m.m.m.m.M.C.J.        ",
"                            a d d x ( c x M v B J H @.$.                      m.m.m.m.B.A.P.        ",
"                            d v C S _ ` [ Z G J @.T @.                        m.m.m.N.V.G.P.        ",
"                            v W 2.4.:. .@.| I @.| V                         m.m.m.N.B.S.P.          ",
"                          v D 4.z.l.t.%.@.F V Z A N                         m.m.m.m.B.G.I.          ",
"                        B G T r.c.b.i.Y F b a N ( c c                       m.m.m.m.B.G.I.          ",
"                      I P @.$.y.c.b.u.P p 4 p g ( ) ) )                     m.m.m.B.A.H.            ",
"                    #.@.T  . .6.l.x.t.U 5 , a x ( ) ) )                     M.m.B.V.H.              ",
"                #.#.#.@.G ' { -.4.5.:.Z 4 4 g ( ) ) ) )                   N.M.N.C.H.                ",
"                  P G V N S ) _ ` ` C u , 4 k ) ) ) ) )                   m.m.N.A.L.                ",
"                  v v j x c ) ) ) ( j 4 & 4 g _ ) _ ) )                   m.N.V.G.I.                ",
"                a a j k ( ) ) ) ( z s , & 4 N ( _ ) ) (                   N.V.G.P.I.                ",
"              a a a k c ( ) ) ) ( g 5 & & 4 g ( ) ) ) c j               N.V.G.I.I.                  ",
"            a a s s x ( ) ) ) ) c r > & & 4 k ) ) ) x k d               V.S.L.I.                    ",
"          a s a a s x ( ) ) ( ( h e > & , a x ) ) ) x s d             N.C.L.I.                      ",
"          a a a a s k ( ( ( ( x p , & & e h ( c ( c k a a           N.B.S.L.                        ",
"                a s j j x S K b 7 & & & p l x k k k d a a         m.B.A.J.                          ",
"                  a a v M K W R 8 & & & 6 M M v a a a a           B.A.H.                            ",
"                    v E ^ ~ / ! 9 & & & n ^ ~ Q m a a             A.H.                              ",
"                        g.g.d.            d.g.a.                A.J.                                ",
"                                                                K.                                  ",
"                                                                                                    ",
"                                                                                                    ",
"                                                                                                    ",
"                                                                                                    ",
"                                                                                                    ",
"                                                                                                    ",
"                                                                                                    ",
"                                                                                                    ",
"                                                                                                    ",
"                                                                                                    "
};
