/* XPM */
static char *gr_attack21638259381[] = {
/* columns rows colors chars-per-pixel */
"54 52 188 2 ",
"   c None",
".  c #060505",
"X  c #0B0B0B",
"o  c #1B0204",
"O  c #100D0D",
"+  c #131313",
"@  c #1E1314",
"#  c #1B1B1B",
"$  c #220608",
"%  c #241414",
"&  c #2B1617",
"*  c #291C1C",
"=  c #271A1A",
"-  c #3C1519",
";  c #35191B",
":  c #3B1A1C",
">  c #311416",
",  c #34221F",
"<  c #301E20",
"1  c #202020",
"2  c #302426",
"3  c #3D3739",
"4  c #480C13",
"5  c #431A1D",
"6  c #46161B",
"7  c #591019",
"8  c #5B181F",
"9  c #51181E",
"0  c #4D1D20",
"q  c #571C27",
"w  c #5A1C27",
"e  c #5D1D28",
"r  c #6E1621",
"t  c #651B23",
"y  c #6E1C25",
"u  c #651C28",
"i  c #6D1D29",
"p  c #731D29",
"a  c #7C1D29",
"s  c #7B1C27",
"d  c #492725",
"f  c #5C2229",
"g  c #562C2B",
"h  c #44383B",
"j  c #573538",
"k  c #622429",
"l  c #6D2429",
"z  c #652A2B",
"x  c #6A2E2C",
"c  c #74222A",
"v  c #722A2C",
"b  c #7D2C2D",
"n  c #7A222B",
"m  c #6D342D",
"M  c #73342E",
"N  c #743A2F",
"B  c #7B332F",
"V  c #602D34",
"C  c #722C33",
"Z  c #693638",
"A  c #733934",
"S  c #7D3D32",
"D  c #773539",
"F  c #5E483A",
"G  c #7F463B",
"H  c #7F4033",
"J  c #6A3B41",
"K  c #56585B",
"L  c #774340",
"P  c #685759",
"I  c #705254",
"U  c #77524E",
"Y  c #6A6067",
"T  c #686B72",
"R  c #756869",
"E  c #841E2A",
"W  c #891E2B",
"Q  c #84232B",
"!  c #88232C",
"~  c #892A2D",
"^  c #862D2D",
"/  c #82322F",
"(  c #88322F",
")  c #8C2631",
"_  c #8C2D36",
"`  c #8B3432",
"'  c #833E32",
"]  c #893B32",
"[  c #853436",
"{  c #9B353A",
"}  c #9E383D",
"|  c #A3383D",
" . c #844133",
".. c #884134",
"X. c #884A3C",
"o. c #95443E",
"O. c #8A4F43",
"+. c #955345",
"@. c #9B5147",
"#. c #8F4952",
"$. c #8B5059",
"%. c #965357",
"&. c #94535A",
"*. c #955957",
"=. c #855945",
"-. c #A3424C",
";. c #946C58",
":. c #A86B58",
">. c #995C60",
",. c #886466",
"<. c #946864",
"1. c #97716F",
"2. c #877879",
"3. c #947C79",
"4. c #B0757E",
"5. c #CB464D",
"6. c #DD4D54",
"7. c #E54F57",
"8. c #E95F67",
"9. c #D6636C",
"0. c #AF886B",
"q. c #B68368",
"w. c #B08F71",
"e. c #C49B7B",
"r. c #CAA07D",
"t. c #D2A07F",
"y. c #737880",
"u. c #8D8889",
"i. c #92828A",
"p. c #858A93",
"a. c #948D97",
"s. c #92929C",
"d. c #A78783",
"f. c #A48F93",
"g. c #A59297",
"h. c #B69698",
"j. c #B9A19D",
"k. c #9196A1",
"l. c #A99AA4",
"z. c #9EA5B0",
"x. c #ACAAAA",
"c. c #A5A3A8",
"v. c #BFA5A8",
"b. c #AAA7B3",
"n. c #B1A5B1",
"m. c #B3ACB5",
"M. c #B4B4B4",
"N. c #B4B3BE",
"B. c #C38791",
"V. c #D6A784",
"C. c #DAB08B",
"Z. c #E1B38E",
"A. c #E7BC94",
"S. c #CCA6B1",
"D. c #C7B0B2",
"F. c #EEC299",
"G. c #F2C69C",
"H. c #ADB4C1",
"J. c #B2B9C6",
"K. c #BBBAC5",
"L. c #B7BECB",
"P. c #C3B7C0",
"I. c #BBC1CE",
"U. c #BEC5D2",
"Y. c #D3C8CA",
"T. c #C6CEDC",
"R. c #C8CFDD",
"E. c #C2C8D5",
"W. c #CAD1DE",
"Q. c #DCD2D3",
"!. c #E0D6D6",
"~. c #CED5E1",
"^. c #D1D7E2",
"/. c #D6DBE5",
"(. c #DCDCE3",
"). c #DADFE8",
"_. c #E2DEE1",
"`. c #DDE2EA",
"'. c #DEE0E7",
"]. c #E2E6ED",
"[. c #E7E5E8",
"{. c #EBEDF2",
"}. c #E7EAF0",
"|. c #F0EEF0",
" X c #EFF0F4",
".X c #F3F3F6",
"XX c #FCFCFD",
"oX c #F5F7F9",
/* pixels */
"                                                                                                            ",
"                                                                                                            ",
"                                                                                                            ",
"                                                                                                            ",
"                                                                                                            ",
"                            j._.XXXXXXXXXX                                                                  ",
"                            d.Y.[.{.{..XXXXX                                                                ",
"                            *.d.K.W.W./.}..X.XoXXXXX                                                        ",
"                              1.m.E.R.R.^././.). XoXXXXXXXXX                                                ",
"                                f.J.E.R.R.R.W.W.).`.`.]. XXXXXoXD.*.                                        ",
"                                <.l.E.R.R.R.R.R.W.W.~.~.`..XXXXX!.h.%.)                                     ",
"                                *.g.K.T.R.R.R.R.R.R.T.R.~.`. XoX.X!.h.&._                                   ",
"                                O.<.g.K.U.U.U.R.T.T.T.T.R.W./.'.}.{.Q.h.&._                                 ",
"                                  X.<.i.a.a.z.L.E.T.T.T.T.R.W.W./.'.'.Y.h.*.                                ",
"                                    X.L J J ,.l.n.n.n.b.L.T.T.T.R.W.~.(.Q.v.                                ",
"                                     .S C i [ #.$.$.I Y k.H.J.J.U.T.~.~.(.Q.S.                              ",
"                                  z N S M c W W E r 4 2 K T T y.c.I.U.U.W./._.                              ",
"                                  w x S S / Q E r 4 o . O * < h T p.p.s.N.W.`. X                            ",
"                                q q z N  .] ! s 7 $ . . % l | | D h j %.B.S.D.(..X                          ",
"                                q q w z S ( ! E 7 o . X > { 6.6.| 5 v 5.8.9.4.P.].XX                        ",
"                              q q q q f S ] ^ E 7 o . + - { 6.6.| 5 l 5.7.5.-.                              ",
"                              q q q q k S ..( Q 8 $ X + % l { { v ; d _ | { )                               ",
"                            q q q q q f m ' ' ^ r 6 % + + % ; : & + @ > 6 t a                               ",
"                            q q q q q q f A ..( Q t > + + + + + + + + @ - 8 E                               ",
"                            q q q q q q f m  .] ~ y 6 @ O + + + + + + & w s W                               ",
"                            w q q q q q w z A ' ( Q t - % % % % % % % 0 r E                                 ",
"                                q q q q q w m S ( Q E t 8 8 8 8 8 9 0 q y                                   ",
"                                    q q q q z ' ( ~ E s p s p s p u q q                                     ",
"                                        q q z H ..` Q p i u i u u u w                                       ",
"                                          w f M S ] ^ a u w w q w                                           ",
"                                            u l ' ] ( Q i u u u w                                           ",
"                                          q u v ( ..] b i u y i e w                                         ",
"                                        q q e u C ] ' v u e i p p u                                         ",
"                                      q q w e e i B  .G F g k s a a E                                       ",
"                                    q q w u i i p b +.q.0.;.A s W W W                                       ",
"                                  q q q u p E E E ^ :.C.A.e.O.W W W W                                       ",
"                                q q q e p E W W W ! :.C.G.t.@.! W W W                                       ",
"                                q q w u a W W W Q n ;.C.G.t.@.W W W W                                       ",
"                                q q e i a W W W W l U w.r.q.o.! W W W                                       ",
"                              q q u i E W W W W a t d F =.X.] ) W W W                                       ",
"                            q q w i E E W W W E l , = , m ..] ~ W W a i                                     ",
"                          q q q w p E W W W E E 8 = # * d N ' ^ ! a p e                                     ",
"                        q w q q w p E ! W W E i 6 = # * d M ..] ^ a u w                                     ",
"                        q q q q e i a a E E i 0 * # # ; t / S ../ p e w                                     ",
"                              q q e u i v C j 2 # # # , u n M H B k q q                                     ",
"                                q q f V Z P P 3 # # # , f Z Z X.A f q q                                     ",
"                                  f I 2.2.i.u.K 1 # # h R 2.2.3.,.V                                         ",
"                                      x.x.x.x.          x.x.x.x.                                            ",
"                                      M.M.M.            M.M.M.                                              ",
"                                                                                                            ",
"                                                                                                            ",
"                                                                                                            "
};
