/* XPM */
static char *gr_attack31638259381[] = {
/* columns rows colors chars-per-pixel */
"66 57 182 2 ",
"   c None",
".  c #040202",
"X  c #090505",
"o  c #0D0C0C",
"O  c #1B0204",
"+  c #160203",
"@  c #1D0F10",
"#  c #141313",
"$  c #1A1313",
"%  c #1C1B1B",
"&  c #2D0509",
"*  c #220305",
"=  c #231415",
"-  c #231D1D",
";  c #2B1B1C",
":  c #2A1415",
">  c #391517",
",  c #361619",
"<  c #3D1518",
"1  c #331A1B",
"2  c #351517",
"3  c #32211F",
"4  c #291F20",
"5  c #272626",
"6  c #3D3D3D",
"7  c #40090F",
"8  c #420A11",
"9  c #4C0C14",
"0  c #560F18",
"q  c #441C1E",
"w  c #49181C",
"e  c #55191E",
"r  c #5C181F",
"t  c #6A151F",
"y  c #4E1C21",
"u  c #431F20",
"i  c #571C27",
"p  c #5A1C27",
"a  c #5D1D28",
"s  c #6E1621",
"d  c #641C24",
"f  c #6D1C25",
"g  c #631C28",
"h  c #6C1D29",
"j  c #661720",
"k  c #701722",
"l  c #741B25",
"z  c #7B1B26",
"x  c #731D29",
"c  c #7C1D29",
"v  c #552223",
"b  c #5B2224",
"n  c #5C2129",
"m  c #5A2F2B",
"M  c #592F35",
"N  c #423D3D",
"B  c #5E323A",
"V  c #622326",
"C  c #6B2529",
"Z  c #6B2B2C",
"A  c #63262A",
"S  c #74212C",
"D  c #7C232B",
"F  c #73292C",
"G  c #7F2C2C",
"H  c #733A2F",
"J  c #74372F",
"K  c #662B34",
"L  c #613530",
"P  c #7C3C33",
"I  c #7E3233",
"U  c #68392D",
"Y  c #794033",
"T  c #5D3D41",
"R  c #653F43",
"E  c #6F3C40",
"W  c #514949",
"Q  c gray37",
"!  c #464646",
"~  c #6D4D51",
"^  c #675E5F",
"/  c #715458",
"(  c #636262",
")  c #686262",
"_  c #76626B",
"`  c #717171",
"'  c #841E2A",
"]  c #891E2B",
"[  c #83222D",
"{  c #89232D",
"}  c #892E2E",
"|  c #842D2E",
" . c #852F32",
".. c #8B2D31",
"X. c #872631",
"o. c #9A2A34",
"O. c #8A3C32",
"+. c #853831",
"@. c #963A3B",
"#. c #A52E39",
"$. c #A5383E",
"%. c #824334",
"&. c #894435",
"*. c #8A4836",
"=. c #8A473D",
"-. c #93423D",
";. c #B33E44",
":. c #B93E44",
">. c #C03F47",
",. c #864E41",
"<. c #904349",
"1. c #8D5245",
"2. c #8E5A47",
"3. c #915D49",
"4. c #824A53",
"5. c #8B5B58",
"6. c #BF4248",
"7. c #9B6252",
"8. c #A06051",
"9. c #AB795F",
"0. c #9B6B69",
"q. c #9B726C",
"w. c #82757E",
"e. c #997676",
"r. c #AA7C63",
"t. c #B37862",
"y. c #A37073",
"u. c #C6444A",
"i. c #CB464D",
"p. c #CF484E",
"a. c #D94A52",
"s. c #EB525A",
"d. c #A88067",
"f. c #C28E72",
"g. c #C59577",
"h. c #CB9B7B",
"j. c #8A7781",
"k. c #A97F81",
"l. c #828282",
"z. c #8E858F",
"x. c #9E8183",
"c. c #8F8691",
"v. c #A28588",
"b. c #A79699",
"n. c #9E9CA7",
"m. c #A1A1A1",
"M. c #AEA3AA",
"N. c #B2A9B2",
"B. c #AEB0BD",
"V. c #B3B3B3",
"C. c #BAB3B6",
"Z. c #DCB08B",
"A. c #E5B992",
"S. c #C5BBBD",
"D. c #CAB9BA",
"F. c #EDC198",
"G. c #F0C49A",
"H. c #BBBECA",
"J. c #B9B7C1",
"K. c #C0BFC8",
"L. c #BEC2CF",
"P. c #D3C5C3",
"I. c #C2C6D3",
"U. c #C7CFDD",
"Y. c #CACFDB",
"T. c #CACED7",
"R. c #CAD1DE",
"E. c #DBD4D5",
"W. c #CED5E1",
"Q. c #D1D7E2",
"!. c #D4DAE4",
"~. c #D9DDE6",
"^. c #DDE2EA",
"/. c #EBEBEE",
"(. c #E5E7EB",
"). c #E7EAF0",
"_. c #EBEEF2",
"`. c #EEF1F4",
"'. c #F1F3F6",
"]. c #F7F8FA",
"[. c #FCFCFD",
"{. c #F6F6F7",
/* pixels */
"                                                                                                                                    ",
"                                                                                                                                    ",
"                                                                                                                                    ",
"                                                                                                                                    ",
"                                                                                                                                    ",
"                                                                                                                                    ",
"                                                                                                                                    ",
"                                                                                                                                    ",
"                                                                        i i a g h ' ] ] ] ]                                         ",
"                                                                    / ~ R K h c c ] ] ] ] ] ]                                       ",
"                                                                (.S.C.C.b.5.[ ' ] ] ] ] ] ] ] ]                                     ",
"                                                [.].'.'.'.'.`.`./.E.E.E.D.y.[ ' l l z l z z ' ] ]                                   ",
"                                      [.].].].].'.^.~.!.Q.R.Y.Y.K.b.v.y.y.<.' t 9 7 & 8 7 0 k ' ]                                   ",
"                              [.[.].[.'.(.^.^.^.~.W.U.U.H.n.c.z.w.4.X.{ X.[ t 8 + . . . . * 9 k ' ]                                 ",
"                            [.]._.).).~.W.W.W.U.R.U.U.U.B._ T B K [ ] ] ' t 8 + . . . . . . O 9 k '                                 ",
"                    [.[.'.'.'.).!.W.W.W.U.U.U.U.U.U.U.H.j.M i a x [ ] ' s 8 + . X X X X X X . * 0 z                                 ",
"                  [.[.'.~.!.!.Q.R.U.U.U.R.U.U.U.        B i p h ' ] ] k 7 O . o > b V w = : e d l '                                 ",
"                {.{./.~.R.Y.U.U.U.U.U.U.U.U.            i i p h ' ] ' t & . o $ F :.u.@.q b $.u.:.o.                                ",
"                P.P.S.C.I.R.U.U.U.U.U.U.U.            i i i i h ' ] ] t & . o =  .a.s.6.e A u.s.a.#.                                ",
"                q.q.0.v.N.J.L.U.U.U.U.U.            i i i a a h ' ] ] t & X o = F 6.i.$.q b ;.p.>.o.                                ",
"                      5.q.e.M.L.I.I.U.              i a i i i h ' ] ' k > @ o # q C F v : 1 n F D [                                 ",
"                          1.q.v.b.N.              a i i i i i g h ' ' ' t > $ # # $ $ # # # $ : e c                                 ",
"                            1.1.,.1.              i i i i i i i g ' ] ] z w $ # # # # # # # $ w s '                                 ",
"                                *.*.*.*.          i i i i i i i g x ' ] c r 2 # # # # # # $ > j ' ]                                 ",
"                                    *.*.*.*.        p i i i i i p g z ] ' c r < > < > < , , y h '                                   ",
"                                          *.*.*.*.        i i i i p g x ] ' z f l s l f d i i g                                     ",
"                                            *.*.*.*.        p i i i p g x ' c x x x x l h a i                                       ",
"                                                *.*.*.*.        i i p g x ' c g a p p a p i                                         ",
"                                                    *.*.*.*.      n g h ' [ ' x g a a p                                             ",
"                                                          *.*.*.Y K I O.-.@...x g h g a p                                           ",
"                                                            *.*.&.,.9.f.h.f.7.Z a h x g a                                           ",
"                                                              J P 2.Z.F.G.A.d.m i a c c x                                           ",
"                                                            i n A ~ g.A.A.Z.9.L v b x ' ' ]                                         ",
"                                                        i i i p V } 8.t.t.9.3.Y H C D { ] ]                                         ",
"                                                  i i i i i i g z [ { } G H U H %.P +.} { [ S                                       ",
"                                              i i i i i i i p h ' ] ] ' V u 3 m H +.&.O.} | C                                       ",
"                                        i i i i i i i i i i g x ' ] ' l q - - 3 v G O.O.&.+.K a                                     ",
"                                          i a i i i i i p a h ' ] ] ' V 1 % % % e D }  ...X.C p                                     ",
"                                          i i i i i i a a x c ] ] ' f e ; % % - w D ] ] ] [ h p                                     ",
"                                            a i i i i g l ' ] ] [ l e ; % % % % i c ] ' ' c g p                                     ",
"                                              i i i i h ' ] ' ' l i ; % % % % 1 p c ] ] [ h a i                                     ",
"                                                i n i h [ ' g e q ; % % % % - e z [ ' ' S a i                                       ",
"                                                          c y 5 - 5 % % % % ; p [ D S S h a n                                       ",
"                                                            N 6 6 6 5 % % % - M H W B B n n                                         ",
"                                                            ( ( ( Q ! 5 % % 5 W ) ) Q Q                                             ",
"                                                            l.l.l.l.`         ` l.l.l.d.                                            ",
"                                                            m.m.m.m.            m.m.m.n.                                            ",
"                                                            V.V.V.V.            V.V.V.                                              ",
"                                                              V.V.              V.C.                                                ",
"                                                                                                                                    ",
"                                                                                                                                    ",
"                                                                                                                                    ",
"                                                                                                                                    ",
"                                                                                                                                    ",
"                                                                                                                                    ",
"                                                                                                                                    ",
"                                                                                                                                    "
};
