/* XPM */
static char *gr_attack41638259381[] = {
/* columns rows colors chars-per-pixel */
"58 50 181 2 ",
"   c None",
".  c #030202",
"X  c #0B0202",
"o  c #0C0B0B",
"O  c #120102",
"+  c #1C0E0E",
"@  c #1D0204",
"#  c #141313",
"$  c #1C1314",
"%  c #1C1B1B",
"&  c #200305",
"*  c #2F0509",
"=  c #31050A",
"-  c #231415",
";  c #2C1517",
":  c #221D1D",
">  c #2D1B1C",
",  c #321416",
"<  c #3C1619",
"1  c #371B1D",
"2  c #3B1A1D",
"3  c #311E20",
"4  c #262626",
"5  c #3C3C3C",
"6  c #313131",
"7  c #420A10",
"8  c #4B0C14",
"9  c #520E16",
"0  c #570F18",
"q  c #421519",
"w  c #431C1E",
"e  c #4A1C1D",
"r  c #481519",
"t  c #5B121A",
"y  c #57181E",
"u  c #4E1C21",
"i  c #571C27",
"p  c #5B1C27",
"a  c #5C1D28",
"s  c #571D28",
"d  c #6D1621",
"f  c #621B24",
"g  c #6A1B23",
"h  c #631C28",
"j  c #6C1D28",
"k  c #741D26",
"l  c #7B1B26",
"z  c #741D29",
"x  c #7C1D2A",
"c  c #701721",
"v  c #462421",
"b  c #48272A",
"n  c #5C222A",
"m  c #5E2225",
"M  c #433C3D",
"N  c #5D373B",
"B  c #662428",
"V  c #6D252B",
"C  c #652A2B",
"Z  c #692E2C",
"A  c #642427",
"S  c #74242A",
"D  c #7B222C",
"F  c #7B2D2E",
"G  c #74292C",
"H  c #6F332E",
"J  c #69362B",
"K  c #75332D",
"L  c #7F392F",
"P  c #692C34",
"I  c #6B3837",
"U  c #763930",
"Y  c #7D3E31",
"T  c #7C3239",
"R  c #7C473D",
"E  c #7D4132",
"W  c #5E3C40",
"Q  c #623941",
"!  c #693C40",
"~  c gray31",
"^  c #5F5F5F",
"/  c #67454E",
"(  c #7E4C42",
")  c #645C5D",
"_  c #6E545C",
"`  c #75595D",
"'  c #626161",
"]  c #686061",
"[  c #7A7A7A",
"{  c #851E2A",
"}  c #891E2B",
"|  c #86222C",
" . c #89232D",
".. c #842C2E",
"X. c #89292D",
"o. c #88332F",
"O. c #8A2F34",
"+. c #862931",
"@. c #9A2B34",
"#. c #893431",
"$. c #853B32",
"%. c #8A3D32",
"&. c #8B3D3A",
"*. c #9A353A",
"=. c #A9363D",
"-. c #B2363F",
";. c #844435",
":. c #894636",
">. c #8A4836",
",. c #83473C",
"<. c #8B4D3E",
"1. c #AF3C42",
"2. c #B13B42",
"3. c #8E4F43",
"4. c #964D44",
"5. c #8C5144",
"6. c #955E4A",
"7. c #915155",
"8. c #BC4147",
"9. c #8E6251",
"0. c #94645C",
"q. c #9A6A56",
"w. c #A2755D",
"e. c #956A66",
"r. c #97706E",
"t. c #8E7C7E",
"y. c #8A7578",
"u. c #9B797B",
"i. c #A27A63",
"p. c #B67D66",
"a. c #C8454C",
"s. c #D4484F",
"d. c #DB4C53",
"f. c #E04C54",
"g. c #E85158",
"h. c #B88C6F",
"j. c #C79A7B",
"k. c #D09E7E",
"l. c #8A7F89",
"z. c #818181",
"x. c #9E999C",
"c. c #A18789",
"v. c #A38C90",
"b. c #A79499",
"n. c #A999A0",
"m. c #A0A0A0",
"M. c #A8A9B5",
"N. c #B6AEB6",
"B. c #AFB1BE",
"V. c #B3B3B3",
"C. c #BAB4B9",
"Z. c #D5A986",
"A. c #DCB28C",
"S. c #E9BD95",
"D. c #C4B6B6",
"F. c #EEC198",
"G. c #F2C69C",
"H. c #BDBDC6",
"J. c #BEBFCB",
"K. c #D1C6C7",
"L. c #C3C9D7",
"P. c #C7CFDD",
"I. c #C5CBD8",
"U. c #CAD1DE",
"Y. c #DDD9DA",
"T. c #DCD7D7",
"R. c #CDD4E0",
"E. c #D1D7E3",
"W. c #D4DAE4",
"Q. c #DADEE6",
"!. c #E1DFE0",
"~. c #DDE1EA",
"^. c #E6E9EF",
"/. c #EBEBEE",
"(. c #E3E3E7",
"). c #EAEDF2",
"_. c #EFF1F5",
"`. c #F1F3F6",
"'. c #F6F7F9",
"]. c #F6F8FA",
"[. c #FBFCFD",
/* pixels */
"                                                                                                                    ",
"                                                                                                                    ",
"                                                                                                                    ",
"                                                                                                                    ",
"                                                                                                                    ",
"                                                                  ` ! a a h x } } } }                               ",
"                                                                (.V.y.P z z { } } } } }                             ",
"                                          [.].`._._.`.`.).!.Y.Y.T.K.c.T { } } { } } } } }                           ",
"                                [.].].].].'.^.W.W.W.W.U.J.b.t.t.u.u.7.| } { l { l { { { } }                         ",
"                            [.[.].^.~.~.~.Q.W.P.P.P.L.B.l./ n V x | } } l t 9 9 9 9 9 d } }                         ",
"                        ].).^./.^.E.R.P.P.P.U.P.P.L.M.l./ a j x } } { l 0 * O O O O @ 8 d { }                       ",
"                  `._._.).Q.R.U.R.P.P.P.P.P.P.P.P.  _ W n a z { } { l t * X . . . . . @ 8 d {                       ",
"                `.~.W.E.E.U.P.P.P.P.P.P.P.          s s s h x } } l 0 * X . . . . . . X & 8 l                       ",
"              /.Q.U.P.P.P.P.P.P.P.P.P.            s s s h z { } l 0 = X . + 2 q < + + , q t l                       ",
"              D.N.L.L.I.P.P.P.P.P.P.              s s s h x } } l 7 X . # e *.8.*.m 2 ..2.-.@.                      ",
"              0.r.b.N.H.I.P.P.P.P.                s p p h x } } l 7 . o # A a.g.a.V e 1.g.f.2.                      ",
"                4.0.r.v.C.H.L.P.                i s s i h { } } l = X o # m 8.d.8.B w =.d.s.=.                      ",
"                    <.0.l.c.b.                  i i i i h x } } l 7 - + # < G #.F w ; B O.O.X.                      ",
"                        <.<.<.<.              i i i i i a j x } { d q $ # # $ - - # # $ ; r k                       ",
"                            >.>.>.>.        i i s i p s p h z } { { y + # # # # # # # $ < y l                       ",
"                                >.>.>.>.    C s i s i i s a z { } x f < $ # # # # # # ; y z }                       ",
"                                    >.>.>.>.Y C n s i i i p h z { { l f < ; , , , ; ; < f {                         ",
"                                        >.>.>.;.U Z n s p i i h z { } l d g g g j f i u a                           ",
"                                            >.>.>.;.K Z a i i i h z { { z z z z z j f i                             ",
"                                                >.>.:.;.K C n s i j x x j h a f h a a                               ",
"                                                    >.>.:.E K I 5.4.4.&.D h a s s                                   ",
"                                                        >.;.,.w.j.k.k.h.&.h j j a s                                 ",
"                                                          Y R h.S.G.S.j.R h j z j a                                 ",
"                                                          n J i.Z.A.Z.h.R C C z x j                                 ",
"                                                        i s n ( 9.q.q.6.;.Y Z S | { }                               ",
"                                                    i i a a j x D D F K J ;.Y $.#.X. .|                             ",
"                                                i s i i a j x } { { S i v J L %.:.%.#.F                             ",
"                                          s s i i i i i h x } } } k e 1 : v S o.%.%.$.K m                           ",
"                                    s i i i i i i s i a j x } } l i > % % 2 k | X.X.X.S a                           ",
"                                    i i i i i i i i i j x } } | k w % % % 2 j { } } } z a                           ",
"                                    i i i i p s i i j x } } } l f 1 % % % 2 k } } } } k a                           ",
"                                      s s s s i a j x } } } x a 1 : % % % 2 k } } } { j a                           ",
"                                        i i i i h l { } x z m 2 : % % % > e k } } } j a i                           ",
"                                          s i i h x } k p e 2 % % % % % w j { { } x j i s                           ",
"                                                    } a 1 : : % % % % % e z D S z j h s                             ",
"                                                        5 5 5 6 4 % % : b Q W W N n a                               ",
"                                                        ^ ^ ^ ~ 4 % % : M ^ ^ ^ '                                   ",
"                                                        z.z.z.[           z.h.[ z.                                  ",
"                                                        m.m.m.m.          m.m.m.m.                                  ",
"                                                        V.V.V.            V.V.V.                                    ",
"                                                        V.C.              C.V.                                      ",
"                                                                                                                    ",
"                                                                                                                    ",
"                                                                                                                    ",
"                                                                                                                    "
};
