/* XPM */
static char *gr_attack51638259381[] = {
/* columns rows colors chars-per-pixel */
"68 58 186 2 ",
"   c None",
".  c #040202",
"X  c #0D0304",
"o  c gray5",
"O  c #100102",
"+  c #150D0D",
"@  c #1D0D0E",
"#  c #141313",
"$  c #1A1313",
"%  c #1C1B1B",
"&  c #250306",
"*  c #2F060A",
"=  c #2A080A",
"-  c #35070B",
";  c #2C0F10",
":  c #320F11",
">  c #241415",
",  c #2B1415",
"<  c #231B1C",
"1  c #2C1C1C",
"2  c #2A1C17",
"3  c #351314",
"4  c #391B1E",
"5  c #242424",
"6  c #2A2526",
"7  c #4E0D15",
"8  c #510D15",
"9  c #560F18",
"0  c #451517",
"q  c #461619",
"w  c #4F171C",
"e  c #461A1C",
"r  c #57191F",
"t  c #5D181F",
"y  c #57161D",
"u  c #61171C",
"i  c #6A171C",
"p  c #70191E",
"a  c #4A1C20",
"s  c #571C27",
"d  c #5A1C27",
"f  c #5C1D28",
"g  c #6C1620",
"h  c #641C28",
"j  c #6C1D28",
"k  c #671D24",
"l  c #721722",
"z  c #731A24",
"x  c #7C1B25",
"c  c #731D29",
"v  c #7B1D29",
"b  c #462525",
"n  c #512226",
"m  c #592127",
"M  c #5B242B",
"N  c #592E27",
"B  c #4D3220",
"V  c #5C3E23",
"C  c #5E3239",
"Z  c #64242C",
"A  c #67282B",
"S  c #7B232B",
"D  c #7D282D",
"F  c #752E2D",
"G  c #63332A",
"H  c #673D2B",
"J  c #6D302C",
"K  c #7A312C",
"L  c #662B31",
"P  c #743331",
"I  c #7A3E31",
"U  c #723831",
"Y  c #75472B",
"T  c #7A592F",
"R  c #7F4033",
"E  c #6C462C",
"W  c #6F3C41",
"Q  c #454343",
"!  c #5E4F51",
"~  c #565656",
"^  c #6C4F53",
"/  c #735A5D",
"(  c #645354",
")  c #7B6769",
"_  c #7D6A6C",
"`  c #797374",
"'  c #8A171F",
"]  c #841E2A",
"[  c #891E2B",
"{  c #8B1B23",
"}  c #941D25",
"|  c #981F2C",
" . c #A21F28",
".. c #84232B",
"X. c #89222C",
"o. c #892C2E",
"O. c #842B2D",
"+. c #803629",
"@. c #813A31",
"#. c #8A3C33",
"$. c #883630",
"%. c #913B39",
"&. c #AA212C",
"*. c #B3212C",
"=. c #B9222D",
"-. c #91572F",
";. c #854334",
":. c #894535",
">. c #8A4836",
",. c #8F5337",
"<. c #85432B",
"1. c #937836",
"2. c #A57236",
"3. c #A4773D",
"4. c #964C43",
"5. c #885646",
"6. c #9D5449",
"7. c #A35F50",
"8. c #946A56",
"9. c #A0624F",
"0. c #A46956",
"q. c #A9715A",
"w. c #806F70",
"e. c #988037",
"r. c #A58D3B",
"t. c #A08739",
"y. c #B1993E",
"u. c #BDA441",
"i. c #AD8D79",
"p. c #C39D41",
"a. c #CFB947",
"s. c #D3B447",
"d. c #D5B84A",
"f. c #C49375",
"g. c #D19F7E",
"h. c #CDA17F",
"j. c #DAC14A",
"k. c #E8D34F",
"l. c #EED951",
"z. c #E9D550",
"x. c #F2DC52",
"c. c #F6E255",
"v. c #FAE555",
"b. c #FFEB57",
"n. c #FEEB5A",
"m. c #E5CF65",
"M. c #FCEA64",
"N. c #FBE96C",
"B. c #F7E779",
"V. c #9E9999",
"C. c #A98781",
"Z. c #B9A58E",
"A. c #A4A0A1",
"S. c #D5A482",
"D. c #DDB18C",
"F. c #E1B28D",
"G. c #EDDE86",
"H. c #F2C59B",
"J. c #F4E585",
"K. c #F0E391",
"L. c #DBD9BF",
"P. c #CBC7BC",
"I. c #E7DEA9",
"U. c #E2DCB2",
"Y. c #EAE0A1",
"T. c #C2BFC8",
"R. c #D2CACC",
"E. c #D4D5CB",
"W. c #DAD8C3",
"Q. c #C6CCD9",
"!. c #CDD2D5",
"~. c #CBD2DD",
"^. c #D9D4D3",
"/. c #CFD5E1",
"(. c #D0D7E2",
"). c #D4DAE4",
"_. c #D9DEE7",
"`. c #DADFE8",
"'. c #E1E5EC",
"]. c #E5E9EF",
"[. c #ECEEF3",
"{. c #E6EAF0",
"}. c #F2F4F6",
"|. c #F5F6F8",
" X c #FCFCFD",
".X c #F7F8FA",
/* pixels */
"                                                                                                                                        ",
"                                                                                                                                        ",
"                                                                                                                                        ",
"                                                                                                                                        ",
"                                                                                                                                        ",
"                                                                                                                                        ",
"                                                                                                                                        ",
"                                                                                                                                        ",
"                                                              s s f h j ] [ [ [ [                                                       ",
"                                                          s f s f j c v [ [ [ [ [ [                                                     ",
"                                                        s s f j j v ] ] [ [ [ [ [ [ [                                                   ",
"                                                      s s h c ] ] [ ] ] x x x x x ] [ [                                                 ",
"                                                    s s f c ] ] [ ] l 9 7 7 7 7 9 l ] [                                                 ",
"                                                  s s h c v ] [ ] l 8 & O O X X & 8 l ] [                                               ",
"                                                s s s h v [ [ [ l 8 & . . . . . . & 7 l ]                                               ",
"                                                s s s j ] [ ] l 7 & . . . . . . . X & 8 x                                               ",
"                                              s s f h v ] [ l 8 = . X @ : 3 ; @ + * - 8 x                                               ",
"                                              s s d j [ [ [ g * . . + 0 p { p 3 3 p ' { [                                               ",
"                                            s s s f j [ [ ] g * . o $ u &.=.} q 0 } =.*.|                                               ",
"                                          T M s s d j ] [ [ g * . o @ t &.=.} 0 0 } *.*.|                                               ",
"                                      b.k.t.G s s d j ] [ ] g - + # # 0 i p u 2 3 u p { X.                                              ",
"                                    b.x.a.1.N s s d h v [ [ x t 3 # # # > > > $ # > , w <.p.                                            ",
"                                b.b.b.k.t.E m s s s d j v [ [ z e $ # # # # # # # $ 3 t -.d.v.b.                                        ",
"                              b.b.b.b.k.r.E M s s s d h v [ [ v r > # # # # # # $ , r K 2.j.v.b.b.                                      ",
"                          b.b.b.b.b.b.c.j.e.N s s s s h j v [ ] z e , > > > > > 2 B Y 2.s.l.b.b.b.b.b.                                  ",
"                      b.b.b.b.b.b.b.b.b.l.y.H s s s s s f j v [ ] z u d t t t t V e.u.s.x.v.b.b.b.b.b.b.b.                              ",
"                    b.b.b.b.b.b.b.              M s s s s f j v ..x v v c v c c Y u.l.v.b.b.b.b.b.b.b.b.b.b.b.                          ",
"                  b.b.b.b.b.b.          >.>.>.:.    M s s s h c x v k h h h h h H r.v.b.b.b.b.b.b.b.b.b.b.b.b.b.b.                      ",
"                b.b.b.b.b.                  >.>.>.>.R Z m d k v [ x j f d d d               b.b.b.b.b.b.b.b.b.b.b.b.                    ",
"                b.b.b.                        >.>.>.>.@.U F ..X.[ ] v h h h d                 b.b.b.b.b.b.b.b.b.b.b.b.                  ",
"              b.b.                                >.:.5.8.q.0.9.%.] c h c j h d                   b.b.b.b.b.b.b.b.b.b.b.                ",
"              b.                                    U 8.g.F.F.g.8.D Z s h c c h                         b.b.b.b.b.b.b.b.b.              ",
"                                                    M 8.F.H.H.F.q.@.G n f c ] v ]                         b.b.b.b.b.b.b.b.b.            ",
"                                                  s M 5.f.S.g.f.7.:.I G J O.[ ] [                           b.b.b.b.b.b.b.b.b.          ",
"                                                s s h P 4.6.6.4.%.+.R I @.$.o.X.X.                            b.b.b.b.b.b.b.b.          ",
"                                              s s s k v ] X.[ ] ] Z B G R :.#.#.o.                            b.b.b.b.b.b.b.b.          ",
"                                              s s s c ] [ [ [ ] Z a 2 n K $.#.:.#.                            b.b.b.b.b.b.b.b.          ",
"                                            s s s j v ] [ [ [ v w < % a S X.o.#.:.>.                          b.b.b.b.b.b.b.b.          ",
"                                          s s f h v ..] [ [ ..z e % % e v [ X.o.#.;.;.>.                    b.b.b.b.b.b.b.b.b.          ",
"                                        s s s h c ] [ [ X.] z s 1 % % e v [ X.X.O.F I :.>.>.                b.b.b.b.b.b.b.b.b.          ",
"                                      s s s s h v [ [ [ [ [ j 4 % % % a v [ [ ] c Z A ;.>.>.>.>.          b.b.b.b.b.n.b.b.b.            ",
"                                      s s s s h v [ [ [ [ v f 1 % < 4 Z v [ [ ] j s s       >.>.>.,.      b.b.b.b.b.n.b.b.              ",
"                                      s s s s h v ] [ [ v f 4 % % 2 r x v ] ..v h s s           ,.3.s.c.b.b.b.b.b.b.b.b.                ",
"                                          s f f h j c D L b < % % < r S c j j h f s s             d.l.b.b.b.b.b.b.b.b.                  ",
"                                            s s m M L W ( Q 5 % % < n L Z M s s s s             b.b.b.b.b.n.n.n.b.b.                    ",
"                                              s C / _ w.` ~ 5 % % 6 ! ) ) ^ M s s           b.b.b.b.b.b.M.B.K.G.m.d.                    ",
"                                                  V.A.A.              A.A.                b.b.b.b.b.N.B.J.U.R.P.Z.i.C.C.                ",
"                                                                                    b.b.b.b.M.M.M.N.K.U.L.!.Q.Q.R.R.^.^.                ",
"                                                                                b.b.b.b.b.M.B.I.I.I.W.!.~.~.~./.'.}. X                  ",
"                                                                            b.b.b.b.b.N.J.K.U.E.!.!.!./.).`.).'.|. X                    ",
"                                                                  b.b.b.b.b.b.b.n.B.    E.E.!.~./././.`.[..X|..X X                      ",
"                                                          b.b.b.b.b.b.b.          W.~./.~./.~.).].[.[.}. X X                            ",
"                                                          b.b.b.b.b.b.          !./.(.'.'.'.'.{..X X X X                                ",
"                                                                            {.`.`.`.{.|. X X X.X X                                      ",
"                                                                         X X.X|.|.|..X X                                                ",
"                                                                                                                                        ",
"                                                                                                                                        ",
"                                                                                                                                        "
};
