/* XPM */
static char *gr_attack61638259381[] = {
/* columns rows colors chars-per-pixel */
"66 58 168 2 ",
"   c None",
".  c #040202",
"X  c #0D0102",
"o  c #0C0C0C",
"O  c #100102",
"+  c #130D0D",
"@  c #1C0709",
"#  c #1F0F10",
"$  c #141313",
"%  c #1B1314",
"&  c #1C1B1B",
"*  c #250306",
"=  c #280407",
"-  c #33060B",
";  c #390A0F",
":  c #250F11",
">  c #241415",
",  c #2B1416",
"<  c #241B1C",
"1  c #2C1C1D",
"2  c #331416",
"3  c #3B1B1E",
"4  c #311B1D",
"5  c #282828",
"6  c #262424",
"7  c #4E0D15",
"8  c #510E16",
"9  c #570F18",
"0  c #44161B",
"q  c #4E161B",
"w  c #451C1F",
"e  c #491B1F",
"r  c #55161C",
"t  c #56181F",
"y  c #5C181F",
"u  c #5C141C",
"i  c #61131C",
"p  c #4C1C21",
"a  c #571C27",
"s  c #5A1C27",
"d  c #5C1D28",
"f  c #6E1621",
"g  c #641A22",
"h  c #6B1C25",
"j  c #641C28",
"k  c #6C1D28",
"l  c #721722",
"z  c #731A24",
"x  c #7C1B26",
"c  c #741D29",
"v  c #7C1D29",
"b  c #4D2324",
"n  c #432729",
"m  c #592127",
"M  c #5B232B",
"N  c #5C2928",
"B  c #522825",
"V  c #5C2E35",
"C  c #692727",
"Z  c #63232A",
"A  c #682A2D",
"S  c #7C242B",
"D  c #762B2E",
"F  c #63342A",
"G  c #6B312C",
"H  c #77302D",
"J  c #7B312C",
"K  c #662730",
"L  c #672C31",
"P  c #712E30",
"I  c #6F393E",
"U  c #733730",
"Y  c #7B3E31",
"T  c #77552E",
"R  c #484545",
"E  c #5E4F50",
"W  c gray35",
"Q  c #7E5246",
"!  c #6C4F52",
"~  c #665254",
"^  c #71575A",
"/  c #7B6769",
"(  c #7D696B",
")  c #7B7374",
"_  c #841E2A",
"`  c #891E2B",
"'  c #83212B",
"]  c #89222C",
"[  c #892D2E",
"{  c #842C2D",
"}  c #873D2B",
"|  c #873630",
" . c #893630",
".. c #813A32",
"X. c #8A3C33",
"o. c #923D3A",
"O. c #844334",
"+. c #894535",
"@. c #8A4836",
"#. c #8B503F",
"$. c #995931",
"%. c #986339",
"&. c #987E37",
"*. c #A5793F",
"=. c #954C43",
"-. c #9D5449",
";. c #8F624F",
":. c #8D6453",
">. c #9F6A53",
",. c #A26351",
"<. c #A76F59",
"1. c #A86B58",
"2. c #AB745C",
"3. c #806E70",
"4. c #BB913E",
"5. c #AB8B7B",
"6. c #BE8F72",
"7. c #C7A84C",
"8. c #D8B948",
"9. c #C89577",
"0. c #C99E7C",
"q. c #DFC85F",
"w. c #E7D34F",
"e. c #E0C756",
"r. c #FFEB57",
"t. c #FFEB59",
"y. c #FAE559",
"u. c #F8E778",
"i. c #9D9697",
"p. c #A98781",
"a. c #B59E85",
"s. c #A4A1A1",
"d. c #D4A281",
"f. c #D6AC88",
"g. c #E1B28D",
"h. c #EADB87",
"j. c #F2C59B",
"k. c #EBDE92",
"l. c #F5E682",
"z. c #EFE393",
"x. c #C8C2B4",
"c. c #DCD9BE",
"v. c #C4C0C7",
"b. c #D6CECF",
"n. c #D7D7C7",
"m. c #D3D4CB",
"M. c #D9D7C3",
"N. c #C7CFDD",
"B. c #C8CFDC",
"V. c #C3C7D3",
"C. c #CAD1DD",
"Z. c #CED2D4",
"A. c #DFD5D4",
"S. c #CED5E1",
"D. c #D1D7E2",
"F. c #D5DBE5",
"G. c #D9DEE7",
"H. c #DADFE8",
"J. c #DCE1E9",
"K. c #E2E6ED",
"L. c #E5E8EF",
"P. c #E7EAF0",
"I. c #EBEDF2",
"U. c #EFF1F5",
"Y. c #F3F4F7",
"T. c #F4F5F8",
"R. c #F7F8FA",
"E. c #FCFCFD",
/* pixels */
"                                                                                                                                    ",
"                                                                                                                                    ",
"                                                                                                                                    ",
"                                                                                                                                    ",
"                                                                                                                                    ",
"                                                                                                                                    ",
"                                                                                                                                    ",
"                                                                                                                                    ",
"                                                        a a s j k _ ` ` ` `                                                         ",
"                                                    a a a s k c v ' ` ` ` ` `                                                       ",
"                                                  a a j k z x _ ` ` ` ` ` ` ` `                                                     ",
"                                                a a d c v _ _ _ x x x x x _ _ ` `                                                   ",
"                                              a a d c v ` ` _ l 9 8 7 7 7 9 z _ `                                                   ",
"                                            a a d c _ ` ` ` l 8 * O X X X * 8 l _ `                                                 ",
"                                          a a a j v _ ` _ l 8 * . . . . . . * 8 z _                                                 ",
"                                          a a d j _ ` _ l 8 * . . . . . . . X * 9 x                                                 ",
"                                        a a a j v _ _ z 8 = . o + : : # + + @ * 7 x                                                 ",
"                                        a a a k _ ` _ l - X . + 2 r y r > , q i f _                                                 ",
"                                      a a a d k _ ` _ f - . o $ 0 x _ g , 2 f _ _ _                                                 ",
"                                      a a s s k _ ` ` f - . o $ 0 z x g , 2 g v _ `                                                 ",
"                                    a a a a a k _ _ _ l ; + + $ , q r 0 > > 0 t g x                                                 ",
"                                    N a a a a j c _ ` x u 2 $ $ $ % % % $ $ % > r x                                                 ",
"                              r.w.&.N a a a a a j _ ` ` z 0 % $ $ $ $ $ $ $ % 2 y } 4.                                              ",
"                        r.        T M a a a a a j v _ ` x r , $ $ $ $ $ $ $ , t x $.8.r.                                            ",
"                    r.r.r.          a a a a a a d k v ` _ z q , > > > > > > 3 h _                                                   ",
"                    r.r.              a a a a a a d k v _ _ c s y y y y t e p h                                                     ",
"              r.r.                        N a a a a d k v _ _ c c x v v z d a                     r.r.                              ",
"              r.                    @.@.@.    Z a a a j c _ c k j j j j j d                             r.r.                        ",
"                                      @.@.@.@.Y A a a k v _ v c d a a a                                                             ",
"                                        @.@.@.+.O.U G S ] ' _ v j k j a                                                             ",
"                                              +.=.>.<.1.,.o._ c j c k j a                                                           ",
"                                              U ;.0.g.g.d.,.P j d j c c j                                                           ",
"                                              M :.f.j.j.g.2.Y G b d S v v _                                                         ",
"                                            a a Q 9.d.d.9.,.X.J F H S ' ` `                                                         ",
"                                          a a d G =.-.-.=.o...T Y O.| [ [ ]                                                         ",
"                                        a a a j v _ ` ` _ ' C B F Y X.X. .[                                                         ",
"                                        a a a k _ ` ` ` ' h w 1 b J  .+.+.X.                                                        ",
"                                      a a a j v _ _ ` ` x t < & w x ] [ X.+.@.                                                      ",
"                                    a a s j c _ ` ` ` _ C e & & e S ` ] [ X.O.+.+.                                  r.              ",
"                                  a a a j c _ _ ` ` ` v t 1 & & e x ` ` ] { D Y +.@.@.                            r.t.              ",
"                                a a a a j v ` ` ` ` ` z 3 & & < e x ] ` ' c j L O.@.@.@.@.                        r.r.              ",
"                                a a a a j v ` ` ` ` x s 4 & & 3 g S ` ` ' j a M       @.@.@.@.                                      ",
"                                a a a a j v _ ' _ S d 3 < & < t x _ _ _ v j a a           @.@.@.@.                                  ",
"                                    a a d j k c S L n < & & < s v c j j j d a a               @.@.#.%.                              ",
"                                      a a a M K I ~ R 6 & & < b A Z M a a a a                     *.7.e.y.                          ",
"                                        a V ^ ( 3.) W 5 & & 5 E / / ! M a a                         h.k.h.q.                        ",
"                                            i.s.s.              s.s.                            l.z.c.m.x.a.5.p.p.                  ",
"                                                                                              m.c.M.Z.B.V.v.m.A.A.                  ",
"                                                                                          N.N.B.C.B.C.B.D.K.T.E.                    ",
"                                                                              t.u.    N.N.N.N.C.S.F.H.H.P.R.E.                      ",
"                                                                                  C.N.N.S.S.D.D.J.Y.T.T.R.E.                        ",
"                                                    t.                      n.C.C.C.S.C.F.P.I.U.Y.E.E.                              ",
"                                                    r.                    C.C.F.K.L.K.K.I.R.E.E.E.                                  ",
"                                                                      L.H.G.J.P.R.R.E.R.E.E.                                        ",
"                                                                  E.E.E.T.Y.Y.E.E.                                                  ",
"                                                                                                                                    ",
"                                                                                                                                    ",
"                                                                                                                                    "
};
