/* XPM */
static char *gr_attack71638259381[] = {
/* columns rows colors chars-per-pixel */
"67 57 171 2 ",
"   c None",
".  c #040202",
"X  c #080606",
"o  c #080708",
"O  c #0D0D0D",
"+  c #140102",
"@  c #1F0205",
"#  c #110F0F",
"$  c #141313",
"%  c #1C1313",
"&  c #1C1B1B",
"*  c #220305",
"=  c #220E0F",
"-  c #38070C",
";  c #3B090E",
":  c #240F10",
">  c #2B1415",
",  c #221C1C",
"<  c #2B1B1C",
"1  c #251111",
"2  c #321415",
"3  c #3C1518",
"4  c #3B1B1E",
"5  c #351719",
"6  c #36201E",
"7  c #272727",
"8  c #40090F",
"9  c #4C090E",
"0  c #450A11",
"q  c #4C0D14",
"w  c #5B0D15",
"e  c #441416",
"r  c #431519",
"t  c #4C1618",
"y  c #411C1E",
"u  c #491C1F",
"i  c #491517",
"p  c #55171B",
"a  c #5A171A",
"s  c #55181F",
"d  c #501417",
"f  c #65141D",
"g  c #65181E",
"h  c #75181E",
"j  c #4D1D21",
"k  c #571C27",
"l  c #5A1C27",
"z  c #5D1D28",
"x  c #6F1721",
"c  c #621A23",
"v  c #6D1B25",
"b  c #621C28",
"n  c #6C1D28",
"m  c #711722",
"M  c #751B25",
"N  c #7B1B25",
"B  c #731D29",
"V  c #7C1D29",
"C  c #4A2524",
"Z  c #582027",
"A  c #5B2429",
"S  c #572727",
"D  c #5A2830",
"F  c #4F3C3E",
"G  c #65212A",
"H  c #6E242B",
"J  c #64292A",
"K  c #6A2E2C",
"L  c #762229",
"P  c #7F202B",
"I  c #772D2B",
"U  c #68382B",
"Y  c #75372E",
"T  c #753B2F",
"R  c #713037",
"E  c #7F3630",
"W  c #763E30",
"Q  c #7C3B31",
"!  c #723C38",
"~  c #7F4132",
"^  c #454040",
"/  c gray35",
"(  c #68484C",
")  c #66484B",
"_  c #705558",
"`  c #73585B",
"'  c #786062",
"]  c #766D6D",
"[  c #8C1C23",
"{  c #851E2A",
"}  c #891E2B",
"|  c #801B27",
" . c #9D1C26",
".. c #941E2A",
"X. c #9F1F28",
"o. c #A31F28",
"O. c #84262D",
"+. c #89232C",
"@. c #89292E",
"#. c #85322F",
"$. c #89322F",
"%. c #8C2B30",
"&. c #893D32",
"*. c #893530",
"=. c #913D3A",
"-. c #A3202A",
";. c #BB222E",
":. c #844434",
">. c #894535",
",. c #8A4836",
"<. c #874938",
"1. c #8A4B3D",
"2. c #8D433D",
"3. c #876A33",
"4. c #987F37",
"5. c #8C4F42",
"6. c #8B5648",
"7. c #985044",
"8. c #9F5A4D",
"9. c #915F59",
"0. c #8C6352",
"q. c #91615A",
"w. c #A06756",
"e. c #AD6F5B",
"r. c #AD775E",
"t. c #986E68",
"y. c #9E746D",
"u. c #997574",
"i. c #A0776F",
"p. c #B27862",
"a. c #B27761",
"s. c #B6876A",
"d. c #C08A6F",
"f. c #CA9C7C",
"g. c #C99678",
"h. c #D5C049",
"j. c #E3CF4E",
"k. c #FFEB57",
"l. c #9D7E80",
"z. c #948B8C",
"x. c #9E8082",
"c. c #9C9797",
"v. c #9E999A",
"b. c #A28A8D",
"n. c #AFA5AD",
"m. c #B4AFB8",
"M. c #D7AB86",
"N. c #E2B48E",
"B. c #E7B992",
"V. c #C4B9BC",
"C. c #EFC399",
"Z. c #F0C39A",
"A. c #BBBAC5",
"S. c #D4C8C7",
"D. c #C7CFDD",
"F. c #C3C7D4",
"G. c #C9D1DE",
"H. c #CED4E1",
"J. c #D0D6E2",
"K. c #D6DBE5",
"L. c #DADFE8",
"P. c #DEE3EB",
"I. c #E3E6ED",
"U. c #E6E9EF",
"Y. c #EAEBEF",
"T. c #EAEDF2",
"R. c #F3F4F7",
"E. c #F9F8F7",
"W. c #F6F7F9",
"Q. c #F7F8FA",
"!. c #FCFCFD",
/* pixels */
"                                                                                                                                      ",
"                                                                                                                                      ",
"                                                                                                                                      ",
"                                                                                                                                      ",
"                                                                                                                                      ",
"                                                                                                                                      ",
"                                                                                                                                      ",
"                                                                                                                                      ",
"                                                      l l l z n V } } } }                                                             ",
"                                                  k l l z n N V } } } } } }                                                           ",
"                                                k k z n B V } } { } } } } } }                                                         ",
"                                              k k b B { { { { N N M N M N | } }                                                       ",
"                                            l l b B { { } { h q ; 8 ; ; 0 f | {                                                       ",
"                                          k k z B { } { { m 0 * . . . . + 8 f | {                                                     ",
"                                        k k k b V } } { m q @ . . . . . . + ; f N }                                                   ",
"                                        k k z n { { { x 0 @ . X X X X . X . + 0 m }                                                   ",
"                                      k k k n V { } M q * . X : e d e 1 $ ; 9 w N }                                                   ",
"                                      k k k n { } } m - . X # i [ X.[ i 2 h  . ...}                                                   ",
"                                    k k k k n { } } v - . O $ a -.;.-.a 3 [ ;.;.X.}                                                   ",
"                                  k k k k k n { } { m - X O $ d [ -.[ d 2 h -.-...}                                                   ",
"                                  Z k k k k n { { { M q = $ $ > d a t > % r a c N }                                                   ",
"                              j.4.A k k k k b n { } | x 3 % $ $ $ % $ $ $ $ 1 r M }                                                   ",
"                              h.3.A k k k k k b V } } N p % $ $ $ $ $ $ $ % 3 c V {                                                   ",
"                                U Z k k k k k b B { } { c 3 % $ $ $ $ $ $ > s N }                                                     ",
"                                  k k k k k k z b V { { V c r 3 3 3 3 3 2 3 c V                                                       ",
"                                        k k k k k b B { { V M v v v v v k k z                                                         ",
"                                    <.:.K Z k k k k b B { V B B L M B B c k                                                           ",
"                                  <.<.>.>.    A k k z B V V n z l l l l k                                                             ",
"                                      ,.,.,.>.Y J G B O.{ { V b z z k                                                                 ",
"                                          ,.<.<.1.1.2.=.%.{ V b n n z k                                                               ",
"                                            :.6.s.f.g.s.8.O.n z n B n z                                                               ",
"                                            A 0.M.C.C.N.p.E J Z l B V B V                                                             ",
"                                          k Z 6.f.B.B.M.r.:.~ S J L { { }                                                             ",
"                                        k k k ! w.a.a.e.7.~ ~ ~ T #.+.+.+.}                                                           ",
"                                      k k k z B @.%.@.@.O.I U U ~ &.&.$.@.+.                                                          ",
"                                      k k k n { } +.+.[ L Z 6 C Y &.&.>.&.$.                                                          ",
"                                      k k b B { } } } { l 5 & y L @.$.&.>.>.                                                          ",
"                                    k k z B V +.} } { N s , & y M +.+.$.&.>.>.>.                                                      ",
"                                  k k b B V } } } } V c 4 & & y M +.} +.#.E Q >.,.,.                                k.                ",
"                                k k k b V { } } } { n j , & , 6 M { } { P H K ~ ,.,.,.                                                ",
"                              k k k k b P } } } { { c 4 & & < s V { } { n z A       <.,.,.,.                                          ",
"                              k k k k b V } } } { n u < & , u B { { { P n k l           ,.,.,.,.                                      ",
"                                  k k b n B B P G C 7 & & , s N V B B n b k k               ,.<.5.5.                                  ",
"                                    k k k z G R ) F 7 & & & C n G z k k k k                   q.l.u.6.                                ",
"                                      k D ( ` ' ] / 7 & & , F _ ` ( A k k                       A.n.l.u.9.1.                          ",
"                                          z.v.v.              v.v.z.                          D.G.F.A.m.b.t.i.i.                      ",
"                                                                                            D.D.D.D.G.F.A.V.S.S.                      ",
"                                                                                          G.D.G.D.D.G.G.K.Y.W.E.                      ",
"                                                                                      D.D.D.D.G.J.K.K.L.R.Q.!.                        ",
"                                                                                D.D.D.D.H.H.H.J.U.R.R.R.!.!.                          ",
"                                                                            G.H.H.D.H.H.P.U.T.R.E.!.                                  ",
"                                                                          G.J.P.P.P.P.I.R.!.!.!.!.                                    ",
"                                                                      P.L.K.I.R.Q.Q.Q.Q.!.                                            ",
"                                                                  !.Q.R.R.R.R.!.                                                      ",
"                                                                                                                                      ",
"                                                                                                                                      ",
"                                                                                                                                      "
};
