/* XPM */
static char *gr_attack81638259381[] = {
/* columns rows colors chars-per-pixel */
"52 55 160 2 ",
"   c None",
".  c #020101",
"X  c #0A0606",
"o  c #0C0B0B",
"O  c #150102",
"+  c #110909",
"@  c #1D0304",
"#  c #141313",
"$  c #1C1314",
"%  c #1C1B1B",
"&  c #2F0509",
"*  c #32060B",
"=  c #3E080E",
"-  c #210F11",
";  c #2A1516",
":  c #241C1C",
">  c #291819",
",  c #34161A",
"<  c #3D1519",
"1  c #341A1C",
"2  c #3B1A1B",
"3  c #37211F",
"4  c #251F20",
"5  c gray14",
"6  c #3E3737",
"7  c #40090F",
"8  c #420B11",
"9  c #4C0D14",
"0  c #44161A",
"q  c #4C171C",
"w  c #4B1D1F",
"e  c #401C1E",
"r  c #66141E",
"t  c #471920",
"y  c #4B1D20",
"u  c #571C27",
"i  c #5A1C27",
"p  c #5E1D28",
"a  c #6D1621",
"s  c #621B23",
"d  c #6A1B24",
"f  c #641C28",
"g  c #6D1D29",
"h  c #721722",
"j  c #721C26",
"k  c #7D1B27",
"l  c #731D29",
"z  c #7C1D29",
"x  c #4C2023",
"c  c #5C2124",
"v  c #542B26",
"b  c #5B222A",
"n  c #552022",
"m  c #513639",
"M  c #632429",
"N  c #6C2529",
"B  c #63292B",
"V  c #682C2B",
"C  c #742329",
"Z  c #7B232A",
"A  c #752C2C",
"S  c #6C352C",
"D  c #6F3B2E",
"F  c #71342E",
"G  c #733B2F",
"H  c #7C362F",
"J  c #7F2C30",
"K  c #732F36",
"L  c #60373C",
"P  c #7E3B31",
"I  c #7E4133",
"U  c #79443D",
"Y  c #643E43",
"T  c #5F4244",
"R  c #515050",
"E  c #6C494D",
"W  c #745759",
"Q  c #706768",
"!  c #7D7777",
"~  c #851E2A",
"^  c #891E2B",
"/  c #83222B",
"(  c #89252D",
")  c #872D2E",
"_  c #89322F",
"`  c #872A30",
"'  c #8C2C31",
"]  c #9E2D36",
"[  c #873430",
"{  c #893630",
"}  c #873F33",
"|  c #893D32",
" . c #903B39",
".. c #A12E37",
"X. c #A1383D",
"o. c #A83A3F",
"O. c #AD333C",
"+. c #844334",
"@. c #894435",
"#. c #8A4836",
"$. c #874939",
"%. c #8A4B3D",
"&. c #8D413C",
"*. c #B93F45",
"=. c #954D41",
"-. c #8D5449",
";. c #995046",
":. c #915E4B",
">. c #BF4248",
",. c #BC4147",
"<. c #8E6553",
"1. c #926159",
"2. c #966B5B",
"3. c #A66E57",
"4. c #A76E5A",
"5. c #AE715C",
"6. c #936662",
"7. c #97706E",
"8. c #857778",
"9. c #997675",
"0. c #B77D65",
"q. c #C6444A",
"w. c #CF474E",
"e. c #DA4B52",
"r. c #EB5159",
"t. c #BB876C",
"y. c #C89577",
"u. c #8B8485",
"i. c #968E8F",
"p. c #968F90",
"a. c #979090",
"s. c #A69298",
"d. c #AC9EA5",
"f. c #B0AFAF",
"g. c #BEADAE",
"h. c #B4ACB4",
"j. c #B6B1BB",
"k. c #D7A885",
"l. c #DBAE8A",
"z. c #D2A784",
"x. c #E8BB93",
"c. c #CAB9B6",
"v. c #EFC399",
"b. c #BCBBC7",
"n. c #BFC2CE",
"m. c #C7CEDC",
"M. c #C9D1DE",
"N. c #CED5E1",
"B. c #D5DAE4",
"V. c #D9DEE7",
"C. c #D1D7E2",
"Z. c #DDE2EA",
"A. c #E1E5EC",
"S. c #E7E8ED",
"D. c #EBEDF2",
"F. c #EEF1F5",
"G. c #F3F3F5",
"H. c #F5F6F9",
"J. c #FCFCFD",
"K. c #F6F8FA",
/* pixels */
"                                                                                                        ",
"                                                                                                        ",
"                                                                                                        ",
"                                                                                                        ",
"                                                                                                        ",
"                                                                                                        ",
"                                                                                                        ",
"                                      u u f f l ~ ^ ^ ^ ^                                               ",
"                                u u i i f l z ~ ^ ^ ^ ^ ^ ^                                             ",
"                              u i i f l l z ^ ^ ^ ^ ^ ^ ^ ^ ^                                           ",
"                            u u i f l ^ ^ ^ k h a a a a h k ^ ^                                         ",
"                          u u u f z ^ ^ ^ k r = * * * * 8 r k ^                                         ",
"                        u u u f l ^ ^ ^ ~ r = O . . . . O = r k ^                                       ",
"                        u u u f z ^ ^ k r = O . . . . . . O 7 r k                                       ",
"                        u u f l ~ ^ k r = O . X o + o X X X @ 9 k                                       ",
"                      u u u g ~ ^ ^ h 7 @ . o < N A r ; ; i C Z /                                       ",
"                      u u i g ~ ^ ~ r * . o # N ,.w.o.y x o.w.q...                                      ",
"                    u u u i g ^ ^ ^ r & X o $ ) e.r.,.c c q.r.e.O.                                      ",
"                  u u u u i g ^ ^ ^ a * X o $ N ,.q.X.w x ] q.*.]                                       ",
"                  u u u u i g z ^ ^ h 8 - # # 1 n B n ; > n N C /                                       ",
"                u u u u u u p l ~ ^ k d < # # # # # # # # # ; q l                                       ",
"                u u u u u u i f z ^ ^ k q $ # # # # # # # $ w r ~                                       ",
"                u u u u u u u f l ^ ^ z s , # # # # # # $ , s k (                                       ",
"                  u u u u u u i f l ~ ~ k s 0 8 0 < < < 1 0 f /                                         ",
"                      b b i u u i f l ^ ^ k j j d j j d u u s                                           ",
"                    #.P V b i i i u f l z z l l l j l g i i                                             ",
"                  #.#.#.+.  S b u i f l z z f p i p i i i                                               ",
"                      #.#.#.+.F B M g z ^ ^ l f i i i                                                   ",
"                          #.#.$.-.$. . .' ^ l f g g u u                                                 ",
"                            I <.t.y.y.t.;.z g s g l g p                                                 ",
"                            B 2.l.v.x.l.4.H B u i l l l                                                 ",
"                          u b <.z.x.x.k.3.+.G v M Z ^ ~ ^                                               ",
"                        u u b E 4.0.0.5.=.@.I D G ) ( ( (                                               ",
"                      u u u d z ) ' ' ' ( A S D +.| { _ (                                               ",
"                      u u u g ^ ^ ^ ^ / C n 3 v H | @.| {                                               ",
"                      u u p l ^ ^ ^ ^ k u 1 : w Z ) _ @.#.                                              ",
"                    u i p g ~ ^ ^ ^ ^ l t : % y Z ^ ( _ @.@.+.#.                                        ",
"                  u u p g ~ ^ ^ ^ ^ k s 2 % % 0 k ^ ( ( _ P P #.#.                                      ",
"                u u u f z ^ ^ ^ ^ ^ N 2 : % : w k ^ ^ / Z N F +.#.#.#.                                  ",
"              b u u i f z ^ ^ ^ ^ ^ f 1 % % > n k / ^ ~ g p M     #.#.#.#.                              ",
"              u u u u f z ^ ^ ^ ~ g w : % : w j z ^ ^ z f u u           #.#.#.                          ",
"                u u u f l l / z N x : % % : i k z k l g f u u             #.#.#.%.                      ",
"                    u u p p g K T 6 4 % % : u g f p p i u u                   1.9.6.=.                  ",
"                      u b Y E W Q R 5 % % : m E E Y b u u                       j.s.7.6.-.              ",
"                          u.a.a.u.          ! i.i.8.                          m.m.b.h.s.9.1.2.          ",
"                            j.                f.f.                          M.M.m.m.m.m.h.g.c.c.        ",
"                                                                          m.m.m.m.m.m.M.C.S.G.G.        ",
"                                                                      M.m.m.m.M.N.M.N.V.G.J.J.          ",
"                                                                  M.m.M.M.N.M.C.S.D.D.G.J.J.            ",
"                                                              N.M.M.M.N.Z.Z.A.D.K.J.J.J.J.              ",
"                                                          M.C.B.B.B.V.Z.G.J.K.J.J.                      ",
"                                                      B.C.C.Z.G.G.H.H.H.J.                              ",
"                                                  J.K.D.D.D.H.J.J.                                      ",
"                                                  J.J.J.J.J.J.                                          ",
"                                                                                                        "
};
