/* XPM */
static char *gr_attack91638259381[] = {
/* columns rows colors chars-per-pixel */
"60 56 168 2 ",
"   c None",
".  c #020202",
"X  c #0A0303",
"o  c #0C0B0B",
"O  c #1C0305",
"+  c #120A0A",
"@  c #190B0B",
"#  c #160405",
"$  c #1E0F10",
"%  c #141313",
"&  c #1A1313",
"*  c #1C1B1B",
"=  c #2D0508",
"-  c #250306",
";  c #32060A",
":  c #3C0F13",
">  c #221415",
",  c #2D1416",
"<  c #2F1718",
"1  c #251B1C",
"2  c #2A1B1C",
"3  c #321417",
"4  c #331718",
"5  c #3C161A",
"6  c #341B1D",
"7  c #3C1A1B",
"8  c #372022",
"9  c #362D2E",
"0  c #353333",
"q  c #490B13",
"w  c #470B12",
"e  c #570F18",
"r  c #550F17",
"t  c #45171C",
"y  c #48161B",
"u  c #421B1D",
"i  c #571018",
"p  c #5B111A",
"a  c #59181E",
"s  c #63141E",
"d  c #4B1C20",
"f  c #571C27",
"g  c #5B1C26",
"h  c #571E28",
"j  c #5C1D28",
"k  c #6D1620",
"l  c #641B23",
"z  c #6B1C24",
"x  c #651D28",
"c  c #6D1D29",
"v  c #741B25",
"b  c #791B26",
"n  c #741D29",
"m  c #7B1D2A",
"M  c #4F2C24",
"N  c #572123",
"B  c #5E2326",
"V  c #5F212A",
"C  c #5E2A29",
"Z  c #63252A",
"A  c #6C242E",
"S  c #712027",
"D  c #732229",
"F  c #7C232C",
"G  c #752C2D",
"H  c #7A2A2E",
"J  c #6A372B",
"K  c #72332E",
"L  c #7E2C30",
"P  c #613A3F",
"I  c #683532",
"U  c #763D30",
"Y  c #7A3C31",
"T  c #7C4032",
"R  c #434343",
"E  c #594D4D",
"W  c #6E4044",
"Q  c #665052",
"!  c #71585B",
"~  c #775E61",
"^  c #6F6B6B",
"/  c #7A6668",
"(  c #841E2A",
")  c #891E2B",
"_  c #82232B",
"`  c #89232D",
"'  c #852B2D",
"]  c #892D2E",
"[  c #88332F",
"{  c #83322E",
"}  c #832E32",
"|  c #9B2A34",
" . c #932631",
".. c #893430",
"X. c #8A3D33",
"o. c #843B33",
"O. c #923337",
"+. c #A1383D",
"@. c #AF383F",
"#. c #8A4535",
"$. c #8A4836",
"%. c #80483A",
"&. c #8C4D3B",
"*. c #8A4138",
"=. c #93403C",
"-. c #AD3C41",
";. c #BE3D45",
":. c #824C43",
">. c #8E4E45",
",. c #964D44",
"<. c #8F584F",
"1. c #8D5347",
"2. c #945646",
"3. c #9E594B",
"4. c #8F5A51",
"5. c #905C53",
"6. c #B94046",
"7. c #94635A",
"8. c #936157",
"9. c #AB6B59",
"0. c #A56655",
"q. c #977170",
"w. c #A57A62",
"e. c #C14248",
"r. c #CF464D",
"t. c #D64A50",
"y. c #E34F56",
"u. c #EC5159",
"i. c #AE8065",
"p. c #B98068",
"a. c #B78B6E",
"s. c #C69778",
"d. c #D09F7E",
"f. c #9E9999",
"g. c #969292",
"h. c #A48E93",
"j. c #A7959B",
"k. c #A8969C",
"l. c #A19D9D",
"z. c #AC9A9E",
"x. c #AEA3AB",
"c. c #BBA9A9",
"v. c #D0A180",
"b. c #D9AB87",
"n. c #E1B38D",
"m. c #E8BD94",
"M. c #C6B4B1",
"N. c #EFC299",
"B. c #F2C69C",
"V. c #BDBECA",
"C. c #C2C6D2",
"Z. c #C4C9D5",
"A. c #C7CFDD",
"S. c #C9D1DE",
"D. c #D2D4DC",
"F. c #CED5E1",
"G. c #D1D7E2",
"H. c #D6DBE6",
"J. c #D8DDE7",
"K. c #DEE3EA",
"L. c #E7E6E9",
"P. c #E5E9EF",
"I. c #F3F0EF",
"U. c #EBEEF2",
"Y. c #EFF1F5",
"T. c #F2F3F5",
"R. c #F6F7F9",
"E. c #FCFDFD",
/* pixels */
"                                                                                                                        ",
"                                                                                                                        ",
"                                                                                                                        ",
"                                                                                                                        ",
"                                                                                                                        ",
"                                                                                                                        ",
"                                                                                                                        ",
"                                          f f j x c n ) ) ) ) )                                                         ",
"                                      f f g g z n ( ( ) ) ) ) ) )                                                       ",
"                                    f f g c b b ( ( ) ) ( ( ( ) ) )                                                     ",
"                                  f f g n m ) ) ( b s k k s s b ( ) )                                                   ",
"                                f f x c m ) ) ( b e ; ; ; ; ; q k ( )                                                   ",
"                              f f f c ( ) ) ( b e = . . . . . O w z ( )                                                 ",
"                              f f j c ) ) ( b r = . . . . . . . O w s )                                                 ",
"                            f f f x m ) ( b e = X . + @ @ + o X # = p (                                                 ",
"                          f f f g n ( ) ( p = X . > N H H f > t D _ _ `                                                 ",
"                          f f f x m ) ) ( e O . o 4 O.t.r.O.7 G 6.t.e.|                                                 ",
"                          f h f g m ( ) ( p O . % 7 O.y.y.+.7 L t.u.r.|                                                 ",
"                        f h j f g m ) ) ( p O o % < } ;.6.} 4 Z @.6.@. .                                                ",
"                        f f f f g n m ) ( s : & % % 7 N N u & 4 f B S _                                                 ",
"                      f h f f f f x n ) ) m s , % % % % % % % % % 3 s (                                                 ",
"                      h f f f h f f c ( ) ( z : % % % % % % % % , a b (                                                 ",
"                      f f f f f f f x m ( ) b g 4 & & % % & % > t z (                                                   ",
"                        h f f f j f f c m ( ) n g y y y y y 5 7 f n )                                                   ",
"                            f f f f f j x m ( ( b v v n v v l f g                                                       ",
"                                  f f f f x m ( n n c c n c x g                                                         ",
"                                    f f g c b ( n x g f j f g                                                           ",
"                      $.$.$.$.        j x m ( ( ( c g x j f                                                             ",
"                          $.$.$.$.    :.>.,.=.] ( c x n x g                                                             ",
"                              $.$.&.w.v.d.d.p.=.n x Z n n c j                                                           ",
"                                Y %.a.m.B.N.d.2.K K K K _ m n                                                           ",
"                                V I w.b.n.n.s.2.Y U T o.[ ] ] ]                                                         ",
"                              f g V :.0.9.9.3.o.C M J #.X.X.X.*.                                                        ",
"                            f f g c m ` ` ` ` m y 2 B { [ [ X.#.#.$.$.                                                  ",
"                          f h f j m ) ) ` ) ( x 7 2 N _ ` ` ] X.#.$.$.$.$.                                              ",
"                          f j g z m ) ) ) ) c u 1 2 a ( ) ) ` `       $.$.$.$.$.                                        ",
"                        f f f c m ( ` ) ( ( x 6 * 1 l _ ) ) ) )               $.$.$.4.7.1.                              ",
"                      h h f x m ( ) ) ) ( n d 2 * 1 a m ) ) ) m n                   h.k.q.<.4.4.5.8.7.                  ",
"                    f f f f c ( ) ) ) ) ( g 2 * * 2 g ( ) ) ( n x                     V.x.k.j.k.z.c.M.M.                ",
"                  f f h f j c ) ) ) ) ( D a 1 * 1 7 S _ ) ) m l f                   A.A.Z.C.C.Z.D.L.I.T.                ",
"                  f h f f j c ( _ ) ) m f 6 * * 6 l m ( ) ( n x f                   A.A.A.A.F.H.Y.R.E.                  ",
"                      f f f g c m m H V 8 * * * 6 z m n c c x j f                 A.A.A.A.F.H.U.E.E.                    ",
"                        j f f h V A W E 0 * * * 6 j A Z f f f f f                 A.A.A.F.H.U.E.E.                      ",
"                            h P ! / / ^ R * * * 9 Q ~ ! P h f f                 A.A.A.F.H.U.E.E.                        ",
"                                f.l.f.            g.l.f.                      A.A.F.F.J.U.E.E.                          ",
"                                                                            A.S.F.K.U.T.E.E.                            ",
"                                                                          A.S.F.K.Y.E.E.E.                              ",
"                                                                        A.H.H.K.T.E.E.                                  ",
"                                                                      F.H.P.T.R.E.                                      ",
"                                                                    K.U.U.R.E.                                          ",
"                                                                  U.U.E.E.E.                                            ",
"                                                              E.E.E.E.E.                                                ",
"                                                                                                                        ",
"                                                                                                                        ",
"                                                                                                                        ",
"                                                                                                                        "
};
