/* XPM */
static char *grass1638186798[] = {
/* columns rows colors chars-per-pixel */
"64 64 46 1 ",
"  c #23140A",
". c #29170B",
"X c #2D190C",
"o c #341D0E",
"O c #381F0F",
"+ c #3A200F",
"@ c #3B2110",
"# c #1E373C",
"$ c #1E383D",
"% c #263436",
"& c #2E3737",
"* c #23373B",
"= c #2A3738",
"- c #21383C",
"; c #353735",
": c #3C3631",
"> c #422614",
", c #462917",
"< c #482A17",
"1 c #472A18",
"2 c #4D2D1B",
"3 c #502F1C",
"4 c #4F301D",
"5 c #50301D",
"6 c #442F23",
"7 c #4E3527",
"8 c #43362E",
"9 c #4B3529",
"0 c #553524",
"q c #593623",
"w c #5D3925",
"e c #503628",
"r c #613B27",
"t c #653E29",
"y c #67402B",
"u c #6C432D",
"i c #1F3B40",
"p c #203D42",
"a c #224047",
"s c #24444A",
"d c #26484F",
"f c #274A50",
"g c #294D54",
"h c #2A5057",
"j c #2B5158",
"k c #326169",
/* pixels */
"kkkkkkkkkkkkkkkkkkkkkkkkkkkkkkkkkkkkkkkkkkkkkkkkkkkkkkkkkkkkkkkk",
"kkkkkkkkkkkkkkkkkkkkkkkkkkkkkkkkkkkkkkkkkkkkkkkkkkkkkkkkkkkkkkkk",
"kkkkkkkkkkkkkkkkkkkkkkkkkkkkkkkkkkkkkkkkkkkkkkkkkkkkkkkkkkkkkkkk",
"kkkkkkkkkkkkkkkkkkkkkkkkkkkkkkkkkkkkkkkkkkkkkkkkkkkkkkkkkkkkkkkk",
"jjjjjjjjjjjjjjjjjjjjjjjjjjjjjjjjjjjjjjjjjjjjjjjjjjjjjjjjjjjjjjjj",
"jjjjjjjjjjjjjjjjjjjjjjjjjjjjjjjjjjjjjjjjjjjjjjjjjjjjjjjjjjjjjjjj",
"jjjjjjjjjjjjjjjjjjjjjjjjjjjjjjjjjjjjjjjjjjjjjjjjjjjjjjjjjjjjjjjj",
"jjjjjjjjjjjjjjjjjjjjjjjjjjjjjjjjjjjjjjjjjjjjjjjjjjjjjjjjjjjjjjjj",
"jjjjjjjjjjjjjjjjjjjjjjjjjjjjjjjjjjjjjjjjjjjjjjjjjjjjjjjjjjjjjjjj",
"jjjjjjjjjjjjjjjjjjjjjjjjjjjjjjjjjjjjjjjjjjjjjjjjjjjjjjjjjjjjjjjj",
"gjjjjjjjjjjjjhgjjjjjjhjjjjjjjjjjjjjjjjgjjjjjjjjjjhghjjjjjjjjjjjd",
"pgggjjjgsjjjjjagjjjhjhjjjjphjjjfghjjjgpjjjjjjjjjhfihjjjhjjjjjjji",
"$$$$sfdi$shjgs$igjjhgisffiiiffs$ighjgi#shjjjsidfs$$psfsigjjjjgs#",
"=$$$$$$$$$$p$$$=$sss#$#$###i$-####ip##i#issi-*$$#$$$i##$#psdsi#&",
"8$$$$$$-$$$$$#%8$$$$#$$:####$*8$$$$$##i#$$$$=9i$$$$$-:i#i##--$=7",
"r:#$$=9*$$$$$*6q:$$$#$:08##i=7q:$$$=9-##$$$-ew:#$$$#:08-##*60e0w",
"yq0970qe;#$#&7ryq9;=;9quqq770rywe970qe;$$-=7ruq7;=:9qyq0976wrwtu",
"uyww0quw0e7e0wuuy000qwtuurqqtuuurwqyuw007e0wyuyw000quuurwqtuuuuu",
"uuur53tuyrwttuuuuuutuuuuuuuuuuuuuuuuuuyrwwyuuuuuttuuuuuuuuuuuuuu",
"uuut30yuuuuuuuuuuuuuuuuuuuuuuuuuuruuuuuuuuuuuyyuuuuyuuuuuuuuuuuu",
"uuuutyuuuuuuuuuuuuuuuuywtuuuuuuut2tuuuuuuuuu5555uuurruuuuuuuuuuu",
"uuuuuuuuuuuuuuurtuuuuu3755uuuuuuyyuuuuuuuuyq55550uuuuuuuu30tuuuu",
"trrtuuuuuuuuuy5555tuut3355uuuuuuuuuurryuuuw555552wuuuuuuu35tuuuu",
"3555quuuuuuur555555yuu5555uuuuuuuuuw555yut55555523tuuuuuuttutq05",
"555555tuuuuq25555qq5yuyw5uuuuuuuuuu5555ry555qq5555ruuuuuuuuu5555",
"5555553qww55555555555ruuuuuuuuuuuuuq555uq5555r555555yuuuuuuq5555",
"3555555555555555355555ruuuuuut55tuuurrtr25555555555555ruuut35555",
"55555555355554555<,35555uuut555550yuuu5355555555555555525q35yw55",
"55555555yr3555553+@>55555335tu55552wr555352<23555555555555555555",
"55555555rw5555533>+<55555555yuw55555335532+++2355555535555555555",
"55422555555555555525555555555555555555555,+++,55<255555555555555",
"552+@255555555545555555555555555553<355552@++<5,++3555553><35555",
"552O@25245545555555555555555555555<+,555552>225,++2555555,225555",
"55222552555455355555555555555545552,2555552445542255555552555555",
"55552422>>2255552,1255555525555555545555555555555555552225555355",
"5555522@@@+25532@@@@2555<++,25555555345554555555555532@@@2354555",
"522555@@@@+>532@@@@@@552@@@+<5555555,@>,5555542,,25553@@+2525555",
"222555>@@@@@53,@>@@@@>32@@@@<555552<++++22552<+@@@,3552@>5525222",
"@@@232,+@@@252O222@@@+25>+@@4455555,@@+@,5522@@@@@@>22355552@+O+",
"@@@@252,@@,22@+,32@@@++2212555555542+@@@2251@@@@@@@@>25542>@@@@+",
"@@@@>255253<@@@@>@@@@@@@455455554453,@@,25,@@@@@,22+@@+>@@@@@@@@",
"@@+O+,232,@@@@@@@@@@@@@@>455552>+@>222234>@@@@@@255,@@+@@@@@@@@+",
"@@52@@@@@@@@@@@@@@@@@@@@@>2542@@@+++,22,@@@@@@@@235,@@@@@+22>@@@",
"@>52@@@@+@@@@@oo@@@@@@@@@@@>@+@@@2@@@@+@@@@@@@@@@<,@@@@@@@,2@@@@",
"@@>@@@@@@@@@@@@@@@@@@@@@@@@@@@@@@,@@@@@@@@@>4@@@@@@@@@@@@@@@+@@@",
"@@+@@@@@@O@@@@@@@@@@@@@@@@@@@+@@@+@@@@@@@@+>2@@@@@@@@@@@@@@@@@@@",
"@@@@@@@@@,2>@@@@@@@@@@@@@,@@@@@@@+XXO@@@@@@@@@@@@@@@@@@+@@@@@@@+",
"@@@@@@@@@252O@@@@@@@@@@@@2@@@@@@+o  X@@@@@@@@@@@@@@@@@@@@@@@@@@@",
"@@@@@+@@@@2++@@@@@@@@@@@+@@@@@@@@o  o+@@@@@@@@@@@@@@@@@@@@@@@@@@",
"@+@@@@@@@@@@@@@@@@@+@@@@@@@@@@@@@@@o@@@@@@@+@@@@@@@@@@@@@@@@@@@@",
"@@@@@@@@@@@@@@@@@@@o.  o@@@@@@@@@@@@@@@@@@@@@@@@@@@@@@@@@@@@+@@@",
"@@@@@@@@@@@@@@@@@++     o@@@@@@+@@@@@@@@@@@@@@+@@@@@@@@@@+@@@@@@",
"@@+oo+@@+@@@@@@@@+.      +@@@@@@@@@@+@@@@@@@@@@@@++@@@@@@@@+@@@@",
"@OX  .@@@@@@+@@@@+       +@@@@@@@@@@@@@@@@+@@@@@O  o+@@@@@@+@@@@",
"@@    @@@@@@@@@@@@       ++@@@@@@@@@@@@@@@@@@@@@o  X@@@@@@oX+@@@",
"@OX  .@@@@@@@@@@@@o     X@@@@@@@@@@@@@@@@@@@@@@@@. O+@@@@@o O@@@",
"@@@oo@@@@@@@@@@@@@@X   X@@@@@@@@@@@@@@@@@@@@@@@@@@@@@@@@@@@@@@@@",
"@@@@+@@@@@@@@+@@@@@@@++@+@@@@@@@@@@@@@oXo@@@@@@@@@@@@@@@@+@@@@@@",
"@@@+@@@@@@@@@@@@@@@@@@@@@@@@@@@+@@@@@o   o@@@@@@@@+@@@@@@@@@@@@@",
"@@@@@@@@@@@@@@@@@@@@@@@@@@@@@@@@@@@@@o   X@@@@@@@@@@@@@@@@@@@@@+",
"@@@@@@@@@@@@@@@@@@+@@@@@@@@@@@@@@@@@@o   o@@@@@@@@@@+@@@@@@@@@@@",
"@@@@@@@@@@@@@@@@@@@@@@@+@@@@@@@@+@@@@@ooo@@@@@@@@@@@@@@@@@@@@@@@",
"@@@@@@@@@@@@@@@@@@@@@@@@@@@@@@@@@@@@@@@@@@@@@@@@@@@@@@@@@@+@@@@@",
"@@@@@+@@@@@@@@+@@@@@@@@@@@@@@@@@@@@@@@@@@@+@@@@@@@@+@@@@@@@@@@@@"
};
