/* XPM */
static char *gri11638187747[] = {
/* columns rows colors chars-per-pixel */
"55 52 186 2 ",
"   c None",
".  c #020202",
"X  c #0D0102",
"o  c #0C0B0B",
"O  c #130B0B",
"+  c #190B0B",
"@  c #180203",
"#  c #141313",
"$  c #191314",
"%  c #1C1B1B",
"&  c #220305",
"*  c #2F0509",
"=  c #250608",
"-  c #32060A",
";  c #38070C",
":  c #28130D",
">  c #231314",
",  c #2B1516",
"<  c #251D1C",
"1  c #2C1B1C",
"2  c #2A1A17",
"3  c #381518",
"4  c #301D18",
"5  c #3B1B1C",
"6  c #351417",
"7  c #2E201E",
"8  c #33221E",
"9  c #2F2828",
"0  c #372722",
"q  c #3C332A",
"w  c #410C12",
"e  c #401011",
"r  c #49161B",
"t  c #4B1E1F",
"y  c #401519",
"u  c #5C111A",
"i  c #54181E",
"p  c #63131D",
"a  c #69161F",
"s  c #44231E",
"d  c #48271F",
"f  c #50281D",
"g  c #4D1A22",
"h  c #571C27",
"j  c #5A1C27",
"k  c #571D28",
"l  c #5B1E28",
"z  c #6C1520",
"x  c #641B24",
"c  c #641C28",
"v  c #6B1D28",
"b  c #6C1C27",
"n  c #741C26",
"m  c #7B1B26",
"M  c #741D29",
"N  c #7B1D29",
"B  c #711722",
"V  c #4F2221",
"C  c #462922",
"Z  c #552321",
"A  c #5D2225",
"S  c #522C23",
"D  c #5E222A",
"F  c #5C2E2A",
"G  c #592F24",
"H  c #50382D",
"J  c #5E3126",
"K  c #5A2830",
"L  c #5E3630",
"P  c #612C27",
"I  c #6B232B",
"U  c #6D2D2C",
"Y  c #682628",
"T  c #75252B",
"R  c #76292D",
"E  c #7A2A2C",
"W  c #7A242B",
"Q  c #623326",
"!  c #633429",
"~  c #6C352C",
"^  c #6E3A2D",
"/  c #75332E",
"(  c #743B2D",
")  c #783F2F",
"_  c #6B3E36",
"`  c #60363C",
"'  c #7E3530",
"]  c #7D3D31",
"[  c #6C4037",
"{  c #7B4535",
"}  c #604C4E",
"|  c #6A4C50",
" . c #705659",
".. c #7B644F",
"X. c #755E60",
"o. c #795F61",
"O. c #776062",
"+. c #851E2A",
"@. c #891E2B",
"#. c #801B27",
"$. c #82222A",
"%. c #89232C",
"&. c #892C2E",
"*. c #872A2D",
"=. c #86322F",
"-. c #882E32",
";. c #982933",
":. c #8B3532",
">. c #863C32",
",. c #893C33",
"<. c #863435",
"1. c #913337",
"2. c #983A3C",
"3. c #A22F38",
"4. c #A7303A",
"5. c #A1383D",
"6. c #834133",
"7. c #874639",
"8. c #9B443B",
"9. c #AF3A40",
"0. c #B33E44",
"q. c #8C4F41",
"w. c #914D43",
"e. c #8F554F",
"r. c #8E5346",
"t. c #945A47",
"y. c #805856",
"u. c #8F5A51",
"i. c #915156",
"p. c #BA4747",
"a. c #94624C",
"s. c #8C6057",
"d. c #91615A",
"f. c #9C795F",
"g. c #A66454",
"h. c #946564",
"j. c #956967",
"k. c #B57D64",
"l. c #C5484A",
"z. c #D1474E",
"x. c #D84B52",
"c. c #E85058",
"v. c #A58669",
"b. c #B59374",
"n. c #CB9A7A",
"m. c #968E8F",
"M. c #9C8B8A",
"N. c #9B9696",
"B. c #A08588",
"V. c #A48E93",
"C. c #A39E9E",
"Z. c #AD989A",
"A. c #B89F9C",
"S. c #B9A19D",
"D. c #AD9EA7",
"F. c #A9A3A3",
"G. c #B5AEB9",
"H. c #B1A8B1",
"J. c #B3B3B3",
"K. c #B6B1BB",
"L. c #DEB38D",
"P. c #E4B992",
"I. c #E9BC94",
"U. c #EDC299",
"Y. c #BBBAC6",
"T. c #C3C8D5",
"R. c #C7CFDD",
"E. c #CCCDD6",
"W. c #CAD1DF",
"Q. c #DFDCDF",
"!. c #CDD4E0",
"~. c #D0D6E2",
"^. c #D4DAE5",
"/. c #D8DEE7",
"(. c #D9DEE8",
"). c #DDE1EA",
"_. c #EBE7E6",
"`. c #E2E6ED",
"'. c #E6E9EF",
"]. c #E7EAF0",
"[. c #EAEDF2",
"{. c #EDF0F4",
"}. c #F2F3F6",
"|. c #F4F6F8",
" X c #F7F8FA",
".X c #FBFCFD",
/* pixels */
"                                                                                                              ",
"                                                                                                              ",
"                                                                                                              ",
"                                                                                                              ",
"                                                                            S._.                              ",
"                                                                            A._..X                            ",
"                                                                          r.Z.Q. X.X                          ",
"                                          h h j c v M +.@.@.@.@.        q.j.Z.E.]. X.X                        ",
"                                      k j j j x M N +.+.@.@.@.@.@.      u.V.Y.R.~.[..X                        ",
"                                    k j j v m m +.@.+.+.@.+.+.@.@.@.&.7.d.D.T.R.W.'. X                        ",
"                                  k j j v N @.@.+.m z z z a a B #.%.&.t.B.K.T.R.W.'..X                        ",
"                                k k j v N +.@.+.m u ; - * * * w a $.:.h.H.T.W.W.W.).|..X                      ",
"                              h k j c N +.@.+.m u * X . . . . @ w U 6.j.G.R.R.R.R.!.`.|.                      ",
"                              h k j v +.@.@.m u - X . . . . . . : Q 6.h.G.R.R.R.R.W./.|.                      ",
"                            h h k c m +.+.m u - X . O + + O o : f ( 6.i.D.R.R.R.R.W./.|..X                    ",
"                            h h j M +.@.+.a - o . + t R E A , 5 ( 8.8.1.    R.R.R.W.^.[..X.X                  ",
"                          h h h j M +.@.+.p & . o , =.l.x.5.t C { p.l.3.      W.R.R.W.).{..X                  ",
"                          h h k j N @.@.+.p & . o , 1.x.c.0.A ~ 7.l.z.4.        R.R.R.~.{..X                  ",
"                        h h h j j M +.@.+.p = o # > R 0.p.1.Q ) >.2.5.;.        R.R.R.!.{..X                  ",
"                        h h h h l v +.@.+.z w $ # # 5 h A Z Q ) P f I +.        R.R.W.~.{..X                  ",
"                      h h h h h j c M +.+.#.z 6 # # # # 2 G ) ) S 4 i m           R.R.!.[..X.X                ",
"                      h h h h h k j v +.@.+.n w $ # # $ 1 ! ) Q y i n +.            R.!.(.{..X                ",
"                      h h h h h k h c M +.+.N j 3 $ $ , S ( ( d 5 x +.@.            R.R.!.'..X                ",
"                        k h h h k k j c N +.+.N j r r f ( 6.( V g v +.              R.R.W.). X                ",
"                              h h h k j v M +.+.m m M E >.>.E A h c                   R.!.`..X                ",
"                                  h h h l c M +.M n R >.6.=.I j k                     R.!.`. X                ",
"                                    l h j c M +.M v ~ 6.] / D h                       R.!.`. X                ",
"                                      j c M +.@.$.W / ] ~ D                             !.`. X                ",
"                                      c M +.+.@.$.=.>.] U l h                           !.`. X                ",
"                                    k j v N +.+.W >.{ / T v l                           !.`. X                ",
"                                  h h h j b M T R ] ] U M N M                           !.`. X                ",
"                                h h j c c v b T ] { ( I N +.@.@.                          ]..X                ",
"                              h j l v N +.N <.w.t.{ F Y N @.@.@.                          |..X                ",
"                            k h j v N +.@.&.g.n.n.f.L v +.@.@.@.                            .X                ",
"                          h h h l n +.@.@.;.k.P.U.b._ N @.@.@.@.                            .X                ",
"                          h h j v M @.@.@.:.k.I.U.b._ +.@.@.@.@.                            .X                ",
"                        h k j c N +.@.@.$.,.k.L.P.b._ $.@.@.@.@.                            .X                ",
"                      h h j c M +.@.@.@.%.>.t.v.v...F N @.@.@.@.M                                             ",
"                    h h h j v +.@.@.@.%.:.,.{ H 9 0 Z N @.@.+.M c j                                           ",
"                  h h h h j v +.@.@.@.*.>.6.~ 8 % 5 c +.@.@.N c l j                                           ",
"                    h h h j v N +.@.%.-.,.^ d < 1 j N +.+.+.m c k l                                           ",
"                      k h j c v M W *.<.6.! 9 % 1 c N v M v c l h l                                           ",
"                          k k l D I ' 6.) S < % 1 h I Y D k j k h                                             ",
"                            k L X.y. .7.J 0 % % 9 } X.O.X.| K k                                               ",
"                                N.F.M.s.          m.F.F.C.m.                                                  ",
"                                J.J.F.              J.J.K.                                                    ",
"                                  J.                J.J.                                                      ",
"                                                                                                              ",
"                                                                                                              ",
"                                                                                                              ",
"                                                                                                              ",
"                                                                                                              "
};
