/* XPM */
static char *gri21638254425[] = {
/* columns rows colors chars-per-pixel */
"49 50 178 2 ",
"   c None",
".  c #030202",
"X  c #0D0C0C",
"o  c #110102",
"O  c #180809",
"+  c #131313",
"@  c #1E1212",
"#  c #1B1B1B",
"$  c #230306",
"%  c #2D0509",
"&  c #290B0B",
"*  c #241515",
"=  c #2A1415",
"-  c #221C1C",
";  c #2A1C1D",
":  c #231816",
">  c #3D1618",
",  c #351B1A",
"<  c #3E1B1D",
"1  c #341714",
"2  c #2E201E",
"3  c #37211D",
"4  c #282221",
"5  c #2F2829",
"6  c #3A2420",
"7  c #4B0C13",
"8  c #510D15",
"9  c #441A1D",
"0  c #48161B",
"q  c #5C191D",
"w  c #58121A",
"e  c #66141E",
"r  c #45251E",
"t  c #50241B",
"y  c #571C27",
"u  c #5A1C27",
"i  c #5C1D28",
"p  c #6F1621",
"a  c #631C24",
"s  c #6C1A24",
"d  c #641C28",
"f  c #6C1D28",
"g  c #711722",
"h  c #741A24",
"j  c #7D1B27",
"k  c #731D29",
"l  c #7D1D2A",
"z  c #4C2520",
"x  c #442922",
"c  c #572026",
"v  c #5B2324",
"b  c #5B222C",
"n  c #552C23",
"m  c #50302B",
"M  c #5B3329",
"N  c #5D2931",
"B  c #5B3D34",
"V  c #63232B",
"C  c #6C232A",
"Z  c #6B2D2C",
"A  c #72252C",
"S  c #7C232D",
"D  c #7B2D2D",
"F  c #772C29",
"G  c #643329",
"H  c #6A372A",
"J  c #6C392C",
"K  c #74352D",
"L  c #7B342D",
"P  c #743C2D",
"I  c #7A3B2E",
"U  c #633737",
"Y  c #7C3E31",
"T  c #7B3332",
"R  c #574639",
"E  c #674137",
"W  c #6C4137",
"Q  c #7C4132",
"!  c #664E4A",
"~  c #73464A",
"^  c #6E5B48",
"/  c #765A47",
"(  c #674F52",
")  c #725B5E",
"_  c #7A6466",
"`  c #776265",
"'  c #841E2A",
"]  c #891E2B",
"[  c #801B27",
"{  c #85242C",
"}  c #89222C",
"|  c #85282F",
" . c #892A2D",
".. c #88312F",
"X. c #802D30",
"o. c #8C2C31",
"O. c #982933",
"+. c #8A3432",
"@. c #843D32",
"#. c #893B33",
"$. c #873534",
"%. c #983037",
"&. c #9D373B",
"*. c #953839",
"=. c #A12C37",
"-. c #A1363B",
";. c #A93A3F",
":. c #844133",
">. c #894235",
",. c #86493A",
"<. c #99433A",
"1. c #8B3C41",
"2. c #AD3D41",
"3. c #824C42",
"4. c #8C5042",
"5. c #90594D",
"6. c #865655",
"7. c #915C54",
"8. c #AB4A41",
"9. c #8B654F",
"0. c #93645F",
"q. c #A96F5B",
"w. c #A3735B",
"e. c #945D63",
"r. c #976C6D",
"t. c #956A66",
"y. c #8E736E",
"u. c #9C7F64",
"i. c #86797A",
"p. c #987171",
"a. c #B37A62",
"s. c #CC444C",
"d. c #C94D4C",
"f. c #DC4C53",
"g. c #D44950",
"h. c #E34F56",
"j. c #AE876A",
"k. c #B79676",
"l. c #C69F7D",
"z. c #9F8487",
"x. c #928483",
"c. c #989293",
"v. c #A29D9D",
"b. c #A69297",
"n. c #A5A1A2",
"m. c #AAA2A4",
"M. c #ADA6AA",
"N. c #B7A2A2",
"B. c #B4ABB6",
"V. c #B4B4B4",
"C. c #B8B4BF",
"Z. c #B7B3BD",
"A. c #CAA682",
"S. c #DAAD89",
"D. c #E2B790",
"F. c #E6BA92",
"G. c #C1ADA9",
"H. c #EDC39A",
"J. c #BAB8C4",
"K. c #C4C9D6",
"L. c #C7CFDD",
"P. c #C9CFDB",
"I. c #C9D0DE",
"U. c #D2D4DC",
"Y. c #CED4E1",
"T. c #D0D6E2",
"R. c #D4DAE4",
"E. c #D8DEE7",
"W. c #DDE2EA",
"Q. c #E3E7ED",
"!. c #E6E4E7",
"~. c #F1EDED",
"^. c #E9ECF1",
"/. c #EEF0F4",
"(. c #F1F3F6",
"). c #F6F7F9",
"_. c #F7F8FA",
"`. c #FCFDFD",
/* pixels */
"                                                                                                  ",
"                                                                                                  ",
"                                                                                                  ",
"                                                                                                  ",
"                                                                      G.~.                        ",
"                                                                    7.G.~.`.                      ",
"                                                                    5.N.!.`.`.                    ",
"                                                                  4.t.N.U.^.`.`.                  ",
"                                      y u i d f ' ] ] ] ]         7.b.J.L.E.^.`.                  ",
"                                  y y y i f k j ' ] ] ] ] ]     >.t.M.L.L.Y.^.`.                  ",
"                                y u d f k j ' ] ] ] ] ] ] ] } #.5.z.B.L.L.Y.^.`.                  ",
"                              y y d k l ] ] ' [ j j [ j [ ] } #.r.B.K.L.L.Y.Q.).`.                ",
"                            y y i k ' ] ] [ g 8 8 8 8 8 w S ..:.p.J.L.L.L.I.R.^.`.                ",
"                          y y d k ' ] ] [ p 7 $ o o o o % e L >.r.C.L.L.L.L.L.Q.).                ",
"                        y y y d l ] ] [ p 7 O . . . . . $ t P @.e.B.L.L.L.L.I.W._.                ",
"                        y y i k ' ] ] g 7 $ . . . . . . 1 H Q @.1.  L.L.L.I.I.E.).`.              ",
"                      y y y f l ' ] g 7 O . X = > 0 1 @ r P I F {     L.L.L.L.T.Q._.              ",
"                      y y i k ' ] ' a % . X @ f -.-.D t G :.<.-.O.      L.L.L.I.R.(.              ",
"                    y y y y k ' ] ] e $ . X = o.f.h.2.G :.8.g.s.=.        L.L.L.R.(.              ",
"                  i y y y i f ] ] ' e $ . + = +.g.f.2.K >.d.f.s.=.        L.L.I.R.(.`.            ",
"                  y y y y u f ' ] ' a % O + @ b +.&.#.Y >.*.-.%.}           L.I.R.(.`.            ",
"                  y y y y u f l ' ] h w = + + * , 9 H Y J z < i l           L.L.Y.Q.).`.          ",
"                y y i y y y u f ' ] ' g > + + + : x P P r : > e l           L.L.I.R.^.`.          ",
"                y y y y y y y f j ] ] h 0 * + + , H Q J 3 1 q S ]             L.L.Y.^.`.          ",
"                  y y y y y y i k S ] [ s 0 = = r P P n , 9 f '               L.L.Y.^.`.          ",
"                    y y y u y u i k [ ' [ p u t G Q L t 0 y f                   L.Y.^.`.          ",
"                        y y y y u i k { ' l k D @.:.L k u y                     L.Y.^.`.          ",
"                            y y y u d k [ k C L Y K V V u                         Y.^.`.          ",
"                              y y u f l ' S D Y @.H u                             T.^.`.          ",
"                                u f k ' ] } +.:.@.Z u                             T.^.`.          ",
"                                i k ' ] }  .#.#.D f d y                           Y.^.`.          ",
"                              u i d k ' { $.:.Y A k f d                           Y.^.`.          ",
"                            y i y y f A T >.Q G V l l l '                           ).`.          ",
"                          y y i f f C 3.w.j.9.m d l ] ] ]                           `.`.          ",
"                        y y i f j ' { q.S.D.j.R d l ] ] ]                           `.`.          ",
"                      y y d f l } }  .a.F.H.k.E k ' ] ] ]                           `.`.          ",
"                    y u i f l ] ] } ..a.D.H.k.W l ] ] ] ]                           `.`.          ",
"                  y y i f l ] ] ] } #.q.l.l.j.U l ] ] ] ]                                         ",
"                y i y f l ] ] ] }  .#.,.^ ^ R n l ] ] ] ]                                         ",
"              y y y f l ' ] ] ] } #.:.W r # - q l ] ] ] ' f                                       ",
"              y y y k ] ] ] ] ]  .#.Y M 3 # - y l ] ] ] k d                                       ",
"              y y y f l ] ] ] { ..:.H 6 # - < a { ] ] l d u                                       ",
"                y y i f l ' ] o.#.:.G 4 # ; i j [ ' ' k d y                                       ",
"                  i u i d f S $.:.P x - # ; a j f f f d u y                                       ",
"                    y b i N ~ 6.3.M - # # - c C V N i y y y                                       ",
"                        U ) i.x.y.! 4 # # 5 ( _ _ _ ( N c                                         ",
"                          c.M.M.m.          c.n.n.n.c.                                            ",
"                          V.V.V.              V.V.V.                                              ",
"                            Z.                V.                                                  ",
"                                                                                                  "
};
