/* XPM */
static char *gri31638254426[] = {
/* columns rows colors chars-per-pixel */
"55 53 180 2 ",
"   c None",
".  c #030202",
"X  c #0C0B0B",
"o  c #0C0101",
"O  c #150102",
"+  c #130D0E",
"@  c #141313",
"#  c #1E1313",
"$  c #1C1B1B",
"%  c #220305",
"&  c #200A07",
"*  c #2E0509",
"=  c #2E090D",
"-  c #241414",
";  c #2B1515",
":  c #2F1518",
">  c #241D1C",
",  c #2B1C1C",
"<  c #261916",
"1  c #3C1618",
"2  c #361A1A",
"3  c #361916",
"4  c #2F201E",
"5  c #30211E",
"6  c #3B211C",
"7  c #2B2021",
"8  c #392924",
"9  c #4A0C13",
"0  c #550F17",
"q  c #570F18",
"w  c #4B161B",
"e  c #44181C",
"r  c #5F121B",
"t  c #57191F",
"y  c #58161B",
"u  c #63131D",
"i  c #45251E",
"p  c #4C2219",
"a  c #4C1921",
"s  c #571C27",
"d  c #5B1C27",
"f  c #5D1D28",
"g  c #631A22",
"h  c #6D1B25",
"j  c #641C28",
"k  c #6C1D28",
"l  c #711722",
"z  c #741B25",
"x  c #791B25",
"c  c #741D29",
"v  c #7D1D29",
"b  c #4A2922",
"n  c #4D2420",
"m  c #5D2124",
"M  c #532C24",
"N  c #59252B",
"B  c #5A2E29",
"V  c #44382F",
"C  c #5C332B",
"Z  c #51342E",
"A  c #5E2B32",
"S  c #563B32",
"D  c #5B353A",
"F  c #632326",
"G  c #6C242A",
"H  c #6A2E2A",
"J  c #632429",
"K  c #742129",
"L  c #7C2C2D",
"P  c #782A2B",
"I  c #63342A",
"U  c #6A362A",
"Y  c #6C392C",
"T  c #683527",
"R  c #73342D",
"E  c #7A332D",
"W  c #733B2D",
"Q  c #7A3C2E",
"!  c #722E31",
"~  c #603F36",
"^  c #6A3E36",
"/  c #7C3E31",
"(  c #6A4037",
")  c #7B4132",
"_  c #794838",
"`  c #524848",
"'  c #584143",
"]  c #6A4247",
"[  c #664545",
"{  c #776A67",
"}  c #797777",
"|  c #7C7B7B",
" . c #841E2A",
".. c #891E2B",
"X. c #82242B",
"o. c #89232C",
"O. c #842C2D",
"+. c #892F2F",
"@. c #872E32",
"#. c #932B33",
"$. c #823730",
"%. c #8B3333",
"&. c #843C32",
"*. c #8A3C33",
"=. c #8A3A3E",
"-. c #963539",
";. c #913B37",
":. c #A42F39",
">. c #A3373C",
",. c #834133",
"<. c #894134",
"1. c #86493D",
"2. c #904438",
"3. c #9E423B",
"4. c #AC3D41",
"5. c #B03D42",
"6. c #8D5344",
"7. c #8E564C",
"8. c #815A53",
"9. c #925E54",
"0. c #92575B",
"q. c #AA4A41",
"w. c #98664F",
"e. c #826953",
"r. c #97745B",
"t. c #946564",
"y. c #956968",
"u. c #83726F",
"i. c #83797A",
"p. c #9B797A",
"a. c #B47D64",
"s. c #C94A4C",
"d. c #D1484E",
"f. c #DB4C53",
"g. c #E44F57",
"h. c #AA896C",
"j. c #AF8E70",
"k. c #BA8F72",
"l. c #B49374",
"z. c #C29777",
"x. c #A07E89",
"c. c #948B8C",
"v. c #9C8E8C",
"b. c #A08588",
"n. c #A69899",
"m. c #B29997",
"M. c #B9A19D",
"N. c #AA9AA1",
"B. c #A2A1A1",
"V. c #AEA8AC",
"C. c #B0AFAF",
"Z. c #B5AEB9",
"A. c #B2A7B2",
"S. c #B3B3B3",
"D. c #B6B2BC",
"F. c #E1B58F",
"G. c #E4B790",
"H. c #E9BD95",
"J. c #E5BC94",
"K. c #EEC39A",
"L. c #C1C5D2",
"P. c #C7CFDC",
"I. c #C8CFDD",
"U. c #C4CAD7",
"Y. c #C9D1DE",
"T. c #D0D0D7",
"R. c #CDD4E0",
"E. c #D0D6E2",
"W. c #D4DAE5",
"Q. c #D8DEE7",
"!. c #D9DEE8",
"~. c #DEE2EA",
"^. c #ECE7E6",
"/. c #E2E6ED",
"(. c #E5E9EF",
"). c #E4E1E2",
"_. c #ECEEF3",
"`. c #F1F3F6",
"'. c #F5F6F8",
"]. c #FBFCFD",
/* pixels */
"                                                                                                              ",
"                                                                                                              ",
"                                                                                                              ",
"                                                                                                              ",
"                                                                                                              ",
"                                                                            M.^.                              ",
"                                                                            m.^.].                            ",
"                                                                          7.m.).].].                          ",
"                                                                        1.9.n.T._.].].                        ",
"                                            s d d f f j v ......        7.b.D.U.!.`.].                        ",
"                                          s d f k c k v  .........      9.N.L.I.R.(.'.                        ",
"                                      s s j j k v  . . .............*.7.p.Z.U.Y.Y./.].                        ",
"                                    s s f z v  ..... . . .v v  .X.o.%.t.V.L.P.P.Y.~.'.].                      ",
"                                s s s j z  ....... .x u 0 0 0 r x +.<.y.A.P.P.P.Y.E._.'.                      ",
"                                s s j c  ..... .l u q * O O O * y E &.t.Z.P.I.P.I.Y.~.'.                      ",
"                              s s s j  ..... .l 9 * O o . . . & p W &.0.A.U.I.I.I.Y.W.'.].                    ",
"                            f s s j k  . . .l 9 O o . . . . . 3 T ) &.=.x.U.I.I.I.P.W.`.].                    ",
"                          s s s f k v .. .l 9 % . X = 1 e : # i W / P X.      Y.I.I.R.~.'.].                  ",
"                          s s s f c  ... .u * . X # G >.>.%.p I ,.3.:.#.        P.P.P.E.`.].                  ",
"                        s s s s f c .... .r % . X ; %.f.g.>.I ,.q.d.d.:.        P.P.P.E._.].                  ",
"                      s s s s s j c .... .u % . + < %.d.g.4.R 2.q.g.d.:.        P.P.P.E._.].                  ",
"                    s s s s s s f c  ... .u = + @ # m %.-.*./ <.;.-.#.o.          R.P.R._.].].                ",
"                  s s f s s s s d k c .. .x q ; @ @ # ; 6 T ) T b 2 t x             P.R.~.`.].                ",
"                    s s s s s s s d k  ... .h 1 @ @ @ < b W W i - 1 g  .            P.Y.R.(.].                ",
"                      s s s s s s d k v  ...x w - @ @ 6 Y ) Y 6 : d v ..            I.I.R./.].                ",
"                          s s s s d f k  . . .h w : ; i W W M 2 e h  .                I.Y./.'.                ",
"                              s s s s j k v .. .k g F U ) E F w s j                   I.Y./.'.                ",
"                                s s s s f k v  .v v L ,.&.E G f s                     I.Y./.].                ",
"                                      s d j c v c G R &.Y J j s                         R./.'.                ",
"                                      s f k  . .X.E &.,.H s                             R./.].                ",
"                                      f k  . ...o.%.<.$.G s                             R./.].                ",
"                                    s j k  ...o.%.&.&.L K j f                           R./.].                ",
"                                  s s d j c  .X.*.,.W G c c k                           R.(.].                ",
"                              s s s d d f j ! ,.6._ B j v  . . .                          '.].                ",
"                            s s s s j c c P 9.k.z.r.Z f v  .....                            ].                ",
"                          s s s d j c  . .%.a.F.H.l.~ k  .......                            ].                ",
"                        f s s f j x X...o.+.h.J.K.l.( x o.......                            ].                ",
"                    s s s s s j x  .....o.;.a.F.H.j.^  .........                            ].                ",
"                  s s s s f j c  .......o.;.w.h.h.{ I X....... .c                                             ",
"                s s s s f j c  .......o.+.&._ S V 8 t K .... .x j                                             ",
"                s s s s f k  ....... .X.&.,.I 5 $ < s v ....v j f s                                           ",
"                  s s s f c  ..... .K H Q W b 4 $ , s v .. .v j s s                                           ",
"                    s s f j v  .X.K H W ) T 4 $ > s c  . .v k f s s                                           ",
"                      f s f j c K N C Q W M 4 $ , g v v v k f s s                                             ",
"                            f A ' ` [ Q Z 4 $ $ , d c j f d d s                                               ",
"                                } | u.{ S 4 $ $ , D ] ] ] ~ f                                                 ",
"                                B.B.n.v.{         i.c.c.c.i.                                                  ",
"                                S.S.S.C.          C.C.C.S.                                                    ",
"                                D.S.S.              S.S.                                                      ",
"                                                                                                              ",
"                                                                                                              ",
"                                                                                                              ",
"                                                                                                              "
};
