/* XPM */
static char *gri41638254426[] = {
/* columns rows colors chars-per-pixel */
"51 48 187 2 ",
"   c None",
".  c #030202",
"X  c #0B0202",
"o  c #0C0B0B",
"O  c #140B0A",
"+  c #190B0B",
"@  c #140607",
"#  c #131313",
"$  c #1B1414",
"%  c #1C1B1B",
"&  c #240306",
"*  c #2F0509",
"=  c #2D0B0A",
"-  c #31050A",
";  c #38070C",
":  c #350F12",
">  c #241414",
",  c #2D1416",
"<  c #281816",
"1  c #241C1C",
"2  c #2E1B18",
"3  c #351517",
"4  c #301B1C",
"5  c #3B1B1D",
"6  c #3D1C14",
"7  c #2F201E",
"8  c #24211F",
"9  c #362825",
"0  c #3F3230",
"q  c #420910",
"w  c #4E0D15",
"e  c #560F18",
"r  c #530E16",
"t  c #441B1E",
"y  c #491B1D",
"u  c #49171E",
"i  c #54171D",
"p  c #5C131B",
"a  c #5D181F",
"s  c #44251E",
"d  c #49241F",
"f  c #4E281E",
"g  c #58231D",
"h  c #571C27",
"j  c #5A1C27",
"k  c #5D1D28",
"l  c #6C1620",
"z  c #651C24",
"x  c #6C1D25",
"c  c #631C28",
"v  c #6B1D28",
"b  c #721722",
"n  c #741B25",
"m  c #7B1B26",
"M  c #731D29",
"N  c #7C1D2A",
"B  c #492826",
"V  c #5C2224",
"C  c #522C23",
"Z  c #5D212A",
"A  c #512829",
"S  c #582A28",
"D  c #5C3228",
"F  c #453535",
"G  c #642326",
"H  c #642927",
"J  c #642229",
"K  c #6C232A",
"L  c #642C2B",
"P  c #6B2A2B",
"I  c #742126",
"U  c #752129",
"Y  c #7A212B",
"T  c #752C2D",
"R  c #7C2C2C",
"E  c #613227",
"W  c #64362A",
"Q  c #6A352B",
"!  c #6B382A",
"~  c #7A342E",
"^  c #733B2E",
"/  c #793D2E",
"(  c #74352F",
")  c #6A3D33",
"_  c #773F30",
"`  c #7B3D31",
"'  c #7D3730",
"]  c #574236",
"[  c #6F4B3C",
"{  c #7C4131",
"}  c #724035",
"|  c #5D5D5D",
" . c #654247",
".. c #76534C",
"X. c #675859",
"o. c #725A5D",
"O. c #78634E",
"+. c #785F62",
"@. c #766062",
"#. c #841E2A",
"$. c #891E2B",
"%. c #89232C",
"&. c #882B2E",
"*. c #85252C",
"=. c #89302F",
"-. c #882D35",
";. c #932631",
":. c #9A2833",
">. c #803330",
",. c #8C3235",
"<. c #853C32",
"1. c #893A33",
"2. c #8A3D3A",
"3. c #973739",
"4. c #A6373D",
"5. c #844133",
"6. c #8B423A",
"7. c #8C4B3D",
"8. c #9C463C",
"9. c #95443F",
"0. c #A2483E",
"q. c #B53C43",
"w. c #954B41",
"e. c #885648",
"r. c #905C54",
"t. c #B74345",
"y. c #BD4147",
"u. c #896D56",
"i. c #826658",
"p. c #97685F",
"a. c #996A59",
"s. c #945B63",
"d. c #976B65",
"f. c #977960",
"g. c #97706F",
"h. c #9C797D",
"j. c #907D7A",
"k. c #C9444B",
"l. c #C64B4B",
"z. c #DF4E54",
"x. c #D24950",
"c. c #E85058",
"v. c #B9896D",
"b. c #CA9879",
"n. c #8D8B8B",
"m. c #9F8084",
"M. c #9D9999",
"N. c #A08588",
"B. c #A19897",
"V. c #A09A9B",
"C. c #A39FA0",
"Z. c #AAAAAA",
"A. c #A9A3A5",
"S. c #BAABAE",
"D. c #B1A8B0",
"F. c #B6AFBB",
"G. c #B4B4B4",
"H. c #B8B2BD",
"J. c #C9A582",
"K. c #D6AF89",
"L. c #D5AB87",
"P. c #E2B992",
"I. c #C8B8B7",
"U. c #CBBBB9",
"Y. c #EFC39A",
"T. c #F0C39A",
"R. c #BDBDC9",
"E. c #BCBCC7",
"W. c #C0C2CF",
"Q. c #C7CFDD",
"!. c #C3C8D5",
"~. c #C9D1DE",
"^. c #D1D5DF",
"/. c #CFD5E2",
"(. c #D0D6E2",
"). c #D3DAE4",
"_. c #D8DDE7",
"`. c #DEE3EA",
"'. c #E2E5EB",
"]. c #E5E8EF",
"[. c #EBEDF2",
"{. c #E7EAF0",
"}. c #EEF0F4",
"|. c #F3F3F5",
" X c #F7F8FA",
".X c #FDFDFD",
"XX c #F4F6F8",
/* pixels */
"                                                                                                      ",
"                                                                                                      ",
"                                                                                                      ",
"                                                                        d.U.|.                        ",
"                                                                        p.I.|..X                      ",
"                                                                      7.p.S.'. X.X                    ",
"                                                                      r.N.F.^.{. X.X                  ",
"                                        h h k c v v M #.$.$.$.        d.D.!.~.).|..X                  ",
"                                    h h k k v N N #.#.#.$.$.$.$.    e.h.H.Q.Q.(.[..X                  ",
"                                  h h k M m N #.#.#.$.#.#.$.$.$.%.6.g.D.W.Q.Q.(.[..X                  ",
"                                h h c M #.#.$.$.$.m l l l l b #.&.6.m.R.!.Q.~.~.`.XX.X                ",
"                              h h c v #.$.$.#.m n p ; - - - w I <.7.m.R.Q.Q.Q.~./.]. X                ",
"                            h h k M #.#.$.#.b r q * X . . . = g ~ 6.h.R.Q.Q.Q.Q.~.]. X                ",
"                          h h h k M $.$.#.b w & . . . . . X 6 W { 1.s.H.Q.Q.Q.Q.~.'..X.X              ",
"                        h h h k v N $.#.l w & . X O + + O O f / / R -.    Q.Q.Q.Q._.[..X              ",
"                        h h h c m $.#.m p & X X > V R R d 6 D <.1.&.%.      Q.Q.Q.~.`.XX              ",
"                      h h h h c N $.$.m w X X o t 4.x.k.,.E 5.0.k.q.:.        Q.Q.~._.|.              ",
"                      h h h h c N $.$.m w X o # t q.c.z.3.! 8.l.z.k.:.        Q.Q.~._.XX              ",
"                    h h h h h c N $.$.m w @ o # 5 ,.y.t.1./ 8.t.t.4.;.        Q.Q.Q._.XX.X            ",
"                    h h h h h c M #.$.#.p : $ # $ t k H ` { ^ L G I #.          Q.Q.).[..X.X          ",
"                  h h h h h h k c N $.#.m i > # # # > d ^ ! d < 3 l #.          Q.Q.~._.|..X          ",
"                  h h h h h h h k M $.$.#.z , # # # s Q ` W 2 3 j m #.          Q.Q.~.(.[..X          ",
"                    h h h h h h k v m $.#.b i , $ $ C / ^ C 2 u n #.              Q.Q./.[..X          ",
"                        h h h h h k v N #.#.n i u d W / Q y 5 h M                   Q./.[..X          ",
"                              h h h k v N $.#.n I ~ { <.( z h h                     Q./.[..X          ",
"                                  h h k v N N U U ~ <.( K z h                       Q.(.[..X          ",
"                                  h h k v N #.U ( <.` L k h                           ).[..X          ",
"                                  h k v N $.$.*.<.5.~ L h                             (.{..X          ",
"                                  h v m #.$.%.&.1.1.R c h                             ).[..X          ",
"                              h h h c v N %.&.1.5.' U M v k                           (.[..X          ",
"                            h h h h h c M Y >.5.{ L K N m m                           _.XX.X          ",
"                          h h h h c c c P e.a.a.[ A v N *.#.$.                          .X.X          ",
"                      h j h h h k M N N 2.v.K.L.u.A K #.$.$.$.                          .X.X          ",
"                  h h h h h h c n #.$.$.9.b.T.P.f.L m #.$.$.$.                          .X.X          ",
"                h h h h h j c v #.#.$.%.9.b.T.P.f.P *.$.$.$.%.                          .X.X          ",
"              h h h h h j k M #.$.$.#.R 7.v.K.J.i.P #.$.$.$.$.                                        ",
"              j h h h j k M N $.$.#.I P { e.i.O.] G #.$.$.#.N z                                       ",
"              j h h h k M #.$.$.%.n H ^ { W 9 8 4 x #.$.$.N v c                                       ",
"              h h h h c N $.$.$.#.z D { } C 8 % 4 z #.$.#.n c h                                       ",
"                h h h c M #.N Y Y H W { D 7 % 1 y K $.$.#.v h h                                       ",
"                  h h j c c J A A W { } C 1 % 5 z N $.N M c h h                                       ",
"                    h h h h 0 0 0 ) { D 9 % % 5 v N M c k h h                                         ",
"                      h h     | X...} B 1 % % 5 J K Z Z j h                                           ",
"                              n.n.j.i.F % % % 0 X.+.+.+. .                                            ",
"                              Z.Z.A.B.          B.C.C.V.                                              ",
"                              G.G.G.            G.G.G.                                                ",
"                              G.G.                G.                                                  ",
"                                                                                                      "
};
