/* XPM */
static char *gri51638254426[] = {
/* columns rows colors chars-per-pixel */
"50 48 171 2 ",
"   c None",
".  c #030202",
"X  c #0B0A0A",
"o  c #1C0204",
"O  c #120E0D",
"+  c #160504",
"@  c #131313",
"#  c #1F1515",
"$  c #1B1B1B",
"%  c #220305",
"&  c #27080B",
"*  c #3C080E",
"=  c #251213",
"-  c #291616",
";  c #231C1C",
":  c #2C1F1E",
">  c #351416",
",  c #331B1B",
"<  c #3D1B1B",
"1  c #381B18",
"2  c #26211F",
"3  c #30211E",
"4  c #3B221D",
"5  c #3E2923",
"6  c #3E3838",
"7  c #4B0C14",
"8  c #401F15",
"9  c #421619",
"0  c #441718",
"q  c #5C111A",
"w  c #5C191F",
"e  c #61131C",
"r  c #67171F",
"t  c #43221D",
"y  c #4A281F",
"u  c #4D1C21",
"i  c #571C27",
"p  c #5A1C27",
"a  c #5D1D28",
"s  c #6F1721",
"d  c #661B23",
"f  c #6B1B23",
"g  c #621C28",
"h  c #6C1D28",
"j  c #711722",
"k  c #741C26",
"l  c #721D29",
"z  c #7D1D29",
"x  c #7F1C27",
"c  c #4B2720",
"v  c #4B2820",
"b  c #482A29",
"n  c #452922",
"m  c #542B25",
"M  c #562928",
"N  c #5C262B",
"B  c #5C3329",
"V  c #5D3126",
"C  c #5C2C33",
"Z  c #4D3B3B",
"A  c #5A3938",
"S  c #692627",
"D  c #602F26",
"F  c #62242B",
"G  c #6C242A",
"H  c #6A2B2C",
"J  c #652828",
"K  c #73222A",
"L  c #7B212A",
"P  c #742C2C",
"I  c #7B2D2D",
"U  c #64342B",
"Y  c #6A352B",
"T  c #6D3A2C",
"R  c #673427",
"E  c #72342C",
"W  c #78362F",
"Q  c #733C2D",
"!  c #613037",
"~  c #6A3433",
"^  c #763B30",
"/  c #7C3D31",
"(  c #5E4A3C",
")  c #774133",
"_  c #7C4031",
"`  c #604548",
"'  c #7F4C40",
"]  c #7C5442",
"[  c #735B5E",
"{  c #7D6751",
"}  c #6E6A6A",
"|  c #786360",
" . c #746869",
".. c #841E2A",
"X. c #891E2B",
"o. c #84232B",
"O. c #8A222C",
"+. c #83322E",
"@. c #8D2D32",
"#. c #972F36",
"$. c #992933",
"%. c #8D3434",
"&. c #863E33",
"*. c #8C3A35",
"=. c #823530",
"-. c #9B363B",
";. c #923139",
":. c #A83E3D",
">. c #824133",
",. c #89433A",
"<. c #8B4B3C",
"1. c #944539",
"2. c #C33F47",
"3. c #934740",
"4. c #885548",
"5. c #905C54",
"6. c #AA4941",
"7. c #846852",
"8. c #95665F",
"9. c #A56956",
"0. c #A47058",
"q. c #B1745F",
"w. c #945B63",
"e. c #9A6C63",
"r. c #966D6B",
"t. c #926A62",
"y. c #9B7C62",
"u. c #87797A",
"i. c #847577",
"p. c #9C797C",
"a. c #AD7C61",
"s. c #C7494B",
"d. c #DD4C53",
"f. c #AA8A6D",
"g. c #BB846A",
"h. c #9E8083",
"j. c #948482",
"k. c #989797",
"l. c #A18689",
"z. c #A69B9A",
"x. c #ACABAB",
"c. c #ABA4A8",
"v. c #B0ABAB",
"b. c #B7ACB2",
"n. c #B3B3B3",
"m. c #B7B2BD",
"M. c #B9B5BE",
"N. c #D2AB87",
"B. c #D8AD88",
"V. c #D9AA86",
"C. c #EBBE96",
"Z. c #CDBEBC",
"A. c #EAC097",
"S. c #BDBDC9",
"D. c #C0C3CF",
"F. c #C7CFDD",
"G. c #C8CFDD",
"H. c #C3C9D6",
"J. c #C9D0DE",
"K. c #CCD3E0",
"L. c #D1D7E2",
"P. c #D4DAE5",
"I. c #DCE1E9",
"U. c #E2E5EB",
"Y. c #E6E9EF",
"T. c #E9ECF1",
"R. c #EFF1F5",
"E. c #F2F3F5",
"W. c #F5F7F9",
"Q. c #F7F8FA",
"!. c #FCFDFD",
/* pixels */
"                                                                                                    ",
"                                                                                                    ",
"                                                                                                    ",
"                                                                    e.Z.Q.                          ",
"                                                                    e.Z.W.!.                        ",
"                                      i i a a l X.X.X.X.          <.8.b.U.Q.!.                      ",
"                                    i i a h l l X.X.X.X.X.        5.l.M.L.T.Q.                      ",
"                                i i g g h z X.X.X.X.X.X.X.X.      r.b.H.J.P.E.                      ",
"                              i p a k x ..........x ..x ....X.%.4.p.M.G.G.L.R.!.                    ",
"                            i i a l ..X.X...s q q q q q e ..o.*.r.c.D.G.G.L.T.!.                    ",
"                          i i g l ..X.X...r 7 % + + + o * r +.&.h.S.F.F.G.K.U.W.!.                  ",
"                        i i p h ....X...j 7 % . . . . . + 0 E ,.h.S.F.G.G.G.L.T.!.                  ",
"                        i i p h ..X...j 7 % . . . . . . + 1 Q >.p.S.F.F.F.F.J.T.Q.                  ",
"                      i i i h z ....j 7 % . X = > > = O 4 R >.*.w.m.F.F.F.G.K.T.!.!.                ",
"                      i i a l X.X...e % . X = G :.#.S = v >.6.:.;.    F.F.F.K.P.R.!.                ",
"                    i i i a l X.X...e % . X > -.d.d.:.t R 1.s.s.$.      J.F.F.K.U.Q.                ",
"                  i i i i a l X.X...q % . @ , -.d.d.-.V Q 1.s.s.$.        G.F.K.P.Q.                ",
"                  i i i i i l X.X...e & O @ - G -.-.P U _ E %.#.O.        G.F.G.I.Q.                ",
"                  i i i i i h z X...j 7 = @ @ - 1 8 M Q Q c 1 d ..        F.F.F.I.Q.!.              ",
"                i i i i i i a h X.X...f > @ @ @ @ , Y _ T t 9 f ..          F.K.P.E.!.              ",
"                i i i i i i i h z X.X.k 9 # @ @ # t T Q c 9 d z X.          F.F.K.I.E.              ",
"                  i i i i i i g h ..X.x d < = = 4 R / Y < u k X.            F.F.J.P.E.              ",
"                    i i i i i i g l ..X.x d q a S _ >.E u i l                 F.J.P.R.              ",
"                        i i i i i g h ....x l L +.>.=.K i i                   F.J.P.R.              ",
"                            i i i i g l z l h P >.>.E g i                       F.P.R.              ",
"                              i i a h z ..z G E >.W H                           F.P.R.              ",
"                                a h z X.X.o.I / >.H N                             P.E.              ",
"                                g l ..X.X.o.=.>.W H g i                           P.E.              ",
"                              i p g z ..o.P / / P L l g                           P.E.              ",
"                        i i i i p a g h K W &.^ G z z z                           P.E.              ",
"                      i i i i g h l l l P >._ U G z X.X.X.                        I.W.              ",
"                    i i i i g h ..X.o.3.9.0.] M h ..X.X.X.                          !.              ",
"                  i i i i a l ..X.X.@.q.V.B.y.U z X.X.X.X.                          !.              ",
"              i i i i i g l z X.X.X.%.a.C.A.f.~ ..X.X.X.X.                          !.              ",
"            i i i i a g l z X.X.X.O.*.g.C.C.f.~ ..X.X.X.X.                          !.              ",
"          i i i i i g h ..X.X.X.O.o.>.a.V.B.y.U ..X.X.X.X.                                          ",
"          i i i p p h z X.X.X.X.L S Q 4.7.{ ( J ..X.X.X.z g                                         ",
"            i i i p l ..X.X...z S Y _ T 4 2 : a z X.X.z h a                                         ",
"              i i p h z X.X.L N m ) ) B 3 : u h X.X.X.z g p                                         ",
"                i i a h l z F b B ) U 4 $ , d ..z L z l p i                                         ",
"                    i a F A Z A ) ) B 2 $ , g l h h g g i i                                         ",
"                        ` } } | ' T n ; $ : N ~ C C C i i                                           ",
"                          k.k.j.5.B : $ $ 6  .u.u.u.[ C                                             ",
"                          v.n.z.t.          c.x.x.c.                                                ",
"                          n.n.v.            n.n.n.                                                  ",
"                                                                                                    ",
"                                                                                                    ",
"                                                                                                    "
};
