/* XPM */
static char *pa11638188114[] = {
/* columns rows colors chars-per-pixel */
"52 64 199 2 ",
"   c None",
".  c #010100",
"X  c #080704",
"o  c #0A090B",
"O  c #0A0805",
"+  c #120C06",
"@  c #1B130B",
"#  c #1A1A1C",
"$  c #161519",
"%  c #241B12",
"&  c #281D12",
"*  c #231A0F",
"=  c #2C2115",
"-  c #2B2219",
";  c #3A2C1D",
":  c #332719",
">  c #1D1C20",
",  c #2A292D",
"<  c #282527",
"1  c #3E3020",
"2  c #2D2C31",
"3  c #383637",
"4  c #433423",
"5  c #4A3927",
"6  c #453B2B",
"7  c #4E3D29",
"8  c #453827",
"9  c #523F2B",
"0  c #54412D",
"q  c #5A432E",
"w  c #5B4631",
"e  c #5F4B34",
"r  c #504B38",
"t  c #624C35",
"y  c #654C35",
"u  c #66523A",
"i  c #6C553B",
"p  c #71593E",
"a  c #71563C",
"s  c #3E3C43",
"d  c #45444A",
"f  c #4C4B4C",
"g  c #49474E",
"h  c #4D4B53",
"j  c #545354",
"k  c #565559",
"l  c #585759",
"z  c #5B5A5D",
"x  c #5C5855",
"c  c #554E48",
"v  c #755C41",
"b  c #795F43",
"n  c #745D49",
"m  c #635950",
"M  c #7D6245",
"N  c #7B674C",
"B  c #686156",
"V  c #766957",
"C  c #5E5D60",
"Z  c #605F63",
"A  c #626264",
"S  c #6B6A6D",
"D  c #686668",
"F  c #716C6E",
"G  c #7E7465",
"H  c #6F6F72",
"J  c #716E71",
"K  c #737276",
"L  c #7B7574",
"P  c #76757A",
"I  c #7B7B7D",
"U  c #806547",
"Y  c #826748",
"T  c #83694B",
"R  c #856D54",
"E  c #86755B",
"W  c #927A5C",
"Q  c #867769",
"!  c #827975",
"~  c #8A7D72",
"^  c #817B7A",
"/  c #9B825D",
"(  c #92896C",
")  c #99866A",
"_  c #8E8074",
"`  c #958473",
"'  c #94877C",
"]  c #998B7D",
"[  c #988878",
"{  c #9C9378",
"}  c #A38B6C",
"|  c #A48C6A",
" . c #AC916C",
".. c #A5906A",
"X. c #B59669",
"o. c #BC9C6B",
"O. c #BB9966",
"+. c #AE9571",
"@. c #AA9679",
"#. c #B39A75",
"$. c #B39978",
"%. c #B89C71",
"&. c #BEA06F",
"*. c #B8A278",
"=. c #ACA27C",
"-. c #C09F6A",
";. c #C2A26D",
":. c #C1A574",
">. c #C6A976",
",. c #C6AC7C",
"<. c #C8AD7B",
"1. c #CBB17E",
"2. c #7F7E82",
"3. c #807F83",
"4. c #838285",
"5. c #878689",
"6. c #8B8A8C",
"7. c #8B8686",
"8. c #938E8B",
"9. c #8F8F91",
"0. c #908F91",
"q. c #939295",
"w. c #9B9694",
"e. c #969598",
"r. c #989799",
"t. c #9B9B9C",
"y. c #98928F",
"u. c #AB9983",
"i. c #A2978C",
"p. c #A79987",
"a. c #B29F81",
"s. c #A59D94",
"d. c #A09E9A",
"f. c #B9AA87",
"g. c #A3A09E",
"h. c #AAA49B",
"j. c #AEA99B",
"k. c #ADA596",
"l. c #BAB299",
"z. c #9F9FA1",
"x. c #A19FA1",
"c. c #A3A2A4",
"v. c #A6A6A8",
"b. c #AAA9A9",
"n. c #B0ACA2",
"m. c #B2B0AF",
"M. c #B4B4B5",
"N. c #BCBCBC",
"B. c #B9B7B5",
"V. c #C3AF83",
"C. c #CCB483",
"Z. c #CDBB8D",
"A. c #C9B58A",
"S. c #D3BD8C",
"D. c #C4BB9F",
"F. c #C6B696",
"G. c #D1BF9E",
"H. c #CDBAA2",
"J. c #D4C08F",
"K. c #CEC29A",
"L. c #D5C392",
"P. c #D8C795",
"I. c #DDCE9D",
"U. c #D6C698",
"Y. c #DED09F",
"T. c #E0CE9C",
"R. c #D7C9A5",
"E. c #DED1A1",
"W. c #C1C0BF",
"Q. c #D6C9B9",
"!. c #DFD0B7",
"~. c #CDC2AA",
"^. c #E2D3A1",
"/. c #E8D9AC",
"(. c #E5D8B6",
"). c #BFBFC1",
"_. c #C3C3C4",
"`. c #CCCCCC",
"'. c #DCD6CB",
"]. c #CFCFD0",
"[. c #D4D4D4",
"{. c #DCDCDC",
"}. c #D9D7D5",
"|. c #D4CBC2",
" X c #E1DEDB",
".X c #E8DEC5",
"XX c #F2E8CB",
"oX c #EBE4DC",
"OX c #E6E1DB",
"+X c #F2ECDA",
"@X c #DFDFE0",
"#X c #E3E3E4",
"$X c #EAEAEA",
"%X c #F1EEE8",
"&X c #F3F1EE",
"*X c #F8F5E9",
"=X c #F5F5F5",
"-X c #FCFCFC",
";X c #FAF9F5",
/* pixels */
"                                            . .     . . . . . .                                         ",
"                                          . . . . . . . . . . . .                                       ",
"                                          + * % & & & @ + . . . .                                       ",
"                                        @ = 4 5 7 9 5 4 = + . . . .                                     ",
"                                        : 5 t a p p i t 4 & + . . .                                     ",
"                                      ; 5 t a Y U U U p t 5 = + . . .                                   ",
"                                      5 t p U Y T T U M p t 4 * @ @ +                                   ",
"                                      5 t i p U U U M b b u 7 : 1 4 :                                   ",
"                                      4 9 w y a M M i u v i 0 5 w t 0                                   ",
"                                        9 q q y p p i u v i 0 0 u b y                                   ",
"                                        a y t y p M b M M i 0 0 u p w                                   ",
"                                        M a t 9 y p M T M p 0 5 q e 7                                   ",
"                                        U p q 5 q u b Y U i 9 ; 1 8                                     ",
"                                        T b u 0 q u M U b y 5 & = -                                     ",
"                                        R T M M N N T N n m c j Z                                       ",
"                                      h.` Q W / | ) ) Q G ^ y.v.N.                                      ",
"                                    ].N.s.[ } #.f.f.i.8.y.b._.{.#X{.).                                  ",
"                                    `._.M.s.p.$.f.l.h.c.B.].#X&X$X].M.z.                                ",
"                                  v._.`._.B.h.s.v.b.b.N.[.$X=X$X[.N.c.t.r.r.                            ",
"                                3.e.M._.]._.B.m.).H.`.[.$X=X=X#X_.c.r.r.r.g.                            ",
"                                ^ 7.r.M.`.].`.`.[.@X#X$X;X-X-X#X).z.e.e.g.j.K.                          ",
"                              | [ ~ 7.v._.[.}.}.[.@X$X-X-X-X=X#X).z.r.g.j.l.R.E.                        ",
"                              X. .} 7.d._.[.[._.N._.#X-X-X-X=X@X).z.r.h.l.K.R.E.                        ",
"                            -.O.O.} ] d.).`._.v.9.b.{.;X-X-X$X[.M.t.t.k.F.U.Y.^.                        ",
"                            ;.-.O. .7.s.).).c.I H c.}.=X-X$X[.N.c.e.w.s.V.S.U.E.                        ",
"                            <.>.;. .8.x.N.M.6.z z t.}.;X-X#X_.v.t.r.i.u.*.C.P.I.^.                      ",
"                            J.C.>.X.[ s.N.M.4.k D c.{.=X-X#X).z.r.w.u.$.%.,.L.I.^.                      ",
"                          S.P.J.V.X.8.x.N.M.6.K 9.).#X-X-X#X).z.r.i.p.#.%.>.S.P.I.^.                    ",
"                          C.P.J.,.+.] x.H.).e.e.).@X=X-X-X#X).c.e.w.i.u.%.:.<.S.P.Y.                    ",
"                        ;.C.J.J.V.+.] d.).).m.).{.=X-X-X-X#X).z.e.q.w.p.$.-.;.<.P.Y.                    ",
"                        ;.1.J.L.<.+.] x.).`.`.[.$X-X-X-X-X#X).z.q.r.e.i.$.o.;.<.L.Y.                    ",
"                        ;.1.J.J.<.+.] x.).[.@X@X=X-X-X-X-X#X).z.e.e.e.i.$.o.;.1.L.Y.                    ",
"                        :.<.S.S.,...[ d.N.].}.#X$X=X=X=X&X@XN.t.q.q.0.w.u.o.o.1.L.Y.                    ",
"                        -.<.C.A.,.| _ 6.v.M.N._.].}.{.{.[._.c.6.4.3.4.4.    ;.1.L.Y.                    ",
"                        -.-.>.>.&./ B D I 4.5.9.e.z.z.z.z.9.I H S S H S     :.1.L.I.                    ",
"                         .X.o.o.    j f f f f j l Z A A C C k z A S S S     ;.1.J.U.=.r O .             ",
"                        ( }  .X.    A z j f f f h j j C C z l A K 2.4.4.    ;.<.S.A.( r O .             ",
"                        ! _ )  .    K P 2.5.5.4.5.6.6.q.e.9.2.I 5.9.9.q.    #.*.V.=.E 1 X               ",
"                        K L ~ _     2.9.b.B.N.N.).N._.`.`._.c.9.9.e.e.e.    ` @.#.| N 8                 ",
"                          P L       2.z.).[.@X#X@X@XOX$X$X{.N.z.q.e.e.e.    ! ~ ( ) N 8                 ",
"                                    4.z._.@X$X=X=X=X=X=X=X#X).z.e.e.9.9.    K L ! Q                     ",
"                                    4.c._.@X$X=X-X-X-X-X-X#X).z.e.9.6.2.D j z D F J                     ",
"                                    3.z._.{.#X$X-X-X-X-X-X#XN.z.9.5.P A g 3 3 h                         ",
"                                    P t.).[.#X$X-X-X-X-X=X#XM.9.2.P C d 2 # > ,                         ",
"                                    D q.N.[.#X$X=X-X-X-X;X{.v.P A C d 2 $ o                             ",
"                                    l 6.N.[.{.#X=X-X-X-X=X}.g.A d s 2 $ o .                             ",
"                                    j 6.N.[.@X$X=X-X-X;X=X{.t.x 2 , > $ o                               ",
"                                    j 6.N.[.{.$X=X;X*X*X*X'.k.V 6 , < ,                                 ",
"                                    j 6.N.[.@X#X=X*X+XXXXX/.F./ i 3 3 s                                 ",
"                                    j 6.N.[.@X$X&X%X.X/././.L.*.E f d h                                 ",
"                                    j 6.N.[.OX#X&XoX!.U.T./.^.Z.( x h h                                 ",
"                                    j 6.N.[.{.$X&XoXQ.A.S.I.^.Z.{ B h h                                 ",
"                                    j 6.N.[.{.$X$XoXQ.C.C.S.E.F.( c g h                                 ",
"                                    j 6.N.[.@X#X$X XQ.H.H.G.K.f.G f d h                                 ",
"                                    k 6.B.[.@X@XOX X'.|.Q.Q.~.{ B d h z                                 ",
"                                    A 6.M.`.[.{. X{.{.}.[.      j C H K                                 ",
"                                    K 9.c.N.`.                  S P 5.9.                                ",
"                                    P 5.t.v.                    P 4.q.g.                                ",
"                                    2.2.9.r.                    P 4.9.r.                                ",
"                                    P 2.9.e.                    P 3.9.e.                                ",
"                                    2.2.6.e.                    2.3.6.e.                                ",
"                                  K P 2.6.e.                  P K 2.6.9.                                ",
"                                  K 2.2.6.q.                  H K 2.6.q.                                ",
"                                K K K 2.6.q.                K H 2.2.6.e.                                "
};
