/* XPM */
static char *pa101639060391[] = {
/* columns rows colors chars-per-pixel */
"44 64 201 2 ",
"   c None",
".  c #010100",
"X  c #120C06",
"o  c #1B130B",
"O  c #241B12",
"+  c #281D12",
"@  c #231A0F",
"#  c #2C2115",
"$  c #2B2219",
"%  c #3A2C1D",
"&  c #332719",
"*  c #3E3020",
"=  c #39383E",
"-  c #343337",
";  c #433423",
":  c #4B3927",
">  c #4E3D29",
",  c #483727",
"<  c #533E2A",
"1  c #54412D",
"2  c #5A442F",
"3  c #5A4731",
"4  c #5F4B34",
"5  c #634C35",
"6  c #694E37",
"7  c #654B35",
"8  c #675138",
"9  c #6C553B",
"0  c #72593F",
"q  c #72573D",
"w  c #3F3E45",
"e  c #414046",
"r  c #46444C",
"t  c #4C4B4C",
"y  c #48464E",
"u  c #4E4C54",
"i  c #504F55",
"p  c #514F58",
"a  c #545355",
"s  c #545259",
"d  c #58575A",
"f  c #5B5A5D",
"g  c #5B5551",
"h  c #59504A",
"j  c #755B40",
"k  c #795E42",
"l  c #745D49",
"z  c #63584F",
"x  c #7D6245",
"c  c #7D664C",
"v  c #65605E",
"b  c #5C5B60",
"n  c #605F65",
"m  c #626264",
"M  c #66656A",
"N  c #6B6A6C",
"B  c #6F6A67",
"V  c #7B716A",
"C  c #6E6E71",
"Z  c #737276",
"A  c #7C7575",
"S  c #76757A",
"D  c #7C7A7B",
"F  c #716A66",
"G  c #826648",
"H  c #84694B",
"J  c #806547",
"K  c #856D54",
"L  c #806D58",
"P  c #85725D",
"I  c #947C5C",
"U  c #8F7F6C",
"Y  c #847464",
"T  c #8B7E73",
"R  c #847B77",
"E  c #9B825D",
"W  c #A5885F",
"Q  c #9E8A6E",
"!  c #96846C",
"~  c #8B827B",
"^  c #958372",
"/  c #94877C",
"(  c #97897C",
")  c #9A8C7C",
"_  c #9D8871",
"`  c #A48A63",
"'  c #A88C65",
"]  c #A38B6D",
"[  c #AB8F6A",
"{  c #AC916B",
"}  c #AE9267",
"|  c #B49565",
" . c #B99765",
".. c #BB9A66",
"X. c #B29469",
"o. c #BC9E6C",
"O. c #A08E79",
"+. c #AA9477",
"@. c #B19974",
"#. c #B49E7C",
"$. c #BEA06E",
"%. c #BAA27A",
"&. c #C09E69",
"*. c #C5AB7B",
"=. c #C4A978",
"-. c #7F7E83",
";. c #807F81",
":. c #848385",
">. c #878689",
",. c #8B8A8C",
"<. c #8B8687",
"1. c #948D89",
"2. c #9E9182",
"3. c #8F8F90",
"4. c #908F91",
"5. c #939294",
"6. c #9A9694",
"7. c #969598",
"8. c #9C9B9C",
"9. c #9C9A97",
"0. c #A39A8B",
"q. c #A79887",
"w. c #B19F85",
"e. c #A59D93",
"r. c #A59F97",
"t. c #A7A08F",
"y. c #BEA983",
"u. c #BDAC8B",
"i. c #B5A685",
"p. c #BFB18C",
"a. c #ABA49B",
"s. c #AFA798",
"d. c #B2AC9B",
"f. c #B8AE96",
"g. c #9F9FA1",
"h. c #A29FA0",
"j. c #A3A2A3",
"k. c #A6A6A8",
"l. c #ACABAA",
"z. c #A8A7A6",
"x. c #B0ACA2",
"c. c #B9B3AC",
"v. c #B5B4B5",
"b. c #B8B6B5",
"n. c #BCBAB5",
"m. c #BCBCBC",
"M. c #C5AE85",
"N. c #C9B182",
"B. c #CEBA8C",
"V. c #CFB987",
"C. c #C4B994",
"Z. c #D0BE91",
"A. c #D0BA89",
"S. c #C0B9A0",
"D. c #C2BFBC",
"F. c #D5C18F",
"G. c #CEC29D",
"H. c #D5C495",
"J. c #D8C696",
"K. c #DCCD9C",
"L. c #D0C39C",
"P. c #CBC2A2",
"I. c #D6CAA8",
"U. c #DED1A1",
"Y. c #CCC2B3",
"T. c #C1C0BE",
"R. c #DACEB6",
"E. c #E1D4A3",
"W. c #E3D6AB",
"Q. c #E7D9AC",
"!. c #E8D8AC",
"~. c #E5DBBB",
"^. c #E1D7B6",
"/. c #EDE1B4",
"(. c #BFBFC1",
"). c #C3C3C4",
"_. c #CCCCCC",
"`. c #C9C6C2",
"'. c #DAD5C6",
"]. c #CFCFD0",
"[. c #D4D4D4",
"{. c #D7D7D8",
"}. c #DBDBDA",
"|. c #DCDAD7",
" X c #D5CEC1",
".X c #E3DED2",
"XX c #E0DEDB",
"oX c #ECE2C2",
"OX c #EAE2CD",
"+X c #E3E1DB",
"@X c #ECE5D3",
"#X c #F1EBD7",
"$X c #DFDFE0",
"%X c #E3E3E3",
"&X c #EBEBEB",
"*X c #ECEAE3",
"=X c #F1ECE1",
"-X c #F5F5F5",
";X c #FDFDFD",
":X c #F8F7F4",
">X c #F8F4E9",
/* pixels */
"                                    . .     . . . . . .                                 ",
"                                  . . . . . . . . . . . .                               ",
"                                  X o @ # + @ o X . . . .                               ",
"                                o # ; > 1 < > * + X . . . .                             ",
"                                & , 4 9 q q q 7 , + X . . .                             ",
"                              % 1 5 q J J J J q 4 , # X . . .                           ",
"                              > 6 q J J H H G J 0 4 * @ o o X                           ",
"                              < 6 q 0 J J J x x x 9 > % * ; &                           ",
"                              < 7 7 6 q 0 J 0 k x 9 1 : 3 4 2                           ",
"                                6 7 7 6 0 x k 0 x 9 1 1 9 j 5                           ",
"                                q 6 7 6 0 J x x x 9 1 1 8 9 3                           ",
"                                J q 4 2 6 0 J G c j 1 : 3 4 >                           ",
"                                J 0 3 : 1 8 k J x 9 > % * ,                             ",
"                                c x 8 2 3 8 x J x 5 , $ + $                             ",
"                                K c x x c c K c j z h a m                               ",
"                              a.^ P I E Q Q ! Y V R ,.z.m.                              ",
"                            ].m.e./ ] @.y.i.0.1.7.l.).$X%X$X(.                          ",
"                            ].).v.e.+.w.u.d.a.j.v.].%X&X%X].v.g.8.                      ",
"                          k.)._.`.b.a.e.s.x.l.m.[.&X-X&X{.m.k.8.j.T.%X                  ",
"                        ;.7.v.)._.).b.v.m.T.`.[.&X-X-X&X).k.8.8.x.Y..X#X                ",
"                        D >.8.v._.]._._.[.}.%X&X:X;X;X%X(.g.9.a.c.I.~.oX                ",
"                        T T <.j.).{.{.{.{.$X&X;X;X;X:X%X(.h.8.d.G.U.W.R.                ",
"                        [ _ / g.).[.[.).m.).%X;X;X;X-X$Xm.h.8.d.G.U.E.E.                ",
"                        X.] / j.(._.T.k.5.l.}.:X;X-X&X].v.g.8.d.G.U.E.E.E.              ",
"                        o.{ 1.j.m.(.k.D C g.}.:X;X&X[.m.h.8.r.s.P.U.E.E.E.              ",
"                        *.#.) a.m.v.,.f f 8.{.:X:X&X).k.8.7.e.f.L.U.E.E.E.E.            ",
"                        B.p.0.z.m.v.>.d M j.}.:X;X%X(.g.7.0.e.M.L.U.U.E.E.E.            ",
"                      E.K.C.t.j.m.v.,.Z 4.).%X:X;X%X(.g.7.e.q.i.B.J.K.U.E.E.            ",
"                      E.K.C.t.j.m.v.8.7.T.$X-X;X-X%X(.g.7.8.0.w.y.F.J.E.E.E.            ",
"                    E.K.H.p.0.j.m.T.l.m.}.-X;X;X;X%X(.g.7.7.6.q.%.*.J.U.E.E.            ",
"                    K.J.B.%.2.j.(._._.{.&X:X;X;X;X%X(.g.7.7.5.0.%.N.J.E.E.E.            ",
"                    F.V.=.@.1.r.).[.}.%X-X;X;X;X;X$X(.g.7.7.7.0.%.N.J.U.E.E.            ",
"                    *.=.o.{ / r.m.].{.%X&X-X:X:X-X$Xm.8.5.5.5.2.#.M.J.E.E.R.            ",
"                  &.&.&...' U <.k.b.m.).].}.}.|.[.).j.,.:.:.:._ @.*.J.R./.oX            ",
"                  &..... .` P B D :.>.3.7.g.g.g.8.4.D C N N V U { *.H.^.OX#X            ",
"                [ X. ... .` L g t t t a d b n n n b d d m B V E } =.B.I.R.T.l.          ",
"                ^ ] [  .| ` Y v a t t t t a d f b d d m A T ! ' | $.%.u.s.6.Z           ",
"                R U _ [ X.] T D ;.:.>.:.>.>.3.5.7.5.;.D :.1.O.{ | | } +.e.5.S           ",
"                Z R T ^ ] ^ ~ 4.z.b.n.m.T.T.).)._.(.j.3.,.,./ Q { ' Q t.D.`.l.          ",
"                  Z A       :.9.n.'.'..XXX$X%X&X&X}.l.>.D D A ~ _ +.a.T.XX&X            ",
"                            ~ e.P.^.oX#X=X&X&X&X&X{.j.C m M N A <.a.`.%X-X:X            ",
"                            / i.G.U./.oX@X@X}.}.].b.:.d a m M C :.n.%X-X;X;X            ",
"                            @.M.H.U.E.Q.U.Y.c.l.j.,.M a m C M M >.].-X:X;X;X            ",
"                            o.*.F.K.E.Q.^.Y.c.l.j.,.N d M C M f     ;X;X;X;X            ",
"                            o.o.N.J.!.oX@X+X.X}.[.v.>.f b b b s     ;X;X;X;X            ",
"                            ` @.M.I.~.#X>X:X:X-X&X[.7.b u p p p       ;X;X;X            ",
"                            P 2.S. X.X=X:X;X;X;X-X}.8.b r u u p       ;X;X;X            ",
"                            z ,.m.[.XX*X-X;X;X;X-X{.8.b r u p u         ;X;X            ",
"                            a ,.m.[.}.&X-X;X;X;X:X}.8.b r u u u         ;X;X            ",
"                            a ,.m.[.$X&X-X;X;X;X:X}.8.b r u u u                         ",
"                            a ,.m.{.$X&X-X;X;X;X-X{.g.b r u u u                         ",
"                            a ,.m.{.&X&X:X;X;X;X:X%Xl.m e r u u                         ",
"                            a ,.m.}.&X-X:X;X;X;X;X&X).N = w y u                         ",
"                            a ,.m.}.&X-X-X-X-X-X-X-X    - = r u                         ",
"                            d ,.m.{.%X&X&X&X&X%X&X&X    - e i d                         ",
"                            m ,.v._.{.$X$X$X$X%X$X      u f N Z                         ",
"                            C ,.k.v._.                  M -.>.4.                        ",
"                            S >.g.k.                    Z :.4.g.                        ",
"                            S >.5.g.                    -.-.4.g.                        ",
"                            S ;.,.7.                    -.-.,.7.                        ",
"                            S -.,.7.                    S -.,.5.                        ",
"                          Z S -.,.5.                  Z S -.,.5.                        ",
"                          Z S -.,.5.                  Z S -.,.5.                        ",
"                        S Z S -.,.5.                Z Z S -.,.7.                        "
};
