/* XPM */
static char *pa21639060390[] = {
/* columns rows colors chars-per-pixel */
"50 64 191 2 ",
"   c None",
".  c #010100",
"X  c #080708",
"o  c #120C06",
"O  c #1B130B",
"+  c #0F0F10",
"@  c #181719",
"#  c #241B12",
"$  c #281D12",
"%  c #231A0F",
"&  c #2C2115",
"*  c #2A221A",
"=  c #3A2C1D",
"-  c #332719",
";  c #2A292C",
":  c #3D3121",
">  c #343235",
",  c #39383B",
"<  c #2E2C32",
"1  c #433423",
"2  c #4A3927",
"3  c #4E3D29",
"4  c #483727",
"5  c #523F2B",
"6  c #54412D",
"7  c #5A432E",
"8  c #4F4A37",
"9  c #4D4236",
"0  c #5B4631",
"q  c #584B36",
"w  c #624C35",
"e  c #654C35",
"r  c #675138",
"t  c #6C553B",
"y  c #71593E",
"u  c #71563C",
"i  c #403F45",
"p  c #4B4B4C",
"a  c #46444C",
"s  c #4E4D50",
"d  c #514E53",
"f  c #545354",
"g  c #555459",
"h  c #58575B",
"j  c #5B5A5B",
"k  c #59504A",
"l  c #685744",
"z  c #755C41",
"x  c #795F43",
"c  c #745D49",
"v  c #625E5B",
"b  c #665C54",
"n  c #7D6245",
"m  c #7D664C",
"M  c #6A625A",
"N  c #5E5D60",
"B  c #626264",
"V  c #666569",
"C  c #6B6B6E",
"Z  c #6A6766",
"A  c #716D6C",
"S  c #7F7167",
"D  c #6F6F72",
"F  c #716F72",
"G  c #737276",
"H  c #7B7575",
"J  c #76757A",
"K  c #7B7A7C",
"L  c #806547",
"P  c #826748",
"I  c #83694B",
"U  c #856D54",
"Y  c #8D7A5D",
"T  c #927A5C",
"R  c #887C69",
"E  c #827975",
"W  c #8C7E72",
"Q  c #99825E",
"!  c #8C8364",
"~  c #9C876F",
"^  c #968669",
"/  c #9A916F",
"(  c #8D8172",
")  c #958473",
"_  c #94877A",
"`  c #998A7D",
"'  c #9A8B76",
"]  c #9C917B",
"[  c #A38B6C",
"{  c #A38C68",
"}  c #AC916C",
"|  c #A7906F",
" . c #BE9B66",
".. c #B59669",
"X. c #BC9C6A",
"o. c #B79767",
"O. c #AE9571",
"+. c #A59276",
"@. c #B49C74",
"#. c #B39B79",
"$. c #B09670",
"%. c #BEA06F",
"&. c #BAA47A",
"*. c #C09F6A",
"=. c #C2A26D",
"-. c #C6A976",
";. c #C6AC7C",
":. c #C9AE7B",
">. c #C2A777",
",. c #CAB17E",
"<. c #7F7E83",
"1. c #807F82",
"2. c #838285",
"3. c #868688",
"4. c #8B8A8D",
"5. c #8B8888",
"6. c #938E8B",
"7. c #8F8F91",
"8. c #908F91",
"9. c #939295",
"0. c #9B9693",
"q. c #959598",
"w. c #989799",
"e. c #9B9B9C",
"r. c #9E9781",
"t. c #AA9A83",
"y. c #A1978D",
"u. c #A79B86",
"i. c #B29F81",
"p. c #A59D94",
"a. c #A19E9E",
"s. c #BAAE84",
"d. c #B8A986",
"f. c #A3A09E",
"g. c #AAA49B",
"h. c #AEA99B",
"j. c #ACA496",
"k. c #BBB193",
"l. c #9F9FA1",
"z. c #A09FA1",
"x. c #A3A2A4",
"c. c #A6A6A8",
"v. c #AAAAAA",
"b. c #B0ACA2",
"n. c #B9B4AC",
"m. c #B5B5B5",
"M. c #BCBCBC",
"N. c #B9B7B5",
"B. c #CDB482",
"V. c #CEBB8C",
"C. c #C8B68A",
"Z. c #D2BD8B",
"A. c #C4BB9F",
"S. c #C8BA93",
"D. c #C5AD8D",
"F. c #D4C08F",
"G. c #CDC29A",
"H. c #D6C393",
"J. c #D8C796",
"K. c #DCCD9C",
"L. c #D5C598",
"P. c #DED09F",
"I. c #E0CE9B",
"U. c #DBCDA2",
"Y. c #D6C6AA",
"T. c #DED1A1",
"R. c #C1C0BF",
"E. c #D6CCBA",
"W. c #DFD0B6",
"Q. c #E2D4A2",
"!. c #E2D7BD",
"~. c #BFBFC1",
"^. c #C3C3C3",
"/. c #CBCBCB",
"(. c #CFCFD0",
"). c #D0CFD0",
"_. c #D4D4D4",
"`. c #DCDCDC",
"'. c #D7D7D8",
"]. c #D5CFC8",
"[. c #E2DFDC",
"{. c #EBE4DD",
"}. c #E2E1DD",
"|. c #DFDFE0",
" X c #E3E3E4",
".X c #EAEAEA",
"XX c #ECEAE2",
"oX c #F1ECE2",
"OX c #F5F5F5",
"+X c #FCFCFC",
"@X c #F9F8F7",
/* pixels */
"                                    . .     . . . . . .                                             ",
"                                  . . . . . . . . . . . .                                           ",
"                                  o O # $ $ % O o . . . .                                           ",
"                                O & 1 3 6 5 3 1 $ o . . . .                                         ",
"                                - 2 0 t u u t w 1 & o . . .                                         ",
"                              = 3 w z P P L L y w 1 $ o . . .                                       ",
"                              2 w u n P I I P L z q 1 % O O o                                       ",
"                              2 w t z n L L x z z t 5 = : 1 -                                       ",
"                              1 5 0 e u x x t t z t 6 2 0 w 6                                       ",
"                                5 7 7 e z x t t z t 6 6 t y r                                       ",
"                                u e 7 e u x x x n t 6 6 r t 0                                       ",
"                                x u w 7 r z L P n y 6 3 0 q 3                                       ",
"                                P z 0 3 6 r x P P t 6 = 1 1                                         ",
"                                P z r 7 0 r x m n e 1 & # *                                         ",
"                                U U n n n m I m c l k g B                                           ",
"                              g.( Y T Q { ~ W R S E 6.c.~.                                          ",
"                              M.p._ [ $.d.d.y.6.q.v.^.`..X`.~.                                      ",
"                            _./.m.p.t.#.d.k.g.c.m.(. X.X X).m.l.                                    ",
"                            _./.^.N.p.p.h.b.v.M._..XOX.X_.m.c.l.q.e.                                ",
"                          v.~./.).^.N.m.N.^.^._..X@X@X X/.c.w.w.q.f.                                ",
"                          4.e.m./.)././._.[. X.X+X+X+X X~.l.q.0.e.h.A.K.                            ",
"                        G J 3.x.^.'.'._.'.[..X+X+X+X@X X~.x.w.e.h.A.Y.T.                            ",
"                        H J 1.a.^._._./.m./. X+X+X+XOX|.M.l.e.j.k.G.K.T.Q.                          ",
"                      [ ) W 1.z.~./.~.c.8.v.`.@X+X@X.X_.m.e.e.j.A.L.P.T.Q.Q.                        ",
"                      o.} ~ _ z.M.~.c.K D a.'.@X+X.X_.M.c.w.0.p.s.V.H.I.Q.Q.                        ",
"                    *.X.o.| ` z.M.N.4.j j e.'.@X+X X^.c.w.0.y.t.&.;.Z.J.K.Q.Q.                      ",
"                    *.*.o.} ` x.N.m.5.g B c.`.OX+X X~.x.q.y.t.#.@.=.:.Z.K.T.Q.                      ",
"                    :.-.*.} ` f.M.m.4.G 8.^. X+X@X X~.l.9.0.t.#.X.X.=.B.H.T.Q.Q.                    ",
"                    Z.V.-.} ` f.M.m.9.q.M.}.OX+X+X X~.l.q.w.y.t.@. .=.,.H.K.Q.K.                    ",
"                  Z.J.Z.;.O.` f.M.R.m.M.`.OX+X+X@X X~.x.q.q.0.y.#. .%.-.V.J.K.L.s.                  ",
"                  B.J.H.;.O.` f.~.(./._..X+X+X+X+X X~.l.q.q.q.0.t... .=.;.V.J.C./                   ",
"                =.B.F.F.;.O.` x.^._.`. XOX+X+X+X@X X~.l.q.q.q.q.     .%.=.B.F.s.! 8                 ",
"                =.B.H.Z.;.O.` a.~.(.'.}..XOX@X@XOX|.~.l.9.7.9.9.       .=.,.V.s.! 8                 ",
"                =.,.Z.H.;.O._ 6.v.N.M.^.(.'.`.`.(.~.l.4.2.2.2.2.        =.,.H.s.! 8                 ",
"                =.:.Z.Z.;.O.W H <.2.4.7.w.l.l.l.l.7.<.C C C C C         %.;.V.s.! 8                 ",
"                =.-.B.Z.>.[ R v f p p s j N N B N N g h V V C C         $.&.D.&.^                   ",
"                X.=.-.-.%.Y v d p p p p s f h N N N g B <.<.<.<.        ' +.&.@.{                   ",
"                } ..X.X.    j Z K 2.3.3.3.3.4.9.q.7.<.<.2.7.7.7.        H ( / |                     ",
"                ) [ } ..    D 3.c.N.M.M.~.~.~./.(.~.x.7.7.q.q.q.        F H E W                     ",
"                E W ~ [     <.l.M._.`.}.|. X|..X.X'.M.l.9.q.q.q.      p j Z A                       ",
"                H H W (     2.l.^.}..XOXOXOXOXOX@X X~.l.q.q.9.9.      ; i p                         ",
"                  H H       2.x.^.|..XOX@X+X+X+X@X X~.l.9.9.4.2.    X + @ ;                         ",
"                            1.l.^.`. X.X+X+X+X+X@X X~.e.7.3.<.C     X . .                           ",
"                            J e.~.'. X.XOX+X+X+X@X Xm.8.2.J V N a @ . .                             ",
"                            B 9.M.'.`..XOX+X+X+X@X`.v.J V B h p > @ . .                             ",
"                            j 4.N.'.|. XOX+X+X+X@X'.l.B d g d i < + .                               ",
"                            g 4.M.'.`..X+X+X+X+X@X`.f.A v v j p > @ .                               ",
"                            f 4.N.'. X XOX+X+X+X@X}.n.r.' ' R c 9 *                                 ",
"                            g 5.M._.`..XOX+X+X+X+XoXE.G.J.V.&.^ l :                                 ",
"                            f 5.M.'.`..XOX+X+X+X+XoX!.T.Q.Q.J.&.Q                                   ",
"                            f 3.m.(.`..XOX+X+X+X+XoXW.L.I.Q.Q.J.&.                                  ",
"                            p J x.~._. XOX+X+X+X+XXXY.V.F.I.Q.Q.S.                                  ",
"                            , g K c./. XOX+X+X+XOX{.Y.D.:.Z.H.S.+.                                  ",
"                            ; , j 4.R.`..XOX@XOXOX[.E.D.#.#.d.t.( B                                 ",
"                            < , f 5.M.'. X.X.X XXX[.].n.r.W T W A B                                 ",
"                            p f C 8.N.'.`.|.|. X[.`.).N.1.M Z A G K                                 ",
"                            C H 3.e.m.                    B V <.5.9.                                ",
"                            G 2.7.l.                        G 2.9.e.                                ",
"                            J 2.7.l.                        <.<.9.e.                                ",
"                            J 2.7.w.                        J 2.4.q.                                ",
"                            J 2.4.9.                        J <.4.9.                                ",
"                          G J <.4.9.                      G J <.4.q.                                ",
"                          G J <.4.9.                      G J <.4.9.                                ",
"                        G G J <.7.9.                    G G J <.4.9.                                "
};
