/* XPM */
static char *pa31639060390[] = {
/* columns rows colors chars-per-pixel */
"46 64 183 2 ",
"   c None",
".  c #010100",
"X  c #120C06",
"o  c #1B130B",
"O  c #1D1D1F",
"+  c #241B12",
"@  c #281D12",
"#  c #231A0F",
"$  c #2C2115",
"%  c #2B2219",
"&  c #352919",
"*  c #3A2C1D",
"=  c #312518",
"-  c #1E1E20",
";  c #212023",
":  c #3E3020",
">  c #2E2D30",
",  c #39383E",
"<  c #353439",
"1  c #433423",
"2  c #4A3927",
"3  c #4E3D29",
"4  c #483727",
"5  c #523F2B",
"6  c #54412D",
"7  c #5A432E",
"8  c #5B4631",
"9  c #584B36",
"0  c #624C35",
"q  c #654C35",
"w  c #675138",
"e  c #6C553B",
"r  c #71593E",
"t  c #71563C",
"y  c #3F3E45",
"u  c #424246",
"i  c #45444B",
"p  c #49474E",
"a  c #4B4B4C",
"s  c #4E4C54",
"d  c #514F54",
"f  c #545355",
"g  c #545259",
"h  c #5A5759",
"j  c #5B5A5C",
"k  c #59504A",
"l  c #755C41",
"z  c #795F43",
"x  c #745D49",
"c  c #635D5D",
"v  c #665C54",
"b  c #655447",
"n  c #7D6245",
"m  c #7D664C",
"M  c #5C5B61",
"N  c #605F63",
"B  c #626163",
"V  c #656469",
"C  c #6B6B6E",
"Z  c #68676D",
"A  c #706A62",
"S  c #7F7167",
"D  c #6F6F72",
"F  c #716F74",
"G  c #737276",
"H  c #7A7575",
"J  c #76757A",
"K  c #7B7A7C",
"L  c #806547",
"P  c #826748",
"I  c #83694B",
"U  c #856D54",
"Y  c #8A755E",
"T  c #927858",
"R  c #86776A",
"E  c #837A75",
"W  c #8C7E73",
"Q  c #9B825D",
"!  c #8E8565",
"~  c #99876D",
"^  c #9A916F",
"/  c #8E8174",
"(  c #968473",
")  c #94877B",
"_  c #9A8978",
"`  c #A38A66",
"'  c #A58D6D",
"]  c #A98F62",
"[  c #AC916B",
"{  c #BC9A66",
"}  c #B59668",
"|  c #BC9C6B",
" . c #B59463",
".. c #AB9371",
"X. c #A59276",
"o. c #B29A7A",
"O. c #B29872",
"+. c #BEA06F",
"@. c #B8A17B",
"#. c #C09E69",
"$. c #C2A26D",
"%. c #C6A976",
"&. c #C4AB7B",
"*. c #C8AE7B",
"=. c #C4A571",
"-. c #CBB17E",
";. c #7F7E83",
":. c #807F82",
">. c #838285",
",. c #868689",
"<. c #8B8A8C",
"1. c #88878B",
"2. c #938E8B",
"3. c #9C9287",
"4. c #8F8F91",
"5. c #908F91",
"6. c #939295",
"7. c #9B9693",
"8. c #959598",
"9. c #989799",
"0. c #9B9B9C",
"q. c #AA9884",
"w. c #A1978D",
"e. c #A39A8A",
"r. c #A99A88",
"t. c #B29F81",
"y. c #A59D94",
"u. c #A29F9E",
"i. c #A7A08F",
"p. c #BDAD8A",
"a. c #B7A984",
"s. c #BFB389",
"d. c #AAA49B",
"f. c #AEA99B",
"g. c #A6A19A",
"h. c #BAB299",
"j. c #9F9FA1",
"k. c #A09FA1",
"l. c #A3A3A4",
"z. c #A6A6A8",
"x. c #AAAAAA",
"c. c #B0ACA2",
"v. c #B2B0AF",
"b. c #B5B4B5",
"n. c #BCBCBC",
"m. c #B9B7B5",
"M. c #C1AB80",
"N. c #CCB482",
"B. c #CBB88B",
"V. c #D0B987",
"C. c #D1BC8B",
"Z. c #C2B692",
"A. c #C4BB9F",
"S. c #C7BB90",
"D. c #D3C08F",
"F. c #D8C08C",
"G. c #CFC49E",
"H. c #D4C292",
"J. c #D9C795",
"K. c #DCCA96",
"L. c #DCCC9C",
"P. c #D5C799",
"I. c #DED09F",
"U. c #E2D09D",
"Y. c #D7CBA1",
"T. c #DED1A1",
"R. c #C1C0BF",
"E. c #E2D4A2",
"W. c #EBDAA5",
"Q. c #F0E1AB",
"!. c #BFBFC1",
"~. c #C3C3C3",
"^. c #CBCBCB",
"/. c #CFCFD0",
"(. c #D0CFD0",
"). c #D4D4D4",
"_. c #DCDCDC",
"`. c #D7D7D8",
"'. c #DFDFE0",
"]. c #E3E3E4",
"[. c #EBEBEB",
"{. c #F5F5F5",
"}. c #FCFCFC",
/* pixels */
"                                    . .     . . . . . .                                     ",
"                                  . . . . . . . . . . . .                                   ",
"                                  X o + @ @ # o X . . . .                                   ",
"                                o $ 1 3 6 5 3 1 @ X . . . .                                 ",
"                                = 2 8 e t t e q 1 $ X . . .                                 ",
"                              * 3 0 l P P L L r 0 1 @ X . . .                               ",
"                              2 0 r n P I I I L l 9 1 # o o X                               ",
"                              2 0 t r n L L z r l e 5 & 1 1 &                               ",
"                              1 5 7 q t z r e e l e 6 2 8 0 6                               ",
"                                7 5 7 q r z e t l e 6 6 e r w                               ",
"                                e q 8 q r L r z n e 6 6 w e 8                               ",
"                                L t 0 7 t r L P n r 6 3 8 9 3                               ",
"                                L r 8 3 6 w z I P e 3 * 1 1                                 ",
"                                m n w 7 8 w z n n q 2 % + %                                 ",
"                                U m n n m m m m x b k f B                                   ",
"                              d.) Y T Q ` ~ ( R S E 2.z.!.                                  ",
"                              n.y.) ' O.a.a.w.2.6.x.~.'.].'.!.                              ",
"                            ).^.v.y.q.o.p.h.d.l.b.^.].[.].).b.j.                            ",
"                            )./.~.m.d.y.f.c.c.n.).[.{.[.).n.l.0.9.9.                        ",
"                          x.!.^.(.~.m.v.n.R.~.).[.}.{.].~.z.0.8.9.g.                        ",
"                          1.0.b.^.(.^.^.)._.].[.}.}.}.].!.u.8.9.0.h.G.Y.                    ",
"                        G J ,.l.~.)._.`.).'.[.}.}.}.}.].!.l.9.u.f.c.G.T.                    ",
"                        H H :.u.~.).).~.n.~.[.}.}.}.{.'.n.j.9.d.h.G.T.T.E.                  ",
"                        W E >.k.R.^.R.z.5.x._.{.}.{.[.).b.0.9.f.Z.G.T.T.E.E.                ",
"                        ' ~ ) k.n.R.z.;.D u.`.{.}.[.`.n.l.0.7.r.p.C.J.T.T.E.                ",
"                        } ' ) k.n.m.<.h j 0.`.{.}.].~.z.0.7.w.q.@.&.C.J.L.E.E.              ",
"                        | .._ l.n.b.,.f B z._.{.}.].!.l.7.7.q.o.| =.*.V.K.I.E.T.            ",
"                      %.&.@.3.g.n.b.<.G 6.R.].}.}.].!.j.7.7.q.o.| | =.N.J.T.T.G.            ",
"                      *.B.p.r.l.n.b.8.8.R.'.{.}.{.].!.j.9.9.3.q.O.{ $.-.H.L.T.S.^           ",
"                    $.-.C.Z.i.l.n.R.v.n._.{.}.}.}.].!.j.8.8.7.e.o.{ { %.V.J.P.s.! 9         ",
"                    %.N.C.Z.i.l.!.^.^.`.[.}.}.}.}.].!.j.8.8.8.7.q.| $.$.*.C.H.s.! 9         ",
"                    -.N.B.p.e.z.~.)._.].{.}.}.}.}.'.!.j.8.8.8.8.    { | $.-.D.S.^           ",
"                    F.C.N.@.3.g.n./.`.].[.{.{.{.{.'.n.0.6.4.6.4.      | $.-.H.H.a.          ",
"                  N.V.N.&.[ _ 6.x.m.n.~.).`._._.).~.l.1.>.>.>.>.        $.-.H.L.            ",
"                +.$.%.%.+.' / H >.>.<.5.9.j.j.j.0.4.;.D Z Z Z D         +.-.D.L.            ",
"                } { { $.} ` S c f a a a j j B B N j g j V Z D Z         ..@.N.D.            ",
"              ( [ | { {  .T v d a a a a a f j j M j j B J ;.>.>.        ( X.@.&.            ",
"            H W ~ [ } {     j V K >.,.>.,.,.<.6.9.4.;.K >.4.4.6.        E / ^ X.            ",
"            G E W ~         D 1.z.m.n.R.!.!.!.~./.!.z.4.4.8.8.8.        F E R W             ",
"              G H           ;.j.R.)._.'.].].].[.[.`.n.j.6.8.8.8.        N N N N             ",
"                            >.j.~._.[.{.{.{.{.{.{.].!.j.8.6.8.6.        u u u u             ",
"                            >.j.~._.[.{.{.}.}.}.}.].!.j.6.6.1.>.        - ; ;               ",
"                            >.u.~._.].[.}.}.}.}.{.].!.j.4.1.;.G         . . .               ",
"                            J 0.~.`.].[.{.}.}.}.}.'.b.4.>.J Z M         . .                 ",
"                            V 6.n.`._.[.{.}.}.}.}.'.z.J Z N M g         . .                 ",
"                            h <.n.`.'.].{.}.}.}.{._.j.M s g s g         . .                 ",
"                            f <.n.)._.[.}.}.}.}.{.`.j.M p s s s         * &                 ",
"                            f <.n.).].].{.}.}.}.{.`.9.M i s s s         r r                 ",
"                            f <.n.)._.[.{.}.}.}.}.`.0.M i s s s         ] ]                 ",
"                            f <.n.).'.].{.}.}.}.}.].x.B y i s s       K.V.C.K.              ",
"                            f <.n.)._.].{.}.}.}.}.[.~.C , y i s     Q.W.U.U.Q.              ",
"                            f <.n.`.'.[.{.}.}.}.}.{.    > y i s A a.U.U.E.U.U.W.            ",
"                            f <.n.)._.[.{.}.}.{.[.[.    > , i s c ~ @.D.K.K.J.F.            ",
"                            f <.n.)._.].[.{.{.[.].].    > < i s v R [ *.V.C.-.              ",
"                            h <.m.)._.].].[.[.].].'.    > , p g v R ] +.%.-.                ",
"                            B <.b.^.`._._._.].'._.        u h V F W ' | $.                  ",
"                            G <.z.n.^.                    g V ;.<.6.q.                      ",
"                            J ,.9.z.                        J :.6.u.                        ",
"                            J >.4.j.                        ;.;.5.0.                        ",
"                            J >.4.9.                        J >.<.8.                        ",
"                            J ;.4.6.                        J ;.<.6.                        ",
"                          G J ;.1.6.                      G J ;.4.6.                        ",
"                          G J ;.1.6.                      J J ;.1.6.                        ",
"                        G G J ;.4.6.                    G G J ;.1.6.                        "
};
