/* XPM */
static char *pa41639060390[] = {
/* columns rows colors chars-per-pixel */
"62 64 184 2 ",
"   c None",
".  c #020202",
"X  c #0A0A0B",
"o  c #080706",
"O  c #120C06",
"+  c #1B130B",
"@  c #141415",
"#  c #231A0F",
"$  c #251C11",
"%  c #281D12",
"&  c #2C2115",
"*  c #3B2D1E",
"=  c #332719",
"-  c #1E1E20",
";  c #2C2B2E",
":  c #3E3020",
">  c #2E2D30",
",  c #37363C",
"<  c #39383E",
"1  c #313034",
"2  c #433323",
"3  c #4A3927",
"4  c #4E3D29",
"5  c #523F2B",
"6  c #54412D",
"7  c #5A432E",
"8  c #5A492F",
"9  c #5B4630",
"0  c #5D4A34",
"q  c #624C35",
"w  c #654A34",
"e  c #675138",
"r  c #6C553B",
"t  c #71593E",
"y  c #71563C",
"u  c #3F3E43",
"i  c #45444B",
"p  c #49474E",
"a  c #4B4B4D",
"s  c #414047",
"d  c #544F4F",
"f  c #5C554F",
"g  c #4E4C54",
"h  c #504E57",
"j  c #545355",
"k  c #54535A",
"l  c #585759",
"z  c #5B5A5D",
"x  c #5A5451",
"c  c #755C41",
"v  c #795F43",
"b  c #735D48",
"n  c #625A52",
"m  c #635E5E",
"M  c #63574B",
"N  c #7D6245",
"B  c #7B644B",
"V  c #75604A",
"C  c #66605E",
"Z  c #7C6C5A",
"A  c #5C5B61",
"S  c #626264",
"D  c #656469",
"F  c #6B6B6E",
"G  c #6A6769",
"H  c #6F6F72",
"J  c #706F75",
"K  c #737276",
"L  c #7B7575",
"P  c #76757A",
"I  c #7B7A7C",
"U  c #806547",
"Y  c #826749",
"T  c #85694A",
"R  c #826A53",
"E  c #806750",
"W  c #857465",
"Q  c #887769",
"!  c #8A7968",
"~  c #927E6C",
"^  c #847A73",
"/  c #8C7E72",
"(  c #867F79",
")  c #99805F",
"_  c #9F896F",
"`  c #8F867F",
"'  c #938373",
"]  c #96887C",
"[  c #9C8A75",
"{  c #A38B6C",
"}  c #A68A65",
"|  c #AB906C",
" . c #B2966C",
".. c #BD9D6B",
"X. c #B59A6A",
"o. c #A08D73",
"O. c #AC9472",
"+. c #AD9A7B",
"@. c #B1997A",
"#. c #BFA06E",
"$. c #B6A17C",
"%. c #BAA079",
"&. c #C09E68",
"*. c #C2A26D",
"=. c #C2A573",
"-. c #C7AB77",
";. c #C4AB7C",
":. c #C9AE7B",
">. c #C9B07E",
",. c #7F7E83",
"<. c #807F82",
"1. c #838385",
"2. c #868689",
"3. c #8B8A8C",
"4. c #8A8687",
"5. c #918A86",
"6. c #938A85",
"7. c #9C948A",
"8. c #8F8F91",
"9. c #908F91",
"0. c #939295",
"q. c #9B9693",
"w. c #959598",
"e. c #989799",
"r. c #9B9B9C",
"t. c #999897",
"y. c #AA9A84",
"u. c #A3968A",
"i. c #A69C8C",
"p. c #A39D9A",
"a. c #A19892",
"s. c #ACA187",
"d. c #BCAD8B",
"f. c #BAA781",
"g. c #ABA399",
"h. c #AEA99B",
"j. c #A7A298",
"k. c #BDB59B",
"l. c #9F9FA1",
"z. c #A09FA1",
"x. c #A2A2A3",
"c. c #A6A6A8",
"v. c #AAAAAB",
"b. c #B5AFAB",
"n. c #B6B1AD",
"m. c #B4B4B5",
"M. c #BCBCBC",
"N. c #BFB9B4",
"B. c #CCB482",
"V. c #CAB78B",
"C. c #D2BC89",
"Z. c #D0B986",
"A. c #C4BB9F",
"S. c #C7BA94",
"D. c #C2BEBC",
"F. c #D8C08B",
"G. c #CFC49E",
"H. c #D4C292",
"J. c #D8C694",
"K. c #DAC997",
"L. c #D4C599",
"P. c #DCCD9D",
"I. c #DED09F",
"U. c #E2D19D",
"Y. c #D6CAA1",
"T. c #DED1A1",
"R. c #E2D3A1",
"E. c #EBDAA4",
"W. c #EAD7A2",
"Q. c #BFBFC1",
"!. c #C3C3C3",
"~. c #CAC6C4",
"^. c #CBCBCB",
"/. c #D1CFCE",
"(. c #D0D0CF",
"). c #D4D4D4",
"_. c #DCDCDC",
"`. c #D7D7D8",
"'. c #DFDFE0",
"]. c #E3E3E3",
"[. c #EAEAEA",
"{. c #F0EFEF",
"}. c #F5F5F5",
"|. c #FCFCFC",
/* pixels */
"                                                                                                                            ",
"                                                                                                                            ",
"                                                      . . . .                                                               ",
"                                            . . . . . . . . . .                                                             ",
"                                          O + $ % % $ + O . . . .                                                           ",
"                                        + & 2 4 5 5 4 : & O . . . .                                                         ",
"                                        = 3 w r y t r w 2 % O . . .                                                         ",
"                                      * 4 q y U U Y N c q 2 & O . . .                                                       ",
"                                      3 q t U Y T T Y N c 0 : # + + O                                                       ",
"                                      3 q r y U U N N c b r 4 * * 2 =                                                       ",
"                                      2 5 9 w y N c r r c r 6 3 9 q 7                                                       ",
"                                        6 6 7 e t c r r c r 6 6 r c q                                                       ",
"                                        y w w w t U v v N c 5 5 e r 7                                                       ",
"                                        N r w 7 e t U Y N c 5 4 0 0 6                                                       ",
"                                        R c 0 3 6 e v U Y b M f n n f                                                       ",
"                                      g.' B e 7 7 e v U Y W 6.q.r.t.0.                                                      ",
"                                      D.u.W N b b B Z R Q a.D./.(.!.m.l.                                                    ",
"                                    `.~.b.u./ W W Q / ] p.D.'.[.'.^.m.l.                                                    ",
"                                    ).(.~.n.q.6.6.q.r.b.^.].{.[.).Q.x.r.e.t.                                                ",
"                                  v.M.~.^.~.m.v.m.M.!.).[.}.}.].!.x.r.w.e.j.                                                ",
"                                  2.l.m.^.(.^./.)._.].{.}.|.|.].Q.l.w.w.t.h.G.                                              ",
"                                P P 1.x.!.).`.).).'.{.}.|.|.|.].Q.l.r.l.h.b.G.T.                                            ",
"                                P P <.p.!.).).~.M.!.[.}.|.|.}.'.M.l.e.j.k.G.T.T.                                            ",
"                                / ^ 1.l.Q.^.!.c.8.v._.|.|.}.[.(.m.l.t.g.S.L.P.R.R.                                          ",
"                                { _ ` p.D.Q.c.<.H j.`.}.|.{.).M.c.e.q.i.V.Z.L.I.I.                                          ",
"                                  o.6.z.M.m.3.l z r._.}.}.[.!.c.t.t.u.y.@.:.C.J.I.T.                                        ",
"                                  ' 4.p.M.m.2.j S c._.}.|.].Q.x.e.q.y.@...=.:.C.K.T.                                        ",
"                                    1.z.M.m.3.H 8.M.[.}.}.].Q.l.e.q.y.@.....*.B.J.T.R.                                      ",
"                                    4.j.M.m.w.w.M.].}.|.|.].Q.x.w.q.q.u.+...&.B.H.I.I.                                      ",
"                                  s.9.x.Q.Q.m.M._.}.|.|.|.].Q.l.w.w.q.q.    &.-.Z.K.I.I.                                    ",
"                                L.d.q.x.Q.^.^.).[.|.|.|.}.].Q.x.w.w.0.e.    ..=.>.C.K.T.                                    ",
"                                H.d.i.x.!.)._.].}.|.|.|.|.].Q.l.w.w.e.e.      ..*.>.J.T.R.                                  ",
"                            L.H.B.$.] p.M.(.`.].[.}.}.}.}._.M.r.9.0.0.0.        *.:.H.P.T.                                  ",
"                            V.Z.%.+.[ 9.v.m.M.!.).`._._.).!.c.3.1.1.1.,.        #.;.V.S.H.H.                                ",
"                          o.$.=.#. .' I 1.1.2.8.e.r.r.x.r.8.I H G F H G           +.y.s.f.B.                                ",
"                        L ` [  .#.} ! C j a a j l S S S S A k l S F G H             ( ' [ O.                                ",
"                        L L ' { } ) Z f p p p a a j l z A z l S K ,.1.1.            P L ^ Q                                 ",
"                          P L ' { ) Z F ,.1.1.2.2.3.3.0.e.8.1.I 2.8.0.8.              H G m j                               ",
"                                  ' L 3.x.m.Q.Q.Q.Q.G.^.^.Q.c.8.8.w.w.w.                g < >                               ",
"                                    ( r.Q.(.'.'.'.].].[.[._.M.l.w.w.w.e.                ; % @ X                             ",
"                                    1.l.!.'.[.}.}.}.}.}.}.].Q.l.w.w.0.0.                  X X o                             ",
"                                    1.l.!.'.[.}.|.|.|.|.|.].Q.l.0.8.3.2.                    . X o                           ",
"                                    1.l.!._.[.[.}.|.|.|.|.].M.l.8.1.,.J                     . o o                           ",
"                                    P r.Q.`.'.[.|.|.|.|.}.].m.8.,.,.D A                       o o o                         ",
"                                    G 0.M.`.'.[.}.|.|.|.}._.c.I D A A k                         O $                         ",
"                                    l 3.M.)._.[.}.|.|.|.|.`.j.D g A h h                           8                         ",
"                                    j 3.M.)._.[.}.|.|.|.}.`.r.z i g g g                             X.                      ",
"                                    j 2.M.)._.[.|.|.|.|.}.`.r.z i g g g                           K.C.C.                    ",
"                                    j 3.M.).'.[.}.|.|.|.}._.l.z i g g g                           E.I.U.E.                  ",
"                                    j 3.M.)._.[.}.|.|.|.|.].v.S u i g g                         W.W.R.U.W.E.                ",
"                                    j 3.M.).'.].|.|.|.|.|.[.!.F u u p g                         C.J.K.K.F.C.                ",
"                                    j 3.M.).'.[.}.|.|.|.}.}.    > u i g h                         B.C.Z.:.-.                ",
"                                    j 3.M.).'.].}.|.|.}.[.[.    ; 1 i g g                           :.-.*.&.                ",
"                                    j 3.M.)._.].[.}.}.{.[.].    ; u s g g g                           *.&.                  ",
"                                    j 3.M.)._.].].].[.].'._.    ; u p h z A                                                 ",
"                                    S 3.m.^.`._._.].'.'._.        u A D J L                                                 ",
"                                    H 3.c.M.^.                    A F ,.2.8.                                                ",
"                                    P 3.r.c.                        P 1.8.l.                                                ",
"                                    ,.1.0.w.                        P 1.8.l.                                                ",
"                                    K ,.8.w.                        P 1.8.w.                                                ",
"                                    P ,.2.w.                        ,.,.2.0.                                                ",
"                                  ,.P ,.8.w.                      J J ,.8.8.                                                ",
"                                  J ,.,.3.8.                      K K ,.2.w.                                                ",
"                                J J J ,.3.w.                    K K K ,.8.w.                                                "
};
