/* XPM */
static char *pa51639060390[] = {
/* columns rows colors chars-per-pixel */
"50 64 196 2 ",
"   c None",
".  c #010100",
"X  c #120C06",
"o  c #1B130B",
"O  c #231A0F",
"+  c #281D12",
"@  c #241B10",
"#  c #2C2115",
"$  c #3B2D1E",
"%  c #332719",
"&  c #29282B",
"*  c #292727",
"=  c #3E3020",
"-  c #2F2E32",
";  c #3A393D",
":  c #353439",
">  c #352E28",
",  c #433323",
"<  c #4A3927",
"1  c #4E3D29",
"2  c #523F2B",
"3  c #54412D",
"4  c #5A432E",
"5  c #5B4630",
"6  c #5D4A34",
"7  c #624C35",
"8  c #654A34",
"9  c #675138",
"0  c #6C553B",
"q  c #71593E",
"w  c #71563C",
"e  c #3E3C43",
"r  c #414043",
"t  c #46444B",
"y  c #4A494E",
"u  c #49474F",
"i  c #5C554F",
"p  c #4E4C55",
"a  c #504F55",
"s  c #555457",
"d  c #54525A",
"f  c #58575B",
"g  c #5B5A5C",
"h  c #585352",
"j  c #755C41",
"k  c #795F43",
"l  c #735D48",
"z  c #625B54",
"x  c #63574B",
"c  c #7D6245",
"v  c #7B634B",
"b  c #75604A",
"n  c #716252",
"m  c #7F715F",
"M  c #6D645C",
"N  c #5D5C61",
"B  c #636364",
"V  c #6C6B6D",
"C  c #686568",
"Z  c #736F6D",
"A  c #6F6F72",
"S  c #756E73",
"D  c #727175",
"F  c #7B7576",
"G  c #76757A",
"H  c #7C7C7D",
"J  c #78777C",
"K  c #806547",
"L  c #826649",
"P  c #85694A",
"I  c #816A54",
"U  c #836B54",
"Y  c #937D5D",
"T  c #89755D",
"R  c #837364",
"E  c #887769",
"W  c #897968",
"Q  c #8B7D72",
"!  c #9C8769",
"~  c #8A827C",
"^  c #8F8072",
"/  c #95887C",
"(  c #998976",
")  c #A38A67",
"_  c #AB916D",
"`  c #B79A6D",
"'  c #AF9771",
"]  c #AF9978",
"[  c #B59E7E",
"{  c #B29B71",
"}  c #B5A07D",
"|  c #B9A276",
" . c #C4A46F",
".. c #C2A97B",
"X. c #C5A879",
"o. c #CAB07D",
"O. c #7F7E83",
"+. c #827F82",
"@. c #838285",
"#. c #878689",
"$. c #8B8689",
"%. c #8C8B8D",
"&. c #898385",
"*. c #948C87",
"=. c #9D9284",
"-. c #93908A",
";. c #928F91",
":. c #939293",
">. c #9A9695",
",. c #9D9A97",
"<. c #9C9B9B",
"1. c #A39A8C",
"2. c #A99A89",
"3. c #A49C92",
"4. c #A29D9A",
"5. c #A89E90",
"6. c #A8A18D",
"7. c #BBA987",
"8. c #A6A194",
"9. c #AAA49A",
"0. c #ABA59A",
"q. c #B2AB9A",
"w. c #B9AD93",
"e. c #BBB399",
"r. c #9F9FA1",
"t. c #A09FA1",
"y. c #A3A2A3",
"u. c #A6A6A8",
"i. c #AAAAAB",
"p. c #A8A6A5",
"a. c #B9A4A7",
"s. c #B7A9AA",
"d. c #B5B0AD",
"f. c #B4B4B4",
"g. c #B7B7B8",
"h. c #BCBCBC",
"j. c #BEB7B1",
"k. c #C6AE83",
"l. c #C3AE87",
"z. c #CBB384",
"x. c #CDB98B",
"c. c #D5BD8B",
"v. c #C4B895",
"b. c #CDBB93",
"n. c #C4B99A",
"m. c #D5BB95",
"M. c #CFBFA8",
"N. c #C6AFB1",
"B. c #C7B8B9",
"V. c #DABDBF",
"C. c #CDC19D",
"Z. c #D5C494",
"A. c #D3C59A",
"S. c #D6C99D",
"D. c #DBCB9B",
"F. c #DDCA97",
"G. c #E4D09E",
"H. c #CFC5A0",
"J. c #D7C8A2",
"K. c #DED1A1",
"L. c #CFC5B9",
"P. c #E0C3A0",
"I. c #E1D4A3",
"U. c #E9D5A4",
"Y. c #E9D9AB",
"T. c #EDCBBD",
"R. c #E8DCB9",
"E. c #F0D5B8",
"W. c #BFBFC1",
"Q. c #C0BFC0",
"!. c #DBBFC0",
"~. c #C4C3C4",
"^. c #C9C7C6",
"/. c #CDCCCC",
"(. c #DDC2C3",
"). c #D2D1CF",
"_. c #DCD6CA",
"`. c #D5D5D5",
"'. c #DBDBDB",
"]. c #D9D6D3",
"[. c #E7C7C9",
"{. c #F0CECF",
"}. c #E1D8C1",
"|. c #F9D4D4",
" X c #FDD7D8",
".X c #F2D0D1",
"XX c #E9E6DE",
"oX c #F1E9D2",
"OX c #DFDFE0",
"+X c #E3E3E3",
"@X c #EBEBEB",
"#X c #F0EFEF",
"$X c #F3F2EF",
"%X c #F4F1E7",
"&X c #F5F5F5",
"*X c #FBFBFB",
/* pixels */
"                                                                                                    ",
"                                                                                                    ",
"                                                  . . . .                                           ",
"                                        . . . . . . . . . .                                         ",
"                                      X o @ + + + o X . . . .                                       ",
"                                    o # , < 2 2 < , + X . . . .                                     ",
"                                    % < 7 0 w q w 7 , # X . . .                                     ",
"                                  $ 1 7 j K K K K j 7 , # X . . .                                   ",
"                                  < 7 q c L P P c c q 6 = O o o X                                   ",
"                                  < 7 0 j c K K c j c 0 3 $ = , %                                   ",
"                                  , 2 4 8 w k k 0 0 j 0 3 , 5 7 4                                   ",
"                                    3 3 4 9 q k 0 0 j 0 3 3 9 b 9                                   ",
"                                    0 9 5 7 q c k c c 0 3 3 9 0 5                                   ",
"                                    c q 8 4 9 q c c P 0 3 < 6 6 1                                   ",
"                                    K q 5 < 3 9 c P P b x i g i i                                   ",
"                                    P k 9 4 5 9 b c v W *.>.,.<.:.                                  ",
"                                    Y U v l l v I I E 4.B.).).~.f.r.                                ",
"                                  j.8.=.Q R E E Q / 3.B.'.@XOX/.f.r.                                ",
"                                  ).^.d.3.*.;.:.4.s./.+X#X@X`.h.y.<.<.                              ",
"                                '.'.`.^.f.i.f.h.~.`.+X*X&X@X~.y.<.r.0.q.                            ",
"                                `.'.`.`././.`.OX+X@X&X*X*X+XW.t.<.9.e.H.                            ",
"                                ~./.`.'.`.`.`.OX@X*X*X*X*X+XW.t.,.q.H.J.K.                          ",
"                                u.g.^.`.`.^.g.^.+X*X*X*X&XOXh.t.<.q.H.J.I.                          ",
"                                %.u.~./.~.u.;.i.'.*X*X&X@X`.f.4.8.w.C.K.I.I.                        ",
"                                @.t.W.W.p.H A r.'.&X*X#X`.g.u.3.2.l.Z.K.I.I.                        ",
"                                @.r.W.g.%.g g <.`.&X*X+X~.u.<.1.} k.Z.K.I.I.                        ",
"                                #.t.W.f.#.s C y.'.*X*X+XW.t.>.1.} o.Z.K.I.I.                        ",
"                              6.;.r.g.f.%.A :.W.+X&X*X+XW.r.>.2.[ k.Z.K.I.I.                        ",
"                              e.1.y.g.g.<.:.W.OX&X*X*X+XW.y.>.1.7.z.Z.K.I.I.                        ",
"                            J.v.8.y.W.W.f.h.'.&X*X*X*X+XW.t.>.5.7.x.F.K.I.                          ",
"                            S.v.6.p.L././.`.@X*X*X*X*X+XW.t.,.0.v.Z.K.K.I.                          ",
"                          D.Z.7.1.y.W.`.`.+X&X*X*X*X*X+XW.y.5.w.C.K.I.I.                            ",
"                        Z.Z.z.} =.p.~.`.'.+X#X&X*X&X&XOXh.8.6.v.Z.K.I.I.                            ",
"                        x.x...' / r.~.`.'.'.'.'.'.`.`.~.p.=.{ | Z.K.I.I.                            ",
"                      ( } | ` _ / <.h.).`.~.f.u.r.r.r.-.~ ^ ' o.Z.K.I.I.                            ",
"                    F ^ ( ` ` ) ^ %.p.g.f.u.@.C B B B M R ! | x.F.K.I.                              ",
"                    F H ^ ^ ! T M V ~ %.%.@.V g s s h n ! { o.Z.D.K.K.                              ",
"                      F H       g V @.-.;.-.%.%.#.H Z R ) o.Z.A.J.H.                                ",
"                                A #.y.g.h.Q.Q.h.h.i.-.^ _ | Z.C.n.e.                                ",
"                                O.r.h.`.'.+XOX+X'.^.y.~ ( } w.e.q.r.                                ",
"                                @.y.~.OX@X&X&X&X#X`.i.#.^ / 6.8.<.:.                                ",
"                                @.r.~.OX@X&X*X*X&X'.i.O.H %.:.:.%.#.                                ",
"                                O.r.~.'.+X#X&X*X&X'.y.G H #.%.#.H D                                 ",
"                                J <.W.`.OX@X&X*X&X'.4.V A O.@.J V N                                 ",
"                                C :.W.`.OX+X&X*X#X).>.N N C A B N p                                 ",
"                                g %.h.`.OX@X&X&XOXh.@.a u d d d d p                                 ",
"                                B :.h.`.'.@X@XOXh.:.C p u p p p p p                                 ",
"                                :.i.^.`.OX@X@X`.p.G D A N p p p p p                                 ",
"                                Q.^.`.'.'.+X@X`.y.~ %.:.D p y p d p                                 ",
"                                `.`.'.'.OX@X@X`.r.H ;.;.V p t p p p                                 ",
"                                '.'.'.'.+X@X@X`.<.V V A s r t p p p                                X",
"                              f.).'.'.+X+X@X&X`.<.g r r : : t p p p                                X",
"                              <.~.`.OX+X@X&X$X].4.z > * & : r p p p                                 ",
"                            s %.h.`.'.+X@X$X%X_.q.^     & : e u p p                                 ",
"                            f %.g.`.'.'.XXXXoXR.v.`     & - ; u p d                                 ",
"                            B %.f./.`.]._.R.R.Y.F.Z.      ; y g A O.                                ",
"                            A %.y.W.~.L.M.J.I.U.U.U.      S E +.;.t.           X X                  ",
"                            G #.r.u.    l.z.Z.F.G.U.E.    N.a.a.N.B.(.       X X X                  ",
"                            J @.:.r.        z.z.c.P.T.|. X{.(.V.!.[..X|. X X                        ",
"                            J @.;.:.           .o.m.[..X|.{.(.!.!.[..X X X                          ",
"                            J O.%.:.                      B.a.a.s.N.(.                              ",
"                          D J O.%.:.                      +.+.;.>.t.                                ",
"                          D D O.%.;.                      O.O.O.%.:.                                ",
"                        G D G O.%.>.                    D D D O.%.:.                                "
};
