/* XPM */
static char *pa61639060390[] = {
/* columns rows colors chars-per-pixel */
"54 64 204 2 ",
"   c None",
".  c #020101",
"X  c #0B0B0A",
"o  c #120C06",
"O  c #110F0C",
"+  c #1B130B",
"@  c #281D12",
"#  c #241B10",
"$  c #231A0F",
"%  c #2C2115",
"&  c #372A1B",
"*  c #3D3525",
"=  c #2F2E32",
"-  c #3B3A3D",
";  c #353439",
":  c #2A292C",
">  c #433323",
",  c #4A3927",
"<  c #4E3D29",
"1  c #40372D",
"2  c #4C3F32",
"3  c #54412D",
"4  c #5A432E",
"5  c #5B4630",
"6  c #594A35",
"7  c #484432",
"8  c #624C35",
"9  c #654A34",
"0  c #675138",
"q  c #6C553B",
"w  c #71593E",
"e  c #71563C",
"r  c #3E3C43",
"t  c #46444C",
"y  c #4C4A4D",
"u  c #45444A",
"i  c #5B534C",
"p  c #4E4C55",
"a  c #524F54",
"s  c #535255",
"d  c #54525A",
"f  c #5B5A5C",
"g  c #5A5658",
"h  c #554F4B",
"j  c #665848",
"k  c #755C41",
"l  c #795F43",
"z  c #725E48",
"x  c #665B56",
"c  c #7D6245",
"v  c #7B634B",
"b  c #75624D",
"n  c #796959",
"m  c #6F6357",
"M  c #5D5C61",
"N  c #635D60",
"B  c #646365",
"V  c #6D6664",
"C  c #666569",
"Z  c #6B6A6E",
"A  c #68676D",
"S  c #776D64",
"D  c #6E6D71",
"F  c #716E73",
"G  c #737277",
"H  c #76757A",
"J  c #78777A",
"K  c #7C7B7D",
"L  c #7B7573",
"P  c #806547",
"I  c #826649",
"U  c #85694A",
"Y  c #816B53",
"T  c #836B54",
"R  c #8E775A",
"E  c #917A5B",
"W  c #827264",
"Q  c #887769",
"!  c #8B7A69",
"~  c #967F61",
"^  c #8B7C70",
"/  c #857A7A",
"(  c #A5895F",
")  c #8F806E",
"_  c #9B8A6D",
"`  c #9F926C",
"'  c #87837E",
"]  c #94877B",
"[  c #A78D66",
"{  c #AE976A",
"}  c #AA9577",
"|  c #B49D7B",
" . c #BA9D71",
".. c #B8996A",
"X. c #BAA47E",
"o. c #B4A17D",
"O. c #C1A06C",
"+. c #C6AC7C",
"@. c #C6A878",
"#. c #7E7E82",
"$. c #817E83",
"%. c #848285",
"&. c #868689",
"*. c #8B8B8C",
"=. c #898589",
"-. c #938C85",
";. c #988A86",
":. c #999387",
">. c #8F8E91",
",. c #908F93",
"<. c #939294",
"1. c #9B9593",
"2. c #959598",
"3. c #9C9699",
"4. c #9C9B9C",
"5. c #999897",
"6. c #A38B8C",
"7. c #A19486",
"8. c #A89B87",
"9. c #A39D9A",
"0. c #A9999C",
"q. c #A19892",
"w. c #B79D9E",
"e. c #ACA38A",
"r. c #BCAE8B",
"t. c #AAA49A",
"y. c #AEA99B",
"u. c #B1AC9D",
"i. c #BEB597",
"p. c #9F9FA1",
"a. c #A39EA1",
"s. c #B09DA0",
"d. c #A3A2A4",
"f. c #ACA5A7",
"g. c #A6A6A8",
"h. c #ACACAB",
"j. c #B6AAA9",
"k. c #B6B1A9",
"l. c #B5B4B5",
"z. c #B7B7B9",
"x. c #BCBCBD",
"c. c #BEB7B1",
"v. c #CBAF83",
"b. c #C1AB84",
"n. c #D0AD8D",
"m. c #CAB282",
"M. c #CEB88C",
"N. c #D3BD8B",
"B. c #D0B987",
"V. c #C1B99E",
"C. c #CCBC9A",
"Z. c #D2B893",
"A. c #C8AFB1",
"S. c #C6B7B8",
"D. c #D2B4B6",
"F. c #D7B9BA",
"G. c #CDB3A7",
"H. c #D7C18E",
"J. c #D8C28F",
"K. c #C9C09F",
"L. c #D5C494",
"P. c #DBCB9B",
"I. c #D7C797",
"U. c #E8D59F",
"Y. c #E3D39F",
"T. c #E1CC98",
"R. c #CBC2A4",
"E. c #D1C6A0",
"W. c #DBCEA2",
"Q. c #D5CAA5",
"!. c #DED1A2",
"~. c #DFD2B4",
"^. c #E1D4A3",
"/. c #E7D9A9",
"(. c #E7C3B6",
"). c #E6DBBA",
"_. c #BFBFC1",
"`. c #C0BFC0",
"'. c #DBBEC0",
"]. c #C3C3C3",
"[. c #CBCBCB",
"{. c #C8C7C7",
"}. c #D6C7C3",
"|. c #D1D0CF",
" X c #DED8C9",
".X c #D5D5D5",
"XX c #DCDBDB",
"oX c #E3C3C4",
"OX c #E6DDC6",
"+X c #F6D1D3",
"@X c #FDD7D8",
"#X c #F7D1CE",
"$X c #EFE8D5",
"%X c #EAE2C8",
"&X c #DFDFE0",
"*X c #E3E3E3",
"=X c #EBEBEB",
"-X c #EDEBE4",
";X c #F1EEEA",
":X c #F4F2EB",
">X c #F4F0E3",
",X c #F5F5F5",
"<X c #FCFCFC",
"1X c #FAF9F5",
/* pixels */
"                                                                                                            ",
"                                                                                                            ",
"                                                              . . . .                                       ",
"                                                    . . . . . . . . . .                                     ",
"                                                  o + @ @ @ # + o . . . .                                   ",
"                                                + % > , < < < > @ o . . . .                                 ",
"                                                & , 6 e e e q 8 > @ o . . .                                 ",
"                                              > < 8 w P I I v w 8 > @ o . . .                               ",
"                                              , 9 w l I U U I P k 6 > # + + o                               ",
"                                              , 8 e w P P P l w c 0 < & * > &                               ",
"                                              > < 4 9 e l l q q k q 3 , 6 8 4                               ",
"                                                3 4 4 e w w q q k q 3 3 0 w 8                               ",
"                                                e 8 8 9 w l l l c e 3 3 0 q 4                               ",
"                                                c e 8 4 0 k P P c e 3 , 6 6 3                               ",
"                                                I w 4 , 3 0 l I I b j i x x i                               ",
"                                                I l 0 4 5 0 l P Y Q -.2.4.5.<.                              ",
"                                                ~ T b z z v n T Q 4.x.|.|.{.l.p.                            ",
"                                              c.t.:.^ W W Q ^ ] 9.R.&X=X*X{.l.p.                            ",
"                                              |.{.k.5.*.;.1.9.j.[.*X=X=X.Xz.g.4.4.                          ",
"                                            XXXX.X{.c.h.z.x.`..X=X,X<X*X].g.4.4.y.u.                        ",
"                                            .XXXXX.X[.[..XXX*X=X,X<X<X*X_.d.5.t.i.K.                        ",
"                                            ].[..XXX.X.X.X&X=X<X<X<X<X*X_.p.4.u.R.Q.!.                      ",
"                                            g.z.[..X.X{.z.{.*X<X<X<X,X*Xx.p.t.u.E.!.^.                      ",
"                                            >.g.].[._.g.,.h.XX1X<X,X=X.Xl.d.y.V.E.!.^.^.                    ",
"                                            &.p._._.d.#.D p..X<X<X=X.Xz.h.u.c.I.!.!.^.^.                    ",
"                                            &.p.x.l.*.g f 4..X1X<X=X{.h.u.i.E.!.!.^.^.^.                    ",
"                                            %.p.z.l.&.g C g.XX1X,X*X].k.K.K.W.!.Y.!.^.^.                    ",
"                                            %.p.x.l.*.G ,._.*X1X<X-X}.R.E.W.!.!.P.P.P.                      ",
"                                            &.t.x.l.5.2.x.&X,X1X1X-X XQ.W.!.!.I.H.N.                        ",
"                                          e.>.d.x._.k.x.XX:X:X:X:X$X).!.I.L.H.H.+.@.                        ",
"                                        I.r.:.d._.[.{.|.*X;X$X%XOX).!.P.M.m.+.+.@.                          ",
"                                      I.C.r.8.g._.[.[.[. XOX~.Q.P.I.I.M.b.o.o.o.                            ",
"                                  e.i.L.m.| :.t.z.`.l.k.V.C.M.m.+.+.+.X.e.7.7.7.                            ",
"                                K ] e.r.X.{ ] <.g.g.2.;.7.|  ...{ [ [ _ ) ' ' %.                            ",
"                                J ' ] } { [ ) L K #.J L Q _ [ ( E Y v n S Z Z Z                             ",
"                                  J / ) ~ Q n f p a N N N W E R v i h f B Z Z Z                             ",
"                                      m b q h y y h g M N V S S V M f B H #.&.#.                            ",
"                                        - 7 y B H %.&.*.*.*.:.5.5.>.#.K &.*.,.<.                            ",
"                                  X X X   y C &.g.z.x.x.x.x._.[.[.].g.,.,.2.2.2.                            ",
"                              * X X X       K 4.x..XXX*X*X*X*X=X=XXXz.4.2.2.2.2.                            ",
"                      /./.I.` 7 X X         %.d.{.&X=X,X,X,X<X,X1X*X_.p.2.2.2.,.                            ",
"                    T.^.U.L.` 6 X           %.a.].XX=X,X,X<X<X<X<X*X_.p.2.>.&.&.                            ",
"                  B.J.T.J.B.{               #.p.].XX*X=X1X<X<X<X<X*Xx.p.>.&.#.D                             ",
"                O.@.B.J.J.H.                H 4.]..X*X=X,X<X<X<X,X*Xz.,.#.#.A M                             ",
"                @.@.@.N.T.U.                C <.x.XXXX=X<X<X<X<X<XXXh.#.D C M p                             ",
"                Z.n.n.N.U.                  f *.x..X*X*X,X<X<X<X,XXXg.D d d d d                             ",
"                (.(.G.                      B <._..X*X=X,X<X<X<X,XXXp.A d p p p                             ",
"                  @X                      Z *.h.].XX*X=X<X<X<X<X,X.X4.B p p p p                             ",
"                    @X                    >.h.].&X*X,X,X<X<X<X,X=X{.<.f t p p p                             ",
"                    @X@X                2.h._.&X&X=X,X<X<X<X<X<X*X`.*.s t p d p                             ",
"                    @X@X                z.]..X&X=X,X<X<X<X<X<X,X&Xx.&.p t p p p                             ",
"                      @X                z.R..X&X=X,X<X<X<X<X,X,XXXl.H p t p p p                             ",
"                                        ,.g.]..X*X=X,X<X<X,X=X=X.Xp.N r u t p p                             ",
"                                      i f / d.].XX*X=X,X,X,X=X*X    r ; r t p p                             ",
"                            @X@X#XF.6.m g V $.f.{.&X*X=X*X=X        : = r t p M                             ",
"                              @X#X'.s.6.;./ / 2._..X&X&X&X            - t M A #.                            ",
"                                  oXF.D.A.A.s.                        B F K *.<.                            ",
"                                    F.F.F.'.oX                          0.0.a.t.                            ",
"                                    s.s.A.D.oX+X@X@X@X        @X@X      D.A.j.a.                            ",
"                                    $.*.3.j.'.+X@X@X@X        @X@X      D.A.f.4.                            ",
"                                    #.#.>.a.S.                          a.0.3.2.                            ",
"                                  G G #.*.2.                          #.$.=.>.2.                            ",
"                                  G H $.*.<.                          G H #.*.,.                            ",
"                                G G H #.*.<.                        G G H #.>.<.                            "
};
