/* XPM */
static char *pa71639060391[] = {
/* columns rows colors chars-per-pixel */
"62 64 193 2 ",
"   c None",
".  c #010100",
"X  c #120C06",
"o  c #1B130B",
"O  c #231A0F",
"+  c #241B10",
"@  c #281D12",
"#  c #2C2115",
"$  c #352919",
"%  c #3B2D1E",
"&  c #312518",
"*  c #252527",
"=  c #3E3020",
"-  c #2D2C30",
";  c #3B3A3E",
":  c #433323",
">  c #4A3927",
",  c #4E3D29",
"<  c #523F2B",
"1  c #54412D",
"2  c #5A432E",
"3  c #5B4630",
"4  c #5D4A34",
"5  c #624C35",
"6  c #654A34",
"7  c #675138",
"8  c #6C553B",
"9  c #71593E",
"0  c #71563C",
"q  c #444347",
"w  c #45434B",
"e  c #49474F",
"r  c #4A4446",
"t  c #5C554F",
"y  c #4E4C55",
"u  c #504E57",
"i  c #54535A",
"p  c #58575B",
"a  c #5B5A5C",
"s  c #755C41",
"d  c #795F43",
"f  c #735D48",
"g  c #625955",
"h  c #63574B",
"j  c #7D6245",
"k  c #7B634B",
"l  c #75604A",
"z  c #6C635C",
"x  c #5D5C61",
"c  c #626264",
"v  c #65646A",
"b  c #68676D",
"n  c #6B6A6D",
"m  c #766C6D",
"M  c #6E6D72",
"N  c #706F75",
"B  c #737277",
"V  c #76757A",
"C  c #78777A",
"Z  c #7B7B7D",
"A  c #806547",
"S  c #826649",
"D  c #85694A",
"F  c #816A54",
"G  c #836B54",
"H  c #87735B",
"J  c #887769",
"K  c #877566",
"L  c #8B7C70",
"P  c #827C79",
"I  c #877D75",
"U  c #9D8C7B",
"Y  c #95877A",
"T  c #928472",
"R  c #A98F62",
"E  c #A78E6D",
"W  c #B5986E",
"Q  c #A28D75",
"!  c #AB977A",
"~  c #B59E7D",
"^  c #B59B76",
"/  c #BEA173",
"(  c #B9A47C",
")  c #C2A16C",
"_  c #C3A374",
"`  c #C7AB7C",
"'  c #C8AD7B",
"]  c #CBB17F",
"[  c #7E7E82",
"{  c #817F82",
"}  c #828285",
"|  c #86868A",
" . c #8B8B8D",
".. c #88878B",
"X. c #928B84",
"o. c #968E87",
"O. c #9B9182",
"+. c #9F9989",
"@. c #8F8F91",
"#. c #908F91",
"$. c #929295",
"%. c #9A9594",
"&. c #959598",
"*. c #9C9B9D",
"=. c #999898",
"-. c #A3978B",
";. c #A59988",
":. c #A29D9B",
">. c #A59B92",
",. c #ACA38A",
"<. c #BBAB88",
"1. c #A9A49B",
"2. c #B2A899",
"3. c #BEB599",
"4. c #9F9FA1",
"5. c #A09FA1",
"6. c #A3A3A4",
"7. c #ABA9A7",
"8. c #ADACAC",
"9. c #A6A6A8",
"0. c #B3AFAC",
"q. c #B9B2AA",
"w. c #B4B4B4",
"e. c #BEB7B1",
"r. c #B7B7B9",
"t. c #BDBCBD",
"y. c #CAAF82",
"u. c #C1AC8F",
"i. c #D0AD8D",
"p. c #CAB283",
"a. c #CDB68B",
"s. c #D0B987",
"d. c #D1BB8A",
"f. c #D8BF8D",
"g. c #C1AE97",
"h. c #C7B297",
"j. c #CCB891",
"k. c #D2B893",
"l. c #CABDA2",
"z. c #C2BEBC",
"x. c #DDBBA4",
"c. c #CAC09F",
"v. c #D7C493",
"b. c #D9C694",
"n. c #DCC996",
"m. c #DDCD9C",
"M. c #D3C69A",
"N. c #E3D29E",
"B. c #CEC4A0",
"V. c #D2C7A0",
"C. c #DBCEA3",
"Z. c #D5C3AB",
"A. c #D8CDAC",
"S. c #D7C9A9",
"D. c #DFD1A1",
"F. c #CBC6BC",
"G. c #D4CABA",
"H. c #E1D4A3",
"J. c #EADAA5",
"K. c #E3D6AB",
"L. c #EADBA7",
"P. c #E8C3B8",
"I. c #E2D9BB",
"U. c #EEE0AC",
"Y. c #F3E5B0",
"T. c #BFBFC1",
"R. c #C3C3C3",
"E. c #CCCBCB",
"W. c #C9C8C7",
"Q. c #D3CAC0",
"!. c #D2D1CF",
"~. c #D9D1C8",
"^. c #D5D4D4",
"/. c #DCD9D4",
"(. c #DCDCDC",
"). c #E0DFDD",
"_. c #E3DFD3",
"`. c #FAD4D4",
"'. c #FDD7D8",
"]. c #F7D2D0",
"[. c #E5D1C8",
"{. c #EAE2C6",
"}. c #EBE4DC",
"|. c #E5E0DB",
" X c #E3E3E3",
".X c #EBEBEB",
"XX c #EBE9E4",
"oX c #F1EEE2",
"OX c #F0EFEF",
"+X c #F5F2E6",
"@X c #F5F4F4",
"#X c #FCFCFC",
"$X c #F8F7F5",
/* pixels */
"                                                                                                                            ",
"                                                                                                                            ",
"                                                                          . . . .                                           ",
"                                                                . . . . . . . . . .                                         ",
"                                                              X o + @ @ @ o X . . . .                                       ",
"                                                            o # : , , , , : @ X . . . .                                     ",
"                                                            & > 5 8 0 9 8 5 > @ X . . .                                     ",
"                                                          = , 5 s j S S j 9 5 > # X . . .                                   ",
"                                                          > 6 9 j S D D A j 9 4 : O o o X                                   ",
"                                                          > 5 8 s j S j d d j 8 > % % : $                                   ",
"                                                          : < 2 6 0 d s 8 8 s 8 1 > 3 5 1                                   ",
"                                                            2 < 2 7 d s 8 8 s 8 1 1 7 s 7                                   ",
"                                                            0 7 6 6 9 j d d j 8 1 1 7 9 3                                   ",
"                                                            A 0 6 2 7 9 j S S 9 1 , 4 4 ,                                   ",
"                                                            D 9 2 , 1 7 d S S f h t t g t                                   ",
"                                                            D d 5 2 2 7 d A F K X.&.*.=.$.                                  ",
"                                                            J H l f f k k k J %.t.!.!.R.w.4.                                ",
"                                                          e.>.O.L K K J T Y 1.F.).XX XE.w.4.                                ",
"                                                          ^.R.0.%.X.o.%.:.w.E. XOXXX^.t.7.*.4.:.                            ",
"                                                        (.(.^.W.r.8.w.r.R.^.XX@X@X.XR.0.7.2.2.3.                            ",
"                  ] n.J.Y.                              ^.(.(.!.E.!.^.). X.X$X$X@X XF.0.q.c.M.V.C.                          ",
"                ) ] b.J.U.U.n.                          R.E.!.(.(.(.}.oX+X+X+X+X+X_.F.c.B.D.D.D.D.H.                        ",
"                ) ' v.H.J.N.s.R 9 $ . . .               9.w.W.^././._.{.{.{.{.{.{.{.A.V.D.D.H.H.H.H.                        ",
"                ) ' s.n.H.N.s.R 9 $ . . . . .         c [ :.e.Q.G.G.S.C.A.K.K.K.D.D.D.D.D.H.H.H.H.H.                        ",
"                _ ` y.b.J.J.n.        . . . . . . . * y m Y ,.g.h.a.a.d.b.m.D.D.N.C.N.D.D.D.D.D.H.H.                        ",
"                i.i.y.f.J.                . . . . . * y b I Q ! ^ ^ _ ` d.v.v.v.v.k.v.v.v.v.v.n.m.                          ",
"                P.P.x.                                a M P Y Q W W _ ` a.k.a.a.y.y.` y.] ] ] p.                            ",
"                ].].                                    C } #.-.! ~ h.x.Z.Z.A.h.u.<.~ <.~ ~ / _                             ",
"                '.'.                                    } &.8.7.>.2.G.|.}.}._.~.q.>.;.;.;.;.!                               ",
"                '.'.                                  ,.#.4.r.t.w.z.).@X#X#X$X|.z.5.%.%.=.=.                                ",
"                '.'.                                M.<.+.6.R.E.E.^..X#X#X#X#X XT.5.&.&.%.&.                                ",
"                '.'.                              n.v.<.;.6.R.^.(. X@X#X#X#X#X XT.5.&.&.&.&.                                ",
"                '.'.                          +.<.v.p.( O.6.R.(.(. X.X$X$X$XOX(.t.*.$.$.$.$.                                ",
"                  '.                        Z X.,.<.( ! U 4.T.^.(.(.(.(.(.(.^.R.6. .[ } } [                                 ",
"                    '.                      Z T O.! E E Y *.t.E.^.W.w.6.4.4.4.$.Z M b M M M                                 ",
"                    '.'.                      Z P U E E L  .9.r.w.6.} b c c x x p p c b n n                                 ",
"                    '.'.                              H z M }  . .Y n p p a a a i c B [ } }                                 ",
"                    '.'.                                a n Y  .@.@. . . .$.=.$.[ [ | @.$.$.                                ",
"                    '.'.                                N ..9.r.t.T.t.t.T.W.E.R.9.@.@.&.&.&.                                ",
"                    '.'.'.                              [ *.t.^.(.). X X X.X.X(.r.4.&.&.&.&.                                ",
"                    '.'.'.                              } 6.R.(..X@X@X@X#X@X@X XT.5.&.&.$.$.                                ",
"                      '.'.'.                            } 6.R.(..X@X@X#X#X#X#X XT.4.$.$...|                                 ",
"                        '.'.                            [ 4.R.(. X.X#X#X#X#X#X XT.4.@...[ N                                 ",
"                          '.                            V *.T.(. X.X@X#X#X#X$X Xr.$.} C b x                                 ",
"                            '.                          B =.T.^. X.X@X#X#X#X$X(.8.[ b v x u                                 ",
"                            '.'.                        &.8.W.(. X.X#X#X#X#X#X(.9.M x u u u                                 ",
"                            '.'.                        T.W.(. XOX@X#X#X#X#X#X^.4.b u u u u                                 ",
"                              '.                      ^.(.(. X.X@X#X#X#X#X#X@X!.4.x u u u y                                 ",
"                                                  (.(.(.(. X.X@X#X#X#X#X#X#X.XW.@.p w y u y                                 ",
"                                                  (.(.(.(. X.X@XOX@X#X@X@X.X Xr.Z y w y y u                                 ",
"                                                  (.(.^.(. X X.X.X X.X X X X^.4.x q w y u y                                 ",
"                                                    T.W.!.(.(.).(. X(. X(. X    ; ; w y u u                                 ",
"                                          '.'.      #.9.R.^.(.(.(.(.(.(.        - ; e i x x                                 ",
"                                          '.`.[.  g a P 6.t.E.(.(.(.(.            q i v B [ @.                              ",
"                                                m r r x Z %.w.                      v Z ..&.6.                              ",
"                                                a a c c x c                         B } @.4.4.6.                            ",
"                                                b B } | Z                             } ..@.&.4.                            ",
"                                                V } $.*.                                [ } @.&.                            ",
"                                                V } $.=.                                C [ @.$.                            ",
"                                                V } @.$.                                V [ ..$.                            ",
"                                                V [ @.$.                                V [  .$.                            ",
"                                              N V [ ..$.                              B V [ |                               ",
"                                              V V [ @.$.                              B B C }                               ",
"                                            N N V [ ..$.                            B B B B                                 "
};
