/* XPM */
static char *pa81639060391[] = {
/* columns rows colors chars-per-pixel */
"56 64 193 2 ",
"   c None",
".  c #010101",
"X  c #0C0907",
"o  c #120C06",
"O  c #1B130B",
"+  c #22190E",
"@  c #241B12",
"#  c #281D12",
"$  c #2B2115",
"%  c #2B2219",
"&  c #3A2C1D",
"*  c #34291A",
"=  c #232224",
"-  c #28272A",
";  c #29282B",
":  c #3E3020",
">  c #2E2D31",
",  c #3A393C",
"<  c #353438",
"1  c #433423",
"2  c #4A3A27",
"3  c #4E3D29",
"4  c #483727",
"5  c #523F2B",
"6  c #54412D",
"7  c #5A432E",
"8  c #5B4631",
"9  c #5B4A33",
"0  c #624C35",
"q  c #654C35",
"w  c #675138",
"e  c #6C553B",
"r  c #6D5B3C",
"t  c #71593E",
"y  c #71563C",
"u  c #3E3D44",
"i  c #403F44",
"p  c #444447",
"a  c #47454D",
"s  c #4A4A4C",
"d  c #58524B",
"f  c #4E4C55",
"g  c #504E57",
"h  c #535153",
"j  c #55545A",
"k  c #58575A",
"l  c #5B5A5C",
"z  c #695844",
"x  c #755C41",
"c  c #795F43",
"v  c #745D49",
"b  c #625B53",
"n  c #605C5C",
"m  c #7D6245",
"M  c #7B654B",
"N  c #6D675D",
"B  c #77695A",
"V  c #5D5C61",
"C  c #605F63",
"Z  c #626264",
"A  c #666569",
"S  c #6B6A6D",
"D  c #6A6768",
"F  c #6D6D72",
"G  c #706F75",
"H  c #737276",
"J  c #76757A",
"K  c #79777A",
"L  c #7B7A7B",
"P  c #776F6A",
"I  c #806547",
"U  c #826748",
"Y  c #83694B",
"T  c #89724C",
"R  c #856D54",
"E  c #8C765A",
"W  c #917B5A",
"Q  c #88796C",
"!  c #837D7A",
"~  c #9B825D",
"^  c #A88B5D",
"/  c #98876C",
"(  c #8A857A",
")  c #968878",
"_  c #A48B68",
"`  c #AE936E",
"'  c #BC9C6A",
"]  c #B99866",
"[  c #AC997E",
"{  c #B49C7B",
"}  c #B79C71",
"|  c #B4A07C",
" . c #C2A26E",
".. c #C4A473",
"X. c #C4AB7B",
"o. c #C9AE7B",
"O. c #CBB17F",
"+. c #7F7E82",
"@. c #807F83",
"#. c #828285",
"$. c #868689",
"%. c #8B8B8D",
"&. c #948E88",
"*. c #9C9383",
"=. c #9F9886",
"-. c #8F8F92",
";. c #908F92",
":. c #939294",
">. c #999595",
",. c #959598",
"<. c #9C9B9C",
"1. c #A4978A",
"2. c #A49A8A",
"3. c #A79784",
"4. c #B29F81",
"5. c #A59D94",
"6. c #A49E99",
"7. c #BFAF85",
"8. c #BBAE8C",
"9. c #B7A583",
"0. c #AAA49B",
"q. c #AEA89B",
"w. c #A2A09E",
"e. c #B6AD9B",
"r. c #BFB79E",
"t. c #BFB491",
"y. c #AFA58A",
"u. c #9F9FA1",
"i. c #A09FA2",
"p. c #A3A2A3",
"a. c #ACABAB",
"s. c #A7A6A6",
"d. c #B8B2AA",
"f. c #B4B4B4",
"g. c #B7B7B8",
"h. c #BCBCBC",
"j. c #B9B7B5",
"k. c #B0ACA2",
"l. c #C9AE82",
"z. c #C1AC8F",
"x. c #D0AD8D",
"c. c #CCB484",
"v. c #CEB68A",
"b. c #D1BB89",
"n. c #C5B795",
"m. c #D2B893",
"M. c #C6BCA8",
"N. c #DDBAA5",
"B. c #D5C08E",
"V. c #C9C09F",
"C. c #D7C493",
"Z. c #D9C796",
"A. c #DCCD9C",
"S. c #D9C999",
"D. c #DED09F",
"F. c #E0CE9B",
"G. c #E1D09D",
"H. c #CEC2A0",
"J. c #D1C6A0",
"K. c #DBCFA2",
"L. c #D6C8A9",
"P. c #DFD2A1",
"I. c #C3C1BF",
"U. c #CCC7BB",
"Y. c #D7CEB9",
"T. c #E2D5A3",
"R. c #E9DAA5",
"E. c #E2D6AB",
"W. c #EADAA6",
"Q. c #E7C3B6",
"!. c #E2D9BB",
"~. c #F0E1AC",
"^. c #BFBFC1",
"/. c #C3C2C3",
"(. c #CBCACB",
"). c #C9C9C7",
"_. c #DCD6CB",
"`. c #CFCFD0",
"'. c #D4D4D4",
"]. c #DBDBDB",
"[. c #D7D7D8",
"{. c #E5DFD5",
"}. c #F6D1CE",
"|. c #EAE2C5",
" X c #E6E1DC",
".X c #DFDFE0",
"XX c #E3E3E3",
"oX c #EBEBEB",
"OX c #F2EEE2",
"+X c #F6F2E7",
"@X c #F4F4F4",
"#X c #F8F7F5",
"$X c #FCFCFC",
/* pixels */
"                                                            . .     . . . . . .                                 ",
"                                                          . . . . . . . . . . . .                               ",
"                                                          o O @ # # @ O o . . . .                               ",
"                                                        O $ 1 3 6 5 2 : # o . . . .                             ",
"                                                        * 4 0 e t t e 0 4 # o . . .                             ",
"                                                      & 5 0 t I I U m t 9 4 # o . . .                           ",
"                                                      2 0 t m U Y Y I m t 0 1 @ O O o                           ",
"                                                      2 9 e x m I I m x c e 2 & : 1 *                           ",
"                                                      4 5 q q y m m e e x e 6 2 8 9 7                           ",
"                                                        5 5 5 q t t e e x y 6 6 e x 0                           ",
"                                                        y q q q y m t m c y 5 5 e e 8                           ",
"                                                        c x q 5 w t I U U z 7 4 8 9 3                           ",
"                                                        I x 8 2 6 w x U m r 5 & : 4                             ",
"                                                        U c q 8 7 w m m c w 2 # @ %                             ",
"                          Q.m.....c.Z.                  R U m c m Y R M v z d h Z                               ",
"                        }.Q.x...O.B.G.W.              0.) E W / _ / / Q P ! &.s.^.                              ",
"                          N.l.l.b.G.R.W.              h.5.) _ ` 9.9.2.&.>.s.).].XX].^.                          ",
"                            v.b.F.W.R.A.l.          '.(.f.5.3.4.8.e.0.s.g.`.XXoXoX`.f.u.                        ",
"                            S.T.W.W.F.X.~ 8         ].'.).j.6.5.q.k.a.h.'.oX@XoX'.g.p.<.<.                      ",
"                              W.~.W.c.^ r &         ].].'.).j.d.j.I./.'.oX#X#XoX/.s.<.6.q.q.                    ",
"                                      T 4 O . o     '.[.].'.(.`.'..XXXoX#X$X$XXX^.p.<.q.r.H.                    ",
"                                        $ . . X s ,.h.(.'.[.[.[.[..XoX$X$X$X#XXX^.s.q.M.J.K.P.                  ",
"                                            . X > A ;.f.).'.'.).^.(.XX#X$X$X#X X/.a.r.V.K.P.T.                  ",
"                                            . . = f G ,.f.M./.M.k.H._.OX+X+XOX XU.H.S.P.P.T.T.T.                ",
"                                                = p C +.:.0.e.8.n.V.!.!.|.|.|.!.L.K.K.P.P.P.A.D.                ",
"                                                = p k A K / { X.v.C.A.E.E.E.E.E.T.K.P.P.S.C.Z.Z.                ",
"                                                  d h k D ( _ ' X.b.C.D.T.D.T.P.G.T.A.Z.b.c.O.O.                ",
"                                                  / N k n N ~ ^ ' X.b.B.Z.C.C.C.C.C.C.b.X. . .                  ",
"                                                A.8.( D n N v T ^  .l.m.b.v.v.l.c.l.o.X. .'                     ",
"                                                K.t.=.! L S N r E [ n.N.L.n.z.4.4.{ { { } '                     ",
"                                            D.A.A.r.2.>.w.<.L d B 1.U.{.{.`.M.5.1.1.1.3.{                       ",
"                                          S.Z.Z.B.8.=.w.g.h.w.L D 5.'.@X#XXXM.i.>.>.>.>.                        ",
"                                      =.t.b.v.O.O.| *.w.^.`.^.u.@.<.'.oX@X].h.<.:.;.:.;.                        ",
"                                    L &.y.7.X. .' ` ) w.I.'.`.f.-.;.g.'.'./.p.%.#.+.#.#.                        ",
"                                    K ( &.[ } ' ' ` ) <.h.`.`.f.%.H %.,.<.-.+.S F F S F                         ",
"                                      K ! ) ` ] ] / Q %.s.g.f.w.K k k N Z l k l V S S F                         ",
"                                                  E N S ( -.%.#.S k k l V l k Z +.+.+.+.                        ",
"                                                    l S #.-.-.-.%.%.%.:.,.:.+.L #.-.-.-.                        ",
"                                                    H $.p.g.h.^.h.h.^.).`.^.p.:.-.,.,.,.                        ",
"                                                    @.<.^.'.].XXXXXXXXoXoX].g.u.:.,.,.u.                        ",
"                                                    #.p./..XoX@X@X@X@X#X@XXX^.u.,.,.,.;.                        ",
"                                                    #.p./..XoX@X$X$X$X$X$XXX^.u.,.;.%.$.                        ",
"                                                    @.u./.].XXoX$X$X$X$X#XXX^.u.-.+.+.F                         ",
"                                                    J <./.[.XXoX@X$X$X$X$X.Xg.:.+.+.S V                         ",
"                                                    D :.h.[.XXXX@X$X$X$X$X].a.+.F A V g                         ",
"                                                    k %.h.'.].oX#X$X$X$X$X].s.F V g g g                         ",
"                                                    h %.h.'.XXoX#X$X$X$X$X].p.A g f g f                         ",
"                                                  ; h $.h.].XXoX#X$X$X$X@X].p.A f f f g                         ",
"                                                  , l :.^..XoX$X$X$X$X$X@X[.<.Z a f f g                         ",
"                                                , k +.a.`.oX#X$X$X$X$X$X@X'.>.l a f g f g                       ",
"                                                s K p.).XX@X$X$X$X$X#X#XoX/.;.j a f f f g                       ",
"                                                h #.g.].oXoX@X@X@X$X@X@XXX/.$.f u a f f g f                     ",
"                                                h #.g.'.XXoXoXoXoXoXXXoXXX    p < u a f f f                     ",
"                                              - p H w.h.`.].XXXX].XXXX          > < u a f f                     ",
"                                              , p l L ,.f.                      ; > u a j j                     ",
"                                            f k N Z Z Z                           , a j S H                     ",
"                                            A J #.#.K                             j Z H $.;.                    ",
"                                            H +.:.<.                                H $.:.u.                    ",
"                                            J $.:.,.                                J $.;.u.                    ",
"                                            J $.%.,.                                J @.-.:.                    ",
"                                            J +.%.:.                                J +.-.:.                    ",
"                                          G J +.-.:.                              +.J +.%.:.                    ",
"                                          J J +.%.:.                              G +.+.%.;.                    ",
"                                        J G H +.-.:.                            G G G +.%.,.                    "
};
