/* XPM */
static char *pa91639060391[] = {
/* columns rows colors chars-per-pixel */
"48 64 189 2 ",
"   c None",
".  c #010100",
"X  c #120C06",
"o  c #1B130B",
"O  c #231A0F",
"+  c #241B12",
"@  c #281D12",
"#  c #2C2115",
"$  c #2B2219",
"%  c #3A2C1D",
"&  c #332719",
"*  c #2C2B2E",
"=  c #332E2D",
"-  c #3E3020",
";  c #2F2E32",
":  c #333335",
">  c #3B3A3D",
",  c #37353B",
"<  c #433423",
"1  c #4A3927",
"2  c #4E3D29",
"3  c #483727",
"4  c #523F2B",
"5  c #433D37",
"6  c #54412D",
"7  c #5A432E",
"8  c #5B4631",
"9  c #5B4A36",
"0  c #624C35",
"q  c #654C35",
"w  c #675138",
"e  c #6C553C",
"r  c #71593E",
"t  c #71563C",
"y  c #3E3D44",
"u  c #454546",
"i  c #46444B",
"p  c #48474B",
"a  c #4B4B4D",
"s  c #4E4C55",
"d  c #514E55",
"f  c #514F58",
"g  c #545355",
"h  c #545259",
"j  c #58575B",
"k  c #5B5A5D",
"l  c #59504A",
"z  c #755C41",
"x  c #795F43",
"c  c #745D49",
"v  c #655447",
"b  c #7D6245",
"n  c #7B664C",
"m  c #7B664B",
"M  c #67625E",
"N  c #7E6C56",
"B  c #5C5B62",
"V  c #636365",
"C  c #6A6461",
"Z  c #656469",
"A  c #6A696E",
"S  c #7E7267",
"D  c #6E6D71",
"F  c #727176",
"G  c #76757A",
"H  c #7B7A7D",
"J  c #797677",
"K  c #806547",
"L  c #826748",
"P  c #83694B",
"I  c #856D54",
"U  c #89745A",
"Y  c #927858",
"T  c #897A6B",
"R  c #867D78",
"E  c #9D835B",
"W  c #A18356",
"Q  c #9A866B",
"!  c #8B817A",
"~  c #9F8B74",
"^  c #92867B",
"/  c #958473",
"(  c #A48C69",
")  c #AC916A",
"_  c #B99763",
"`  c #BD9D6A",
"'  c #B69563",
"]  c #A99475",
"[  c #B39C79",
"{  c #B8A17F",
"}  c #C09F6A",
"|  c #C2A26D",
" . c #C7AB77",
".. c #C4A87C",
"X. c #C9AF7D",
"o. c #C6A772",
"O. c #CBB17E",
"+. c #7F7E82",
"@. c #807F83",
"#. c #838385",
"$. c #8B8685",
"%. c #8D8987",
"&. c #878689",
"*. c #8B8A8D",
"=. c #938C87",
"-. c #9F978F",
";. c #8E8E91",
":. c #939294",
">. c #9B9694",
",. c #969698",
"<. c #9B9B9C",
"1. c #9A9896",
"2. c #A4998B",
"3. c #A99A87",
"4. c #B19F85",
"5. c #A59D94",
"6. c #A49E95",
"7. c #B3A48C",
"8. c #BBA886",
"9. c #AAA39B",
"0. c #AEA99A",
"q. c #B9AD96",
"w. c #B7AE97",
"e. c #BFB69C",
"r. c #BCB094",
"t. c #9F9FA1",
"y. c #A19FA1",
"u. c #A2A2A3",
"i. c #ABA7A4",
"p. c #A6A6A8",
"a. c #AAAAAA",
"s. c #B1ADA2",
"d. c #B7B3AB",
"f. c #B4B4B4",
"g. c #B8B6B4",
"h. c #BCBCBC",
"j. c #BBB9B6",
"k. c #C4AC84",
"l. c #C5AF89",
"z. c #CBB382",
"x. c #CDB489",
"c. c #CEBA8C",
"v. c #D2BB8A",
"b. c #C3B798",
"n. c #D1BD95",
"m. c #D3BEA3",
"M. c #C1BFBD",
"N. c #CEC29D",
"B. c #D5C494",
"V. c #D8C694",
"C. c #D1C59E",
"Z. c #DBCC9B",
"A. c #D8C89D",
"S. c #DED09F",
"D. c #E3CF9B",
"F. c #E4D29E",
"G. c #E8D59F",
"H. c #D5C5A4",
"J. c #DDCFA0",
"K. c #D8C6AB",
"L. c #DFD2A1",
"P. c #DED2A9",
"I. c #C1C0BF",
"U. c #D7CAB4",
"Y. c #E1D4A2",
"T. c #E9DAA6",
"R. c #EDE0AB",
"E. c #F3E5B0",
"W. c #BFBFC1",
"Q. c #C3C3C4",
"!. c #CCCBCC",
"~. c #C7C6C8",
"^. c #DBD8CF",
"/. c #CFCFD0",
"(. c #D4D4D4",
"). c #DBDBDB",
"_. c #E3D7C6",
"`. c #E0DFDE",
"'. c #ECE4DA",
"]. c #DFDFE0",
"[. c #E3E3E3",
"{. c #EAEAEA",
"}. c #EFE8E0",
"|. c #F1EBE6",
" X c #F5F5F5",
".X c #F9F6F4",
"XX c #FDFDFD",
"oX c #FAF8F6",
"OX c #F6F2EE",
/* pixels */
"                                        . .     . . . . . .                                     ",
"                                      . . . . . . . . . . . .                                   ",
"                                      X o + @ + O o X . . . .                                   ",
"                                    o # < 2 2 4 2 < # X . . . .                                 ",
"                                    & 1 q t t t e 0 3 @ X . . .                                 ",
"                                  % 4 0 t K L L K r 0 < # X . . .                               ",
"                                  1 0 r b L P P K b r 9 - O o o X                               ",
"                                  3 0 t z x K K b x x e 2 % % < &                               ",
"                                  < 4 8 q t K x e e z e 6 1 8 0 7                               ",
"                                    7 4 4 w r r e e z e 6 6 e r 0                               ",
"                                    e w q q t K z x b t 6 6 w t 8                               ",
"                                    b e q 4 w r b L m r 6 1 8 9 2                               ",
"                                    L z 8 2 6 w x L m t 2 % - 3                                 ",
"                                    L x w 8 8 w x b x w 1 # @ $                                 ",
"                                    U m b b m m P m b v l g V                                   ",
"                                  9./ U Y E ( Q / T S J ;.u.M.                                  ",
"                                !.h.6.^ ( ] 8.8.2.=.1.a.~.).{.).W.                              ",
"                                !.~.d.9.3.[ 8.w.9.u.f./.[.{.[./.f.t.<.                          ",
"                              p.Q.!.~.g.9.5.0.s.a.h.(.{. X{.(.h.p.<.t.M.'.                      ",
"                            +.,.f.Q.!.~.g.f.j.W.~.(.{. XoX[.~.p.<.,.t.f.^.|.                    ",
"                            H $.,.f.!./.!.!.(.`.[.{.XXXXXX[.W.t.,.:.<.d.U._.                    ",
"                            / ! %.u.Q.(.(.(.(.[.{.oXXXXXoX[.W.u.,.:.5.r.N.P.                    ",
"                            ( / $.6.Q.(.(.Q.j.~.[.XXXXXX X].h.t.:.-.4.l.B.L.                    ",
"                              ~ $.u.Q.!.Q.p.;.a.).oXXX X{.(.f.t.1.2.{ k.B.L.Y.                  ",
"                              / $.y.h.Q.i.H D t.^.oXXX{.(.h.u.,.1.2.{ z.B.L.Y.                  ",
"                                $.y.h.g.;.k k <.). XXX[.Q.p.<.1.2.7.k.c.V.L.Y.Y.                ",
"                                #.t.h.f.&.g Z u.). XXX[.W.t.,.-.3.8.c.A.S.L.L.L.                ",
"                                #.t.j.f.*.F ;.W.[. XXX[.W.t.,.-.3.8.B.J.L.S.Z.V.                ",
"                  O.V.T.E.      &.t.h.j.,.,.j.]. XXXoX[.W.u.,.1.5.q.C.J.S.A.B.v.                ",
"                | O.V.Y.R.T.B.] $.y.h.W.f.j.). XXXXXXX[.W.t.,.9.w.b.H.J.A.A.H.K.                ",
"                | O.B.F.T.F.z.] ^ <.h.~.!.(.{.XXXXXXXX[.W.u.<.0.b.H.Z.V.v.H._.'.                ",
"                |  .v.Z.Y.D.z.) T *.p.M./.[. XXXXXXXoX[.W.p.0.e.N.A.V.v.v.H.`.OX                ",
"                } | O.V.F.F.z.) N C H t.Q.).{..XoX.X.X`.I.s.e.N.A.B.x.z.x.U.`..X                ",
"                  } o.v.G.G.z.E e 5 a J u.I./.(.).).(.!.d.w.l.n.B.v.z.l.m._.|.oX                ",
"                              I 9 ; : g F &.:.1.,.y.p.i.7.8.o.X. . . .n._.|..XXX                ",
"                              C g u , : 5 u a a g V H ! ~ ) ` | ` | ..U.}..XXXXX                ",
"                              D V k g a u p u u a k F ! ^ ~ ) _ _ _ l._..XXXXXXX                ",
"                            F F F G +.#.&.#.&.&.$.:.u.u.:.^ Q Y W W     XXXXXXXX                ",
"                            G F H ;.p.j.h.M.h.W.W.~./.~.a.%.S n m n     XXXXXXXX                ",
"                              F +.<.h.(.].].[.[.[.{.{.).j.:.F C M M     XXXXXXXX                ",
"                              G +.t.Q.].{. X X X XXX X[.h.<.&.+.H H     XXXXXXXX                ",
"                                #.u.Q.).{. X X XXXXXXX[.W.t.;.;.&.+.    XXXXXXXX                ",
"                                +.t.Q.).[.{.XXXXXXXXXX[.h.t.;.&.H F     XXXXXXXX                ",
"                                G <.W.).[.{. XXXXXXX X[.f.;.+.G A B     XXXXXXXX                ",
"                                Z :.W.(.].[. XXXXXXXXX).p.G Z V B h     XXXXXXXX                ",
"                                j *.h.(.].{. XXXXXXX X).t.V s f f f       XXXXXX                ",
"                                g *.h.(.).{. XXXXXXX X).<.B i s f f       XXXXXX                ",
"                                g *.h.(.).{. XXXXXXX X(.y.k i s s s h       XXXX                ",
"                                g *.j.(.].{. XXXXXXXoX).y.k u s s f s       XXXX                ",
"                                g *.h.^.[.[. XXXXXXX X).<.j y i s s s f                         ",
"                                g *.h.(.].{. XXXXXXX X).y.j , y i s s f                         ",
"                                g *.h.).[.OXoXXXXXXXoX].a.k ; , i s d f                         ",
"                                g *.h.).{. X XXXXXXX X{.Q.Z * , i a s s                         ",
"                                g *.h.).{. X X X X X X X    * : y i s s                         ",
"                                j *.h.(.[.{.{.{.{.{.{.{.    * ; y i f j                         ",
"                                V *.f./.(.).].[.[.].).        > i B A F                         ",
"                                A &.p.W.~.                    h V G &.:.                        ",
"                                +.&.t.p.                        F #.;.t.                        ",
"                                F +.*.t.                        G #.:.<.                        ",
"                                +.+.*.t.                        G @.;.:.                        ",
"                                +.+.&.;.                        +.+.*.:.                        ",
"                              F G +.*.;.                      G F +.*.:.                        ",
"                              G G +.;.:.                      F F +.*.:.                        ",
"                            F F G +.*.:.                    F A +.+.;.:.                        "
};
