/* XPM */
static char *smoke1_1638378040[] = {
/* columns rows colors chars-per-pixel */
"64 64 35 1 ",
"  c None",
". c gray50",
"X c #848484",
"o c gray58",
"O c #959595",
"+ c #979797",
"@ c #9A9A9A",
"# c gray61",
"$ c gray64",
"% c #A7A7A7",
"& c #A9A9A9",
"* c #AAAAAA",
"= c #B1B1B1",
"- c #C6C6C6",
"; c gray79",
": c #CACACA",
"> c #D2D2D2",
", c LightGray",
"< c gray83",
"1 c #D7D7D7",
"2 c #DDDDDD",
"3 c gray87",
"4 c #DFDFDF",
"5 c gray88",
"6 c #E2E2E2",
"7 c gray89",
"8 c gray91",
"9 c #E9E9E9",
"0 c gray93",
"q c #EEEEEE",
"w c #F6F6F6",
"e c #F8F8F8",
"r c #FBFBFB",
"t c #FEFEFE",
"y c white",
/* pixels */
"                                                                ",
"                                                                ",
"                                                                ",
"                                                                ",
"                                                                ",
"                                                                ",
"                                                                ",
"                                                                ",
"                                                                ",
"              ..............                                    ",
"              ..............                                    ",
"              ..............                                    ",
"              ..............                                    ",
"          ....->>>>>>>>>>>>-...........................         ",
"          ....;111111111111;...........................         ",
"          ....;111111111111;...........................         ",
"          ....;111111111111;........................X..         ",
"         @&&&&28888888888882&&&&&&&&&&&&&&&&&&&&&&&&&&%         ",
"     ....%1111eyyyyyyyyyyyye111111111111111111111111111X....    ",
"     ....%1111eyyyyyyyyyyyye111111111111111111111111111X....    ",
"     ....%1111eyyyyyyyyyyyye111111111111111111111111111X....    ",
"     ....%1111eyyyyyyyyyyyyw111111111111111111111111111X....    ",
"     ....%1111eyyyyyyyyyyyyyeeeeeeeeeeeeeeeeeeeeee81111X....    ",
"     ....%1111eyyyyyyyyyyyyyyyyyyyyyyyyyyyyyyyyyyy01111X....    ",
"     ....%1111eyyyyyyyyyyyyyyyyyyyyyyyyyyyyyyyyyyy01111X....    ",
"     ....%1111eyyyyyyyyyyyyyyyyyyyyyyyyyyyyyyyyyyy01111X....    ",
"     ....$----0wwweyyyyyyyyyyyyyyyyyyyyyyyyyyyyyyy01111X....    ",
"          ....;1116yyyyyyyyyyyyyyyyyyyyyyyyyyyyyyy01111X....    ",
"          ....;1116yyyyyyyyyyyyyyyyyyyyyyyyyyyyyyy01111X....    ",
"          ....;1116yyyyyyyyyyyyyyyyyyyyyyyyyyyyyyy01111X....    ",
"          ....;1116yyyyyyyyyyyyyyyyyyyyyyyyyyyyyyy01111X....    ",
"          ....;1116yyyyyyyyyyyyyyyyyyyyyyyyyyy776721111X....    ",
"          ....;1116yyyyyyyyyyyyyyyyyyyyyyyyyyy111111111XX...    ",
"          ....;1116yyyyyyyyyyyyyyyyyyyyyyyyyyy111111111X....    ",
"          ....;1116yyyyyyyyyyyyyyyyyyyyyyyyyyy111111111X....    ",
"          +oo+12628yyyyyyyyyyyyyyyyyyyyyyeeeee;;:::;;;;X...     ",
"     ....%1111eyyyyyyyyyyyyyyyyyyyyyyyyyy81111..X......         ",
"     ....%1111eyyyyyyyyyyyyyyyyyyyyyyyyyy81111.........         ",
"     ....%1111eyyyyyyyyyyyyyyyyyyyyyyyyyy81111.........         ",
"     ....%1111eyyyyyyyyyyyyyyyyyyyyyyyyyy81111.........         ",
"     ....%1111eyyyyyyyy088888888888888888-&&&&                  ",
"     ....%1111wyyyyyyyy611111111111111111&.X..                  ",
"     ....%1111wyyyyyyyy611111111111111111&....                  ",
"     ....%1111wyyyyyyyy611111111111111111&....                  ",
"     ....%1111wyyyyyyyy2>1>>1>>11>>1>1>>>&....                  ",
"     ....%1111111111111#................X                       ",
"     ....%1111111111111#.................                       ",
"     ....%1111111111111#.................                       ",
"     ....%1111111111111#.................                       ",
"     ....+=*===========+                                        ",
"     .........X........                                         ",
"     ..................                                         ",
"     ..................                                         ",
"     ..................                                         ",
"                                                                ",
"                                                                ",
"                                                                ",
"                                                                ",
"                                                                ",
"                                                                ",
"                                                                ",
"                                                                ",
"                                                                ",
"                                                                "
};
