/* XPM */
static char *smoke2_1638378040[] = {
/* columns rows colors chars-per-pixel */
"64 64 43 1 ",
"  c None",
". c gray50",
"X c #808080",
"o c #838383",
"O c gray59",
"+ c #979797",
"@ c gray61",
"# c #9F9F9F",
"$ c gray63",
"% c #A2A2A2",
"& c gray64",
"* c #A4A4A4",
"= c gray69",
"- c #B1B1B1",
"; c #B4B4B4",
": c gray71",
"> c #B6B6B6",
", c gray73",
"< c #C0C0C0",
"1 c gray79",
"2 c #CACACA",
"3 c gray80",
"4 c #CDCDCD",
"5 c gray81",
"6 c #D0D0D0",
"7 c gray83",
"8 c gray84",
"9 c #D7D7D7",
"0 c gray85",
"q c gray86",
"w c gray87",
"e c #DFDFDF",
"r c gray88",
"t c #E4E4E4",
"y c gray90",
"u c #ECECEC",
"i c gray93",
"p c gray94",
"a c #F4F4F4",
"s c #F6F6F6",
"d c #F8F8F8",
"f c gray99",
"g c white",
/* pixels */
"                                                                ",
"                                                                ",
"                                                                ",
"                                                                ",
"                                                                ",
"                                                                ",
"                                                                ",
"                       ...........                              ",
"                       ...........                              ",
"                       ...........                              ",
"                       ...........                              ",
"               ....                       999                   ",
"               ....                       999                   ",
"               ....                       999                   ",
"                   ...............           9999999            ",
"                   ...............           99999999           ",
"                   ...............           99999999           ",
"                   ...............           99999999           ",
"                   .XX@66666666666...........                   ",
"                   ..X@99999999999...........                   ",
"                   ...@09999999999..X.......X                   ",
"                   ...*rrrrrrrrrrr**%%+++++++                   ",
"           ....    ...-ggggggggggggggs9999990@..............    ",
"           ....    ...-ggggggggggggggs9999990@..............    ",
"           ....    ...-ggggggggggggggs9999999@..............    ",
"    .......        ...-gggggggggggggggiiiiiii05555551;;;%...    ",
"    .......        ...-gggggggggggggggggggggggggggggd099,...    ",
"    .......        ...-gggggggggggggggggggggggggggggs999,...    ",
"    .......        ...-gggggggggggggggggggggggggggggd999,...    ",
"    ....   ....19991110gggggggggggggggggggggggggggggd999,...    ",
"    ....   ....1999999tgggggggggggggggggggggggggggggd999,...    ",
"    ....   ....1999999tgggggggggggggggggggggggggggggd999,...    ",
"    ....   ....<151999tgggggggggggggggggggggggggggggs151;X..    ",
"           .....XXo099tgggggggggggggggggggggggggggggu...X       ",
"           .......o099tgggggggggggggggggggggggggggggu...X       ",
"           .......X999tgggggggggggggggggggggggggggggi....       ",
"            ......X0999999tpppgggggggggggggggspippppe....       ",
"                       ...;999sggggggggggggggt0999991....       ",
"                       ..X;099dggggggggggggggr9999991....       ",
"                       ..X;099dggggggggggggggt9999991....       ",
"                       X..;099eeerrrrrrrrrrre-+++++++    999    ",
"                       ...;099999999999999999%.......    999    ",
"                       ...;990999999099999990@.......    999    ",
"                       ...;996696969696969990@......X    999    ",
"                          ......XX......XX           9999       ",
"                          ...............X           9999       ",
"                          ................           9999       ",
"                           ..............           5,,,,       ",
"               ........                          9991....       ",
"               ........                          9991....       ",
"               ........                          9991....       ",
"                       ...                                      ",
"                       ...                                      ",
"                       ...                                      ",
"                       ...                                      ",
"                                                                ",
"                                                                ",
"                                                                ",
"                                                                ",
"                                                                ",
"                                                                ",
"                                                                ",
"                                                                ",
"                                                                "
};
