/* XPM */
static char *smoke3_1638378040[] = {
/* columns rows colors chars-per-pixel */
"64 64 49 1 ",
"  c None",
". c gray50",
"X c gray52",
"o c #8D8D8D",
"O c #959595",
"+ c gray59",
"@ c #9D9D9D",
"# c #A2A2A2",
"$ c gray65",
"% c #A9A9A9",
"& c gray68",
"* c #AEAEAE",
"= c #B4B4B4",
"- c gray72",
"; c gray73",
": c #C3C3C3",
"> c gray77",
", c #C8C8C8",
"< c gray79",
"1 c gray80",
"2 c gray82",
"3 c LightGray",
"4 c gray84",
"5 c #D7D7D7",
"6 c #DADADA",
"7 c gray86",
"8 c gainsboro",
"9 c #DDDDDD",
"0 c #DFDFDF",
"q c gray88",
"w c #E1E1E1",
"e c #E2E2E2",
"r c #E4E4E4",
"t c gray90",
"y c gray91",
"u c #E9E9E9",
"i c #EAEAEA",
"p c #ECECEC",
"a c gray94",
"s c #F1F1F1",
"d c gray95",
"f c #F3F3F3",
"g c #F6F6F6",
"h c #F8F8F8",
"j c #F9F9F9",
"k c gray99",
"l c #FDFDFD",
"z c #FEFEFE",
"x c white",
/* pixels */
"                                                                ",
"                                                                ",
"                                                                ",
"                                                                ",
"                                                                ",
"                                                                ",
"                                                                ",
"                                                                ",
"                                                                ",
"             ....                      555                      ",
"             ....                      5555                     ",
"             ....                      5555                     ",
"             ....                      555,                     ",
"          ...        .......555yxxx        .......              ",
"          ...        .......555yxxx        .......              ",
"          ...        .......555yxxx        .......              ",
"       ......    ...@;;;;;;;sspg                  ...           ",
"      .......    ...#5555555xxxx                  ...           ",
"      .......    ...#5555555xxxx                  ...           ",
"      .......    ...#5555555xxxx                  ...           ",
"                 5555555sxxxxxxx       5555555O...              ",
"                 5555555sxxxxxxx       5555555O...              ",
"                 5555555sxxxxxxx       5555565O...              ",
"                 yyyr555gxxxxxxx       555eyyr;%%$              ",
"      ....       xxxx   xxxxxxxxxxx        xxx056,...           ",
"      ....       xxxx   xxxxxxxxxxx        xxx055,...           ",
"      ....       xxxx   xxxxxxxxxxx        xxx055,...           ",
"                        xxxxxxxxxxxxxxxxxxxxxx056,...    5555   ",
"                        xxxxxxxxxxxxxxxxxxxxxx055,...    5555   ",
"                        xxxxxxxxxxxxxxxxxxxxxx055,...    5555   ",
"                        jjjjxxjxxxxxjxxxxxxxxxe661...    3333   ",
"          ...;555       ....555yxxx0655    xxxxxxp...    ....   ",
"          ...;555       ....556yxxx0555    xxxxxxpX..    ....   ",
"          ...;555       ....555rxxx0555    xxxxxxy...    ....   ",
"          ...:555       ....;;;3xxx0555   ypspxxxs$%%    ...    ",
"   555       5555xxxx   ........   55555556555jxxj555           ",
"   555       5555xxxx   ........   55555555555jxxg555           ",
"   555       5555xxxx   ........   55555555555jxxj555           ",
"      X...   OOOO000e              OOOOOOOOOOO                  ",
"      ....   .X..5555              ....X..X...                  ",
"      ....   ....5555              ...........                  ",
"      ....   ....5556              ...........                  ",
"      ....   ....555rxxx                          555           ",
"      ....   ....555rxxx                          555           ",
"      ....   ....555rxxx                          555           ",
"      ....       ***>pyye555xxx                   ***           ",
"      ....       ...#5665555xxxx                  ...           ",
"      ....       ...#5555555xxxx                  ...           ",
"      ....       ...#5555555xxxx                  ...           ",
"          ...        ooooooo6060       555=.......              ",
"          ...        .......5555       555=.......              ",
"          ...        .......5555       555=.......              ",
"          ...        .......555        555=.......              ",
"                                                                ",
"                                                                ",
"                                                                ",
"                                                                ",
"                                                                ",
"                                                                ",
"                                                                ",
"                                                                ",
"                                                                ",
"                                                                ",
"                                                                "
};
