/* XPM */
static char *smoke4_1638378041[] = {
/* columns rows colors chars-per-pixel */
"64 64 53 1 ",
"  c None",
". c gray50",
"X c gray54",
"o c gray56",
"O c gray57",
"+ c #929292",
"@ c #939393",
"# c gray58",
"$ c #959595",
"% c gray59",
"& c gray60",
"* c #9B9B9B",
"= c gray62",
"- c gray63",
"; c #A4A4A4",
": c gray66",
"> c #A9A9A9",
", c gray67",
"< c #ACACAC",
"1 c #AFAFAF",
"2 c gray69",
"3 c gray73",
"4 c gray74",
"5 c #C0C0C0",
"6 c #C3C3C3",
"7 c gray77",
"8 c #C6C6C6",
"9 c #C8C8C8",
"0 c gray79",
"q c #CACACA",
"w c #CDCDCD",
"e c gray81",
"r c #D2D2D2",
"t c gray84",
"y c #D7D7D7",
"u c #D8D8D8",
"i c #DADADA",
"p c gray87",
"a c gray88",
"s c #E2E2E2",
"d c #E4E4E4",
"f c #E7E7E7",
"g c gray91",
"h c gray92",
"j c #ECECEC",
"k c gray93",
"l c gray94",
"z c gray95",
"x c #F8F8F8",
"c c gray99",
"v c #FDFDFD",
"b c #FEFEFE",
"n c white",
/* pixels */
"                                                                ",
"                                                                ",
"                                                                ",
"                                                                ",
"                                                                ",
"                                                                ",
"                                                                ",
"                                                                ",
"                                                                ",
"                                                                ",
"                                                                ",
"             yyy                yyi#..                          ",
"             yyy                yyy#X.                          ",
"             yyy                yyy-Ooo                         ",
"      ...3yyy                      yyy;...                      ",
"      ...3yyy                      yyy:X..                      ",
"      ...3yyy                      yyy:...                      ",
"   ......          .......                   yyy                ",
"   ......          .......                   yyy                ",
"   ......          .......                   yyy                ",
"                ...6666666         yyy:.....X                   ",
"                ...ryyyyyy         yyy:X.....                   ",
"                ...ryyyyyy         yyy:......                   ",
"               o112fhhpyii          yyw006221                   ",
"             ..Oyyycccfyyy            cccziy0...      yyy4...   ",
"             ..Oyyycccfyyy            ccckyy0...      yyy4...   ",
"            #**:sfsccchfsh            cccxsfy***      yyy8***   ",
"         ...:yypccccccccccccccccyyyyyi    ccxyyy...   yyyyyyy   ",
"         ...:yypccccccccccccccccyyyiyy    cccyyi...   yyyyyyy   ",
"         ...:yypcccccccccccccccciyiiiy    ccxyii...   yyyyyyy   ",
"         ...:yyyiyy   X.X8cccccccccccccccccccccc...   yyyy      ",
"         ...:yyyiyy   ...8cccccccccccccccccccccc...   yyyy      ",
"         ...;iyyyyy   ...0ccccccccccccccccccccccX..   yiiy      ",
"            O##*         zccccccccccccksphccc         ####      ",
"             X..          cccccccccccchyyhccc         ..X.      ",
"             ...          cccccccccccchyihccc         ....      ",
"                       yyzcccccchffhhh8;:6                      ",
"                      yyyhccccccyyyyiy;X..                      ",
"                      yyikccccccyyyyyy;...                      ",
"                       yyzcccccc333wyi:..                       ",
"      yyy                 cccccc...                ...          ",
"      yyy                 cccccc...                ...          ",
"      yyy                ccccccc...                ...          ",
"         yyyy         yyikcccccc          cck...                ",
"         yyyy         yyyhcccccc          cckX..                ",
"         yyyy         yyyhcccccc          cch...                ",
"         ....         ...1yyiiyycccccccccziy8...                ",
"         ....         ...1yyyyyyccccccccczyy0...                ",
"         ....         ...2yyiiyiccccccccczyi0..X                ",
"             ...         O######;;;-;;;;;=###   ...             ",
"             ...          X.....X...X...X....   ...             ",
"             ...          ...................   ...             ",
"                ...                          ccc                ",
"                ...                          ccc                ",
"                ..X                          ccc                ",
"                ...                         :ipi                ",
"                                      ccciX.....                ",
"                                      ccci......                ",
"                                      ccci......                ",
"                                                                ",
"                                                                ",
"                                                                ",
"                                                                ",
"                                                                "
};
