/* XPM */
static char *smoke5_1638378041[] = {
/* columns rows colors chars-per-pixel */
"64 64 35 1 ",
"  c None",
". c gray50",
"X c gray59",
"o c gray63",
"O c gray64",
"+ c gray65",
"@ c #A9A9A9",
"# c #ACACAC",
"$ c #B4B4B4",
"% c gray73",
"& c #BBBBBB",
"* c gray75",
"= c #C0C0C0",
"- c #C1C1C1",
"; c gray77",
": c #C5C5C5",
"> c gray79",
", c #CACACA",
"< c gray82",
"1 c #D2D2D2",
"2 c #D7D7D7",
"3 c #D8D8D8",
"4 c gainsboro",
"5 c gray87",
"6 c gray88",
"7 c gray91",
"8 c #ECECEC",
"9 c gray94",
"0 c gray95",
"q c #F3F3F3",
"w c #F6F6F6",
"e c gray97",
"r c #F8F8F8",
"t c #F9F9F9",
"y c white",
/* pixels */
"                                                                ",
"                                                                ",
"                                                                ",
"                                                                ",
"                                                                ",
"                                                                ",
"                                                                ",
"                                                                ",
"                             ..                                 ",
"                             ..                                 ",
"                  .....22                                       ",
"                 ......222                                      ",
"                 ......222                                      ",
"                 >>>              ...........                   ",
"                 222              ...........                   ",
"                 222              ...........                   ",
"                                        22222@..                ",
"                                        22222@..                ",
"                                        56522$XX                ",
"                    .........           yy922222X..             ",
"                    .........           yy922222X..             ",
"                    +@@=====:           yy977522X..             ",
"      ...222     ...>22yyyyy922   222      yy722X..      22     ",
"      ...222     ...>22yyyyy923   222      yy722X..      22     ",
"      ...      ..#%%122     w99wyy999yy      622=%%..      o..  ",
"      ...      ..%22222      yyyyyyyyyyy     222222...     ...  ",
"      ...      ..%22222      yyyyyyyyyyy     222222...     ...  ",
"      >>>      ..%22         yyyyyyyyyyy        222...     ...  ",
"      222      ..%22         yyyyyyyyyyy        222...     ...  ",
"      222      ..%22         yyyyyyyyyyy        222...     ...  ",
"               ..%22           yyyyyy222        222...   22     ",
"               ..%22           yyyyyy222        222...   22     ",
"               .X=66           yyyttw222        >*=...   22     ",
"   ...         ..3yy           yyy623        222XX.             ",
"   ...         ..,yy           yyy622        222X..             ",
"    ..         ..=33            yy622         22X..             ",
"                 ...                                            ",
"                 ...                                            ",
"            ..   ...   ..                        22..           ",
"            ...  ...   ...                      222...          ",
"            ...  ...   ...                      222...          ",
"            ...                 22tyy         22oXX             ",
"            ...                222wyy        222XX.             ",
"            ...                222tyy        222X..             ",
"                               ...>22226yyyyy=..                ",
"                               ...>22225yyyyy=..                ",
"                                ..*>>>>188888%X.                ",
"                 222              ...........                   ",
"                 222              ...........                   ",
"                  22               ..........                   ",
"                    .....X222                                   ",
"                    .....X222                                   ",
"                                                                ",
"                                                                ",
"                                                                ",
"                                                                ",
"                                                                ",
"                                                                ",
"                                                                ",
"                                                                ",
"                                                                ",
"                                                                ",
"                                                                ",
"                                                                "
};
