/* XPM */
static char *smoke6_1638378041[] = {
/* columns rows colors chars-per-pixel */
"64 64 46 1 ",
"  c None",
". c gray53",
"X c gray54",
"o c #909090",
"O c #959595",
"+ c #979797",
"@ c #9B9B9B",
"# c gray61",
"$ c #A2A2A2",
"% c #A5A5A5",
"& c gray65",
"* c #A7A7A7",
"= c #ACACAC",
"- c gray68",
"; c gray70",
": c #B4B4B4",
"> c #B7B7B7",
", c gray72",
"< c #B9B9B9",
"1 c #BBBBBB",
"2 c #BCBCBC",
"3 c gray74",
"4 c gray",
"5 c #C1C1C1",
"6 c #C3C3C3",
"7 c gray77",
"8 c #C5C5C5",
"9 c #CACACA",
"0 c #CBCBCB",
"q c #D0D0D0",
"w c #D7D7D7",
"e c #D8D8D8",
"r c gray85",
"t c gray86",
"y c gray88",
"u c #E2E2E2",
"i c gray90",
"p c gray91",
"a c gray92",
"s c #EFEFEF",
"d c gray94",
"f c #F1F1F1",
"g c #F3F3F3",
"h c #F8F8F8",
"j c #F9F9F9",
"k c white",
/* pixels */
"                                                                ",
"                                                                ",
"                                                                ",
"                                                                ",
"                                                                ",
"                                                                ",
"                                   ......                       ",
"                                   ......                       ",
"                                   #++X..                       ",
"                              ..4wwwww                          ",
"                              ..4wwwww                          ",
"                              ..1wwwww                          ",
"                        ...                    ......           ",
"                        ...                    ......           ",
"                        ***                    ..o***           ",
"                     ..@www        www@..         ww9...        ",
"                     ..@www        www@..         ww9...        ",
"                    +--;ww          ww;--+        ww8...        ",
"                  ..@www      ww      www@..         ...        ",
"                  ..@www      ww      www@..         ...        ",
"               ...>>4www   www           1>>...      >>=..      ",
"               ...wwwwww   www           www...      ww4...     ",
"               ...wwwwww   www           www...      ww4...     ",
"               ...www                    ddd414        -...     ",
"               ...www                    kkkwww         ...     ",
"               ...www                    kkkwww         ...     ",
"            ...888      kk       kkkkk   kkkwww         888     ",
"            ...www      kkk     kkkkkk   kkkwww         www     ",
"            ...www      kkk     kkkkkk   kkkwww         www     ",
"       ww   ...www      yypkk   kkkkkkkkkiyy      kkk           ",
"      www   ...www      wwpkkk  kkkkkkkkkyww      kkk           ",
"      www   ...www      wwpkkk  kkkkkkkkkyww      kkk           ",
"      www   ...www      oo;tttwwdkk   ttt$oo   kkk              ",
"      www   ...www      ..-wwwwwdkk   www@..   kkk              ",
"      www   ...www      ..-wwwwwdkk   www@..   kkk              ",
"      www      kkk         .....4ww                  www        ",
"      www      kkk         .....4ww                  www        ",
"      www      kkk         .....1ww                  qqq        ",
"                        kkk                       ww9...        ",
"                        kkk                       ww9...        ",
"                        hhh                       996..         ",
"   ...   ...9ww         wwpkkk              kkkww9...           ",
"   ...   ...9ww         wwpkkk              kkkww9...           ",
"   ...   ...166         66tddd              iyy661...           ",
"   ...      ...         ..-wwwwwwwwwwwwwwwww.........           ",
"   ...      ...         ..-wwwwwwwwwwwwwwwww.........           ",
"    ..      ...         ..*11441411411414114.........           ",
"            ......www      .................      ...           ",
"            ......www      .................      ...           ",
"                  >;1ww                        ...              ",
"                  ..@www                       ...              ",
"                  ..@www                       ...              ",
"                                    ww@........                 ",
"                                   www@........                 ",
"                                   www@........                 ",
"                                                                ",
"                                                                ",
"                                                                ",
"                                                                ",
"                                                                ",
"                                                                ",
"                                                                ",
"                                                                ",
"                                                                "
};
