/* XPM */
static char *smoke7_1638378041[] = {
/* columns rows colors chars-per-pixel */
"64 64 38 1 ",
"  c None",
". c gray53",
"X c #888888",
"o c gray55",
"O c gray56",
"+ c #909090",
"@ c #929292",
"# c gray58",
"$ c #959595",
"% c #989898",
"& c #9B9B9B",
"* c gray75",
"= c #C0C0C0",
"- c gray76",
"; c #C5C5C5",
": c gray78",
"> c gray79",
", c #CACACA",
"< c #CBCBCB",
"1 c gray80",
"2 c #CDCDCD",
"3 c gray81",
"4 c LightGray",
"5 c #D7D7D7",
"6 c #D8D8D8",
"7 c gray85",
"8 c #DADADA",
"9 c #DDDDDD",
"0 c gray87",
"q c gray88",
"w c gray89",
"e c gray90",
"r c #E7E7E7",
"t c gray91",
"y c gray93",
"u c #EFEFEF",
"i c #F8F8F8",
"p c white",
/* pixels */
"                                                                ",
"                                                                ",
"                                                                ",
"                                                                ",
"                     ........%555         55,...                ",
"                     .......X&555         55,...                ",
"                     .......X&655         55,...                ",
"                  XX+::,tte                  ::*...             ",
"                  X.+650ppp                  55,...             ",
"                  XX+650ppp                  55,...             ",
"               ..o,,,                                           ",
"               .Xo566                                           ",
"               ..o665                                           ",
"               ,,,                                 555          ",
"               555                                 555          ",
"               555                                 555          ",
"         ...            ..%555         ppy......                ",
"         ...            ..%555         ppy......                ",
"         ...            ..%555         ppy......                ",
"         ...      .....$,,4iii            yye,,355,...          ",
"         ...      .....$550ppp            ppi55555,...          ",
"         ...      .....$550ppp            ppi55555,X..          ",
"      555         ..+,,,      ppppppppp         iiy,,*...       ",
"      555         XX+556      ppppppppp         ppi65,...       ",
"      555         ..+665      ppppppppp         ppi55,...       ",
"               ..$yyy      ppp      ppp               ,,3555    ",
"               .X+ppp      ppp      ppp               555555    ",
"               .X$ppp      ppp      ppp               555555    ",
"   ppp      ..o,,3ppp      ppp         ppp               555    ",
"   ppp      ..o566ppp      ppp         ppp               556    ",
"   ppp      ..o566ppp      ppp         ppp               566    ",
"   qqq      ..o556         pppppp   pppppp               iiq... ",
"   655      ..o555         pppppp   pppppp               ppe... ",
"   655      ..o555         pppppp   pppppp               ppe... ",
"   %%&      ..o555            ppp   ppp      555            ... ",
"   XXX      ..o555            ppp   ppp      555            ... ",
"   X..      ..o555            ppp   ppp      555            ... ",
"   ...555   ..o555      ppp               555            55=... ",
"   ...555   ..o555      ppp               555            55:... ",
"   ...555   ..o555      ppp               555            55:... ",
"            ..o555         pppppp                     55:$$$    ",
"            ..o655         pppppp                     55:...    ",
"            ..o656         pppppp                     66:XX.    ",
"               ++%655                              55,+++       ",
"               .X+565                              55,...       ",
"               .Xo565                              55,...       ",
"      ppp      ..Xo+%555                     555                ",
"      ppp      ...XX+555                     555                ",
"      ppp      .....+665                     555                ",
"      666                                 55,ooo                ",
"      556                                 55,...                ",
"      555                                 55,...                ",
"      XXX555                  ppi55,......XXX                   ",
"      ...555                  ppi55,.........                   ",
"      ...555                  ppi55,.........                   ",
"         ......      ...                                        ",
"         ......      ...                                        ",
"         ......      ...                                        ",
"                                                                ",
"                                                                ",
"                                                                ",
"                                                                ",
"                                                                ",
"                                                                "
};
