/* XPM */
static char *smoke8_1638378041[] = {
/* columns rows colors chars-per-pixel */
"64 64 51 1 ",
"  c None",
". c gray53",
"X c gray57",
"o c #959595",
"O c #9A9A9A",
"+ c #9B9B9B",
"@ c gray61",
"# c gray62",
"$ c #9F9F9F",
"% c #A0A0A0",
"& c gray66",
"* c gray67",
"= c #ACACAC",
"- c gray68",
"; c gray69",
": c #B2B2B2",
"> c gray71",
", c #B7B7B7",
"< c #BBBBBB",
"1 c #BCBCBC",
"2 c gray74",
"3 c gray75",
"4 c #C1C1C1",
"5 c #C3C3C3",
"6 c gray77",
"7 c gray78",
"8 c #CACACA",
"9 c #CECECE",
"0 c gray81",
"q c #D0D0D0",
"w c gray83",
"e c gray84",
"r c #D7D7D7",
"t c gray85",
"y c gainsboro",
"u c gray89",
"i c gray91",
"p c #E9E9E9",
"a c #EAEAEA",
"s c gray92",
"d c #ECECEC",
"f c gray93",
"g c gray94",
"h c #F1F1F1",
"j c gray95",
"k c #F4F4F4",
"l c gray97",
"z c #F8F8F8",
"x c #FDFDFD",
"c c #FEFEFE",
"v c white",
/* pixels */
"                                                                ",
"                                                                ",
"                                                                ",
"                         .........                              ",
"                         .........                              ",
"                       ..4tttttO.......          rr..           ",
"                       ..qvvvvv&........        rrr...          ",
"                       ..qvvvvv*........        rrr...          ",
"                    ..2ddlvvvvvhdd88888>..         884..        ",
"                    ..4vvvvvvvvvvvrtrrr2..         rr8...       ",
"                    ..4vvvvvvvvvvvrrrrr2..         rr8...       ",
"                                        vv               ..     ",
"                                        vv               ..     ",
"                                        vv               ..     ",
"        ............                                            ",
"        ............                                            ",
"        O$$$$$$$$*--                                            ",
"      ..>rrrrrrrrvvv                               vvd...       ",
"      ..>rrrrrrrrvvv                               vvd...       ",
"     $--9iiiuiyrrvv                                vvi---       ",
"   ..*rrdvvvvv                               ...      rrt       ",
"   ..*rrdvvvvv                               ...      rrr       ",
"   ..*rrdvvv                                          rr6..     ",
"   ..*rrdvv                                           rr2..     ",
"   ..*rrdvv                                           rr<..     ",
"   ..*rrdvv      ..Orr                                zzr..     ",
"   ..*rrdvv      ..$rrr                               vvr..     ",
"   ..*rrdvv      ..Orrr                               vvt..     ",
"   ..*rrdvv      rrr                            rrr      vv     ",
"   ..*rrdvv      rrr                            rrr      vv     ",
"   ..;yydvv      qqq                            qqq      vv     ",
"      vv         ...                            ...      vv     ",
"      vv         ...                            ...      vv     ",
"      vv         ...                            ...      vv     ",
"      vv                                        ...      vv     ",
"      vv                                        ...      vv     ",
"      ttt                                       ...      hht    ",
"      ..>tr                                  ...         rr;..  ",
"      ..>rr                                  ...         rr;..  ",
"      ..$--         ..                                   rt;..  ",
"      .....         ...                                  rr;..  ",
"      .....         ...                                  rr;..  ",
"                                                   vvzrr2$OX..  ",
"                                                   vvzrr2.....  ",
"                                                   vvzrr2.....  ",
"   rrr           rrr                            vvv......       ",
"   rrr           rrr                            vvv......       ",
"   q9q           9q9                            hhl......       ",
"   ..*rr         ...                      vvv2.....             ",
"   ..*rr         ...                      vvv2.....             ",
"   ..*868        ..o                       vv2.....             ",
"      ..>rr         vvvvv                                       ",
"      ..>rr         vvvvv                                       ",
"      ..>rr         ttuhhi                                      ",
"           ...      ..*rrrrrhvvvvvvvv                           ",
"           ...      ..-rrrrrhvvvvvvvv                           ",
"                      %-----<66i                                ",
"                       ........                                 ",
"                       ........                                 ",
"                                                                ",
"                                                                ",
"                                                                ",
"                                                                ",
"                                                                "
};
